M48
; DRILL file {KiCad 8.0.3} date 2024-08-09T13:49:04+0200
; FORMAT={-:-/ absolute / inch / decimal}
; #@! TF.CreationDate,2024-08-09T13:49:04+02:00
; #@! TF.GenerationSoftware,Kicad,Pcbnew,8.0.3
; #@! TF.FileFunction,Plated,1,2,PTH
FMAT,2
INCH
; #@! TA.AperFunction,Plated,PTH,ComponentDrill
T1C0.0300
; #@! TA.AperFunction,Plated,PTH,ComponentDrill
T2C0.0315
; #@! TA.AperFunction,Plated,PTH,ComponentDrill
T3C0.0354
; #@! TA.AperFunction,Plated,PTH,ComponentDrill
T4C0.0394
; #@! TA.AperFunction,Plated,PTH,ComponentDrill
T5C0.0433
; #@! TA.AperFunction,Plated,PTH,ComponentDrill
T6C0.0512
%
G90
G05
T1
X8.685Y-3.8661
X8.685Y-4.1654
X8.685Y-4.3701
X8.685Y-4.6693
X9.1276Y-3.8661
X9.1276Y-4.3701
X9.285Y-3.9154
X9.285Y-4.1654
X9.285Y-4.4193
X9.285Y-4.6693
T2
X7.0669Y-4.6819
X7.0669Y-5.0819
X7.3409Y-5.3291
X7.4409Y-5.3291
X7.4441Y-4.6819
X7.4441Y-5.0819
X7.5409Y-5.3291
X7.7331Y-5.5315
X7.7953Y-3.8551
X7.7953Y-4.2551
X7.7953Y-4.485
X7.7953Y-4.885
X8.0118Y-3.8551
X8.0118Y-4.2551
X8.0118Y-4.5047
X8.0118Y-4.9047
X8.1331Y-5.5315
X8.2358Y-4.3701
X8.2449Y-3.5236
X8.2677Y-4.4882
X8.2677Y-4.5882
X8.2677Y-4.6882
X8.3071Y-3.6795
X8.3071Y-3.7795
X8.3071Y-3.8795
X8.452Y-5.3325
X8.452Y-5.4325
X8.452Y-5.5325
X8.5358Y-4.3701
X8.5795Y-5.0394
X8.6449Y-3.5236
X8.6492Y-3.6614
X8.752Y-5.3325
X8.752Y-5.4325
X8.752Y-5.5325
X8.9142Y-2.6181
X8.9244Y-3.2967
X8.9244Y-3.3967
X8.9492Y-3.6614
X8.9795Y-5.0394
X9.2244Y-3.2967
X9.2244Y-3.3967
X9.3142Y-2.6181
X9.5213Y-2.6181
X9.9213Y-2.6181
T3
X7.04Y-5.315
X7.126Y-3.9764
X7.126Y-4.2126
X7.14Y-5.315
X7.2244Y-3.9764
X7.2244Y-4.2126
X7.3228Y-3.9764
X7.3228Y-4.2126
X8.5039Y-4.0945
X8.5039Y-4.1945
X8.5039Y-4.5669
X8.5039Y-4.6669
T4
X7.0618Y-2.2827
X7.0618Y-2.3827
X7.0618Y-2.4827
X7.0618Y-2.5827
X7.0618Y-2.6827
X7.0618Y-2.7827
X7.0618Y-2.8827
X7.0618Y-2.9827
X7.0618Y-3.0827
X7.0618Y-3.1827
X7.0618Y-3.2827
X7.0618Y-3.3827
X7.0618Y-3.4827
X7.0618Y-3.5827
X7.0618Y-3.6827
X7.6618Y-2.2827
X7.6618Y-2.3827
X7.6618Y-2.4827
X7.6618Y-2.5827
X7.6618Y-2.6827
X7.6618Y-2.7827
X7.6618Y-2.8827
X7.6618Y-2.9827
X7.6618Y-3.0827
X7.6618Y-3.1827
X7.6618Y-3.2827
X7.6618Y-3.3827
X7.6618Y-3.4827
X7.6618Y-3.5827
X7.6618Y-3.6827
T5
X8.9339Y-2.9134
X8.9339Y-3.0906
X9.052Y-5.5512
X9.152Y-5.5512
X9.252Y-5.5512
X9.3339Y-2.9134
X9.3339Y-3.0906
X9.5244Y-2.9134
X9.5244Y-3.0906
X9.9244Y-2.9134
X9.9244Y-3.0906
T6
X9.3307Y-2.126
X9.5276Y-2.126
X9.697Y-3.8976
X9.697Y-4.0945
X9.7047Y-4.4094
X9.7047Y-4.6063
X9.7047Y-4.9213
X9.7047Y-5.1181
M30
