%TF.GenerationSoftware,KiCad,Pcbnew,8.0.3*%
%TF.CreationDate,2024-08-09T13:49:10+02:00*%
%TF.ProjectId,230V_controller,32333056-5f63-46f6-9e74-726f6c6c6572,rev?*%
%TF.SameCoordinates,Original*%
%TF.FileFunction,Legend,Top*%
%TF.FilePolarity,Positive*%
%FSLAX46Y46*%
G04 Gerber Fmt 4.6, Leading zero omitted, Abs format (unit mm)*
G04 Created by KiCad (PCBNEW 8.0.3) date 2024-08-09 13:49:10*
%MOMM*%
%LPD*%
G01*
G04 APERTURE LIST*
%ADD10C,0.150000*%
%ADD11C,0.200000*%
%ADD12C,0.100000*%
%ADD13C,0.120000*%
G04 APERTURE END LIST*
D10*
X202500000Y-56000000D02*
X217500000Y-56000000D01*
X217500000Y-81000000D01*
X202500000Y-81000000D01*
X202500000Y-56000000D01*
X174761905Y-140454819D02*
X174761905Y-139454819D01*
X174761905Y-139454819D02*
X175000000Y-139454819D01*
X175000000Y-139454819D02*
X175142857Y-139502438D01*
X175142857Y-139502438D02*
X175238095Y-139597676D01*
X175238095Y-139597676D02*
X175285714Y-139692914D01*
X175285714Y-139692914D02*
X175333333Y-139883390D01*
X175333333Y-139883390D02*
X175333333Y-140026247D01*
X175333333Y-140026247D02*
X175285714Y-140216723D01*
X175285714Y-140216723D02*
X175238095Y-140311961D01*
X175238095Y-140311961D02*
X175142857Y-140407200D01*
X175142857Y-140407200D02*
X175000000Y-140454819D01*
X175000000Y-140454819D02*
X174761905Y-140454819D01*
X175761905Y-140454819D02*
X175761905Y-139454819D01*
X176238095Y-140454819D02*
X176238095Y-139454819D01*
X176238095Y-139454819D02*
X176571428Y-140169104D01*
X176571428Y-140169104D02*
X176904761Y-139454819D01*
X176904761Y-139454819D02*
X176904761Y-140454819D01*
X177380952Y-140454819D02*
X177380952Y-139454819D01*
X177380952Y-139454819D02*
X177714285Y-140169104D01*
X177714285Y-140169104D02*
X178047618Y-139454819D01*
X178047618Y-139454819D02*
X178047618Y-140454819D01*
X178523809Y-139931009D02*
X178857142Y-139931009D01*
X178999999Y-140454819D02*
X178523809Y-140454819D01*
X178523809Y-140454819D02*
X178523809Y-139454819D01*
X178523809Y-139454819D02*
X178999999Y-139454819D01*
X179999999Y-140454819D02*
X179666666Y-139978628D01*
X179428571Y-140454819D02*
X179428571Y-139454819D01*
X179428571Y-139454819D02*
X179809523Y-139454819D01*
X179809523Y-139454819D02*
X179904761Y-139502438D01*
X179904761Y-139502438D02*
X179952380Y-139550057D01*
X179952380Y-139550057D02*
X179999999Y-139645295D01*
X179999999Y-139645295D02*
X179999999Y-139788152D01*
X179999999Y-139788152D02*
X179952380Y-139883390D01*
X179952380Y-139883390D02*
X179904761Y-139931009D01*
X179904761Y-139931009D02*
X179809523Y-139978628D01*
X179809523Y-139978628D02*
X179428571Y-139978628D01*
X181190476Y-139931009D02*
X181523809Y-139931009D01*
X181666666Y-140454819D02*
X181190476Y-140454819D01*
X181190476Y-140454819D02*
X181190476Y-139454819D01*
X181190476Y-139454819D02*
X181666666Y-139454819D01*
X182095238Y-140454819D02*
X182095238Y-139454819D01*
X182095238Y-139454819D02*
X182666666Y-140454819D01*
X182666666Y-140454819D02*
X182666666Y-139454819D01*
X183095238Y-140169104D02*
X183571428Y-140169104D01*
X183000000Y-140454819D02*
X183333333Y-139454819D01*
X183333333Y-139454819D02*
X183666666Y-140454819D01*
X184333333Y-139931009D02*
X184476190Y-139978628D01*
X184476190Y-139978628D02*
X184523809Y-140026247D01*
X184523809Y-140026247D02*
X184571428Y-140121485D01*
X184571428Y-140121485D02*
X184571428Y-140264342D01*
X184571428Y-140264342D02*
X184523809Y-140359580D01*
X184523809Y-140359580D02*
X184476190Y-140407200D01*
X184476190Y-140407200D02*
X184380952Y-140454819D01*
X184380952Y-140454819D02*
X184000000Y-140454819D01*
X184000000Y-140454819D02*
X184000000Y-139454819D01*
X184000000Y-139454819D02*
X184333333Y-139454819D01*
X184333333Y-139454819D02*
X184428571Y-139502438D01*
X184428571Y-139502438D02*
X184476190Y-139550057D01*
X184476190Y-139550057D02*
X184523809Y-139645295D01*
X184523809Y-139645295D02*
X184523809Y-139740533D01*
X184523809Y-139740533D02*
X184476190Y-139835771D01*
X184476190Y-139835771D02*
X184428571Y-139883390D01*
X184428571Y-139883390D02*
X184333333Y-139931009D01*
X184333333Y-139931009D02*
X184000000Y-139931009D01*
X185476190Y-140454819D02*
X185000000Y-140454819D01*
X185000000Y-140454819D02*
X185000000Y-139454819D01*
X185809524Y-139931009D02*
X186142857Y-139931009D01*
X186285714Y-140454819D02*
X185809524Y-140454819D01*
X185809524Y-140454819D02*
X185809524Y-139454819D01*
X185809524Y-139454819D02*
X186285714Y-139454819D01*
X186714286Y-140454819D02*
X186714286Y-139454819D01*
X186714286Y-139454819D02*
X186952381Y-139454819D01*
X186952381Y-139454819D02*
X187095238Y-139502438D01*
X187095238Y-139502438D02*
X187190476Y-139597676D01*
X187190476Y-139597676D02*
X187238095Y-139692914D01*
X187238095Y-139692914D02*
X187285714Y-139883390D01*
X187285714Y-139883390D02*
X187285714Y-140026247D01*
X187285714Y-140026247D02*
X187238095Y-140216723D01*
X187238095Y-140216723D02*
X187190476Y-140311961D01*
X187190476Y-140311961D02*
X187095238Y-140407200D01*
X187095238Y-140407200D02*
X186952381Y-140454819D01*
X186952381Y-140454819D02*
X186714286Y-140454819D01*
X192261905Y-49640419D02*
X192309524Y-49592800D01*
X192309524Y-49592800D02*
X192452381Y-49545180D01*
X192452381Y-49545180D02*
X192547619Y-49545180D01*
X192547619Y-49545180D02*
X192690476Y-49592800D01*
X192690476Y-49592800D02*
X192785714Y-49688038D01*
X192785714Y-49688038D02*
X192833333Y-49783276D01*
X192833333Y-49783276D02*
X192880952Y-49973752D01*
X192880952Y-49973752D02*
X192880952Y-50116609D01*
X192880952Y-50116609D02*
X192833333Y-50307085D01*
X192833333Y-50307085D02*
X192785714Y-50402323D01*
X192785714Y-50402323D02*
X192690476Y-50497561D01*
X192690476Y-50497561D02*
X192547619Y-50545180D01*
X192547619Y-50545180D02*
X192452381Y-50545180D01*
X192452381Y-50545180D02*
X192309524Y-50497561D01*
X192309524Y-50497561D02*
X192261905Y-50449942D01*
X191642857Y-50545180D02*
X191452381Y-50545180D01*
X191452381Y-50545180D02*
X191357143Y-50497561D01*
X191357143Y-50497561D02*
X191261905Y-50402323D01*
X191261905Y-50402323D02*
X191214286Y-50211847D01*
X191214286Y-50211847D02*
X191214286Y-49878514D01*
X191214286Y-49878514D02*
X191261905Y-49688038D01*
X191261905Y-49688038D02*
X191357143Y-49592800D01*
X191357143Y-49592800D02*
X191452381Y-49545180D01*
X191452381Y-49545180D02*
X191642857Y-49545180D01*
X191642857Y-49545180D02*
X191738095Y-49592800D01*
X191738095Y-49592800D02*
X191833333Y-49688038D01*
X191833333Y-49688038D02*
X191880952Y-49878514D01*
X191880952Y-49878514D02*
X191880952Y-50211847D01*
X191880952Y-50211847D02*
X191833333Y-50402323D01*
X191833333Y-50402323D02*
X191738095Y-50497561D01*
X191738095Y-50497561D02*
X191642857Y-50545180D01*
X190785714Y-49545180D02*
X190785714Y-50545180D01*
X190785714Y-50545180D02*
X190214286Y-49545180D01*
X190214286Y-49545180D02*
X190214286Y-50545180D01*
X189738095Y-49545180D02*
X189738095Y-50545180D01*
X189738095Y-50545180D02*
X189166667Y-49545180D01*
X189166667Y-49545180D02*
X189166667Y-50545180D01*
X188690476Y-50068990D02*
X188357143Y-50068990D01*
X188214286Y-49545180D02*
X188690476Y-49545180D01*
X188690476Y-49545180D02*
X188690476Y-50545180D01*
X188690476Y-50545180D02*
X188214286Y-50545180D01*
X187214286Y-49640419D02*
X187261905Y-49592800D01*
X187261905Y-49592800D02*
X187404762Y-49545180D01*
X187404762Y-49545180D02*
X187500000Y-49545180D01*
X187500000Y-49545180D02*
X187642857Y-49592800D01*
X187642857Y-49592800D02*
X187738095Y-49688038D01*
X187738095Y-49688038D02*
X187785714Y-49783276D01*
X187785714Y-49783276D02*
X187833333Y-49973752D01*
X187833333Y-49973752D02*
X187833333Y-50116609D01*
X187833333Y-50116609D02*
X187785714Y-50307085D01*
X187785714Y-50307085D02*
X187738095Y-50402323D01*
X187738095Y-50402323D02*
X187642857Y-50497561D01*
X187642857Y-50497561D02*
X187500000Y-50545180D01*
X187500000Y-50545180D02*
X187404762Y-50545180D01*
X187404762Y-50545180D02*
X187261905Y-50497561D01*
X187261905Y-50497561D02*
X187214286Y-50449942D01*
X186928571Y-50545180D02*
X186357143Y-50545180D01*
X186642857Y-49545180D02*
X186642857Y-50545180D01*
X185404761Y-50545180D02*
X184833333Y-50545180D01*
X185119047Y-49545180D02*
X185119047Y-50545180D01*
X184309523Y-50545180D02*
X184119047Y-50545180D01*
X184119047Y-50545180D02*
X184023809Y-50497561D01*
X184023809Y-50497561D02*
X183928571Y-50402323D01*
X183928571Y-50402323D02*
X183880952Y-50211847D01*
X183880952Y-50211847D02*
X183880952Y-49878514D01*
X183880952Y-49878514D02*
X183928571Y-49688038D01*
X183928571Y-49688038D02*
X184023809Y-49592800D01*
X184023809Y-49592800D02*
X184119047Y-49545180D01*
X184119047Y-49545180D02*
X184309523Y-49545180D01*
X184309523Y-49545180D02*
X184404761Y-49592800D01*
X184404761Y-49592800D02*
X184499999Y-49688038D01*
X184499999Y-49688038D02*
X184547618Y-49878514D01*
X184547618Y-49878514D02*
X184547618Y-50211847D01*
X184547618Y-50211847D02*
X184499999Y-50402323D01*
X184499999Y-50402323D02*
X184404761Y-50497561D01*
X184404761Y-50497561D02*
X184309523Y-50545180D01*
X182690475Y-49545180D02*
X182690475Y-50545180D01*
X182690475Y-50545180D02*
X182309523Y-50545180D01*
X182309523Y-50545180D02*
X182214285Y-50497561D01*
X182214285Y-50497561D02*
X182166666Y-50449942D01*
X182166666Y-50449942D02*
X182119047Y-50354704D01*
X182119047Y-50354704D02*
X182119047Y-50211847D01*
X182119047Y-50211847D02*
X182166666Y-50116609D01*
X182166666Y-50116609D02*
X182214285Y-50068990D01*
X182214285Y-50068990D02*
X182309523Y-50021371D01*
X182309523Y-50021371D02*
X182690475Y-50021371D01*
X181119047Y-49640419D02*
X181166666Y-49592800D01*
X181166666Y-49592800D02*
X181309523Y-49545180D01*
X181309523Y-49545180D02*
X181404761Y-49545180D01*
X181404761Y-49545180D02*
X181547618Y-49592800D01*
X181547618Y-49592800D02*
X181642856Y-49688038D01*
X181642856Y-49688038D02*
X181690475Y-49783276D01*
X181690475Y-49783276D02*
X181738094Y-49973752D01*
X181738094Y-49973752D02*
X181738094Y-50116609D01*
X181738094Y-50116609D02*
X181690475Y-50307085D01*
X181690475Y-50307085D02*
X181642856Y-50402323D01*
X181642856Y-50402323D02*
X181547618Y-50497561D01*
X181547618Y-50497561D02*
X181404761Y-50545180D01*
X181404761Y-50545180D02*
X181309523Y-50545180D01*
X181309523Y-50545180D02*
X181166666Y-50497561D01*
X181166666Y-50497561D02*
X181119047Y-50449942D01*
D11*
X204766619Y-79814287D02*
X204766619Y-78976192D01*
X204766619Y-78452382D02*
X204766619Y-77614287D01*
X204766619Y-77090477D02*
X204766619Y-76252382D01*
X204766619Y-75728572D02*
X204766619Y-74890477D01*
X204766619Y-74366667D02*
X204766619Y-73528572D01*
X204766619Y-73004762D02*
X204766619Y-72166667D01*
X204766619Y-71642857D02*
X204766619Y-70804762D01*
X204766619Y-70280952D02*
X204766619Y-69442857D01*
X204766619Y-68919047D02*
X204766619Y-68080952D01*
X204766619Y-67557142D02*
X204766619Y-66719047D01*
X204766619Y-66195237D02*
X204766619Y-65357142D01*
X204766619Y-64833332D02*
X204766619Y-63995237D01*
X204766619Y-63471427D02*
X204766619Y-62633332D01*
X204766619Y-62109522D02*
X204766619Y-61271427D01*
X204766619Y-60747617D02*
X204766619Y-59909522D01*
X204766619Y-59385712D02*
X204766619Y-58547617D01*
X204766619Y-58023807D02*
X204766619Y-57185712D01*
X206956604Y-74026189D02*
X205856604Y-74026189D01*
X205856604Y-74026189D02*
X206642319Y-73659522D01*
X206642319Y-73659522D02*
X205856604Y-73292855D01*
X205856604Y-73292855D02*
X206956604Y-73292855D01*
X206956604Y-72297617D02*
X206380414Y-72297617D01*
X206380414Y-72297617D02*
X206275652Y-72349998D01*
X206275652Y-72349998D02*
X206223271Y-72454760D01*
X206223271Y-72454760D02*
X206223271Y-72664284D01*
X206223271Y-72664284D02*
X206275652Y-72769046D01*
X206904224Y-72297617D02*
X206956604Y-72402379D01*
X206956604Y-72402379D02*
X206956604Y-72664284D01*
X206956604Y-72664284D02*
X206904224Y-72769046D01*
X206904224Y-72769046D02*
X206799462Y-72821427D01*
X206799462Y-72821427D02*
X206694700Y-72821427D01*
X206694700Y-72821427D02*
X206589938Y-72769046D01*
X206589938Y-72769046D02*
X206537557Y-72664284D01*
X206537557Y-72664284D02*
X206537557Y-72402379D01*
X206537557Y-72402379D02*
X206485176Y-72297617D01*
X206956604Y-71773808D02*
X206223271Y-71773808D01*
X205856604Y-71773808D02*
X205908985Y-71826189D01*
X205908985Y-71826189D02*
X205961366Y-71773808D01*
X205961366Y-71773808D02*
X205908985Y-71721427D01*
X205908985Y-71721427D02*
X205856604Y-71773808D01*
X205856604Y-71773808D02*
X205961366Y-71773808D01*
X206223271Y-71249998D02*
X206956604Y-71249998D01*
X206328033Y-71249998D02*
X206275652Y-71197617D01*
X206275652Y-71197617D02*
X206223271Y-71092855D01*
X206223271Y-71092855D02*
X206223271Y-70935712D01*
X206223271Y-70935712D02*
X206275652Y-70830950D01*
X206275652Y-70830950D02*
X206380414Y-70778569D01*
X206380414Y-70778569D02*
X206956604Y-70778569D01*
X206904224Y-70307141D02*
X206956604Y-70202379D01*
X206956604Y-70202379D02*
X206956604Y-69992855D01*
X206956604Y-69992855D02*
X206904224Y-69888093D01*
X206904224Y-69888093D02*
X206799462Y-69835712D01*
X206799462Y-69835712D02*
X206747081Y-69835712D01*
X206747081Y-69835712D02*
X206642319Y-69888093D01*
X206642319Y-69888093D02*
X206589938Y-69992855D01*
X206589938Y-69992855D02*
X206589938Y-70149998D01*
X206589938Y-70149998D02*
X206537557Y-70254760D01*
X206537557Y-70254760D02*
X206432795Y-70307141D01*
X206432795Y-70307141D02*
X206380414Y-70307141D01*
X206380414Y-70307141D02*
X206275652Y-70254760D01*
X206275652Y-70254760D02*
X206223271Y-70149998D01*
X206223271Y-70149998D02*
X206223271Y-69992855D01*
X206223271Y-69992855D02*
X206275652Y-69888093D01*
X205856604Y-68683332D02*
X206956604Y-68316665D01*
X206956604Y-68316665D02*
X205856604Y-67949998D01*
X206956604Y-67426189D02*
X206904224Y-67530951D01*
X206904224Y-67530951D02*
X206851843Y-67583332D01*
X206851843Y-67583332D02*
X206747081Y-67635713D01*
X206747081Y-67635713D02*
X206432795Y-67635713D01*
X206432795Y-67635713D02*
X206328033Y-67583332D01*
X206328033Y-67583332D02*
X206275652Y-67530951D01*
X206275652Y-67530951D02*
X206223271Y-67426189D01*
X206223271Y-67426189D02*
X206223271Y-67269046D01*
X206223271Y-67269046D02*
X206275652Y-67164284D01*
X206275652Y-67164284D02*
X206328033Y-67111903D01*
X206328033Y-67111903D02*
X206432795Y-67059522D01*
X206432795Y-67059522D02*
X206747081Y-67059522D01*
X206747081Y-67059522D02*
X206851843Y-67111903D01*
X206851843Y-67111903D02*
X206904224Y-67164284D01*
X206904224Y-67164284D02*
X206956604Y-67269046D01*
X206956604Y-67269046D02*
X206956604Y-67426189D01*
X206956604Y-66430951D02*
X206904224Y-66535713D01*
X206904224Y-66535713D02*
X206799462Y-66588094D01*
X206799462Y-66588094D02*
X205856604Y-66588094D01*
X206223271Y-66169047D02*
X206223271Y-65749999D01*
X205856604Y-66011904D02*
X206799462Y-66011904D01*
X206799462Y-66011904D02*
X206904224Y-65959523D01*
X206904224Y-65959523D02*
X206956604Y-65854761D01*
X206956604Y-65854761D02*
X206956604Y-65749999D01*
X206956604Y-64911904D02*
X206380414Y-64911904D01*
X206380414Y-64911904D02*
X206275652Y-64964285D01*
X206275652Y-64964285D02*
X206223271Y-65069047D01*
X206223271Y-65069047D02*
X206223271Y-65278571D01*
X206223271Y-65278571D02*
X206275652Y-65383333D01*
X206904224Y-64911904D02*
X206956604Y-65016666D01*
X206956604Y-65016666D02*
X206956604Y-65278571D01*
X206956604Y-65278571D02*
X206904224Y-65383333D01*
X206904224Y-65383333D02*
X206799462Y-65435714D01*
X206799462Y-65435714D02*
X206694700Y-65435714D01*
X206694700Y-65435714D02*
X206589938Y-65383333D01*
X206589938Y-65383333D02*
X206537557Y-65278571D01*
X206537557Y-65278571D02*
X206537557Y-65016666D01*
X206537557Y-65016666D02*
X206485176Y-64911904D01*
X206223271Y-63916666D02*
X207113747Y-63916666D01*
X207113747Y-63916666D02*
X207218509Y-63969047D01*
X207218509Y-63969047D02*
X207270890Y-64021428D01*
X207270890Y-64021428D02*
X207323271Y-64126190D01*
X207323271Y-64126190D02*
X207323271Y-64283333D01*
X207323271Y-64283333D02*
X207270890Y-64388095D01*
X206904224Y-63916666D02*
X206956604Y-64021428D01*
X206956604Y-64021428D02*
X206956604Y-64230952D01*
X206956604Y-64230952D02*
X206904224Y-64335714D01*
X206904224Y-64335714D02*
X206851843Y-64388095D01*
X206851843Y-64388095D02*
X206747081Y-64440476D01*
X206747081Y-64440476D02*
X206432795Y-64440476D01*
X206432795Y-64440476D02*
X206328033Y-64388095D01*
X206328033Y-64388095D02*
X206275652Y-64335714D01*
X206275652Y-64335714D02*
X206223271Y-64230952D01*
X206223271Y-64230952D02*
X206223271Y-64021428D01*
X206223271Y-64021428D02*
X206275652Y-63916666D01*
X206904224Y-62973809D02*
X206956604Y-63078571D01*
X206956604Y-63078571D02*
X206956604Y-63288095D01*
X206956604Y-63288095D02*
X206904224Y-63392857D01*
X206904224Y-63392857D02*
X206799462Y-63445238D01*
X206799462Y-63445238D02*
X206380414Y-63445238D01*
X206380414Y-63445238D02*
X206275652Y-63392857D01*
X206275652Y-63392857D02*
X206223271Y-63288095D01*
X206223271Y-63288095D02*
X206223271Y-63078571D01*
X206223271Y-63078571D02*
X206275652Y-62973809D01*
X206275652Y-62973809D02*
X206380414Y-62921428D01*
X206380414Y-62921428D02*
X206485176Y-62921428D01*
X206485176Y-62921428D02*
X206589938Y-63445238D01*
X208727542Y-75388093D02*
X207627542Y-75388093D01*
X207627542Y-75388093D02*
X207627542Y-75126188D01*
X207627542Y-75126188D02*
X207679923Y-74969045D01*
X207679923Y-74969045D02*
X207784685Y-74864283D01*
X207784685Y-74864283D02*
X207889447Y-74811902D01*
X207889447Y-74811902D02*
X208098971Y-74759521D01*
X208098971Y-74759521D02*
X208256114Y-74759521D01*
X208256114Y-74759521D02*
X208465638Y-74811902D01*
X208465638Y-74811902D02*
X208570400Y-74864283D01*
X208570400Y-74864283D02*
X208675162Y-74969045D01*
X208675162Y-74969045D02*
X208727542Y-75126188D01*
X208727542Y-75126188D02*
X208727542Y-75388093D01*
X208675162Y-73869045D02*
X208727542Y-73973807D01*
X208727542Y-73973807D02*
X208727542Y-74183331D01*
X208727542Y-74183331D02*
X208675162Y-74288093D01*
X208675162Y-74288093D02*
X208570400Y-74340474D01*
X208570400Y-74340474D02*
X208151352Y-74340474D01*
X208151352Y-74340474D02*
X208046590Y-74288093D01*
X208046590Y-74288093D02*
X207994209Y-74183331D01*
X207994209Y-74183331D02*
X207994209Y-73973807D01*
X207994209Y-73973807D02*
X208046590Y-73869045D01*
X208046590Y-73869045D02*
X208151352Y-73816664D01*
X208151352Y-73816664D02*
X208256114Y-73816664D01*
X208256114Y-73816664D02*
X208360876Y-74340474D01*
X207994209Y-73449998D02*
X208727542Y-73188093D01*
X208727542Y-73188093D02*
X207994209Y-72926188D01*
X208727542Y-72507141D02*
X207994209Y-72507141D01*
X207627542Y-72507141D02*
X207679923Y-72559522D01*
X207679923Y-72559522D02*
X207732304Y-72507141D01*
X207732304Y-72507141D02*
X207679923Y-72454760D01*
X207679923Y-72454760D02*
X207627542Y-72507141D01*
X207627542Y-72507141D02*
X207732304Y-72507141D01*
X208675162Y-71511902D02*
X208727542Y-71616664D01*
X208727542Y-71616664D02*
X208727542Y-71826188D01*
X208727542Y-71826188D02*
X208675162Y-71930950D01*
X208675162Y-71930950D02*
X208622781Y-71983331D01*
X208622781Y-71983331D02*
X208518019Y-72035712D01*
X208518019Y-72035712D02*
X208203733Y-72035712D01*
X208203733Y-72035712D02*
X208098971Y-71983331D01*
X208098971Y-71983331D02*
X208046590Y-71930950D01*
X208046590Y-71930950D02*
X207994209Y-71826188D01*
X207994209Y-71826188D02*
X207994209Y-71616664D01*
X207994209Y-71616664D02*
X208046590Y-71511902D01*
X208675162Y-70621426D02*
X208727542Y-70726188D01*
X208727542Y-70726188D02*
X208727542Y-70935712D01*
X208727542Y-70935712D02*
X208675162Y-71040474D01*
X208675162Y-71040474D02*
X208570400Y-71092855D01*
X208570400Y-71092855D02*
X208151352Y-71092855D01*
X208151352Y-71092855D02*
X208046590Y-71040474D01*
X208046590Y-71040474D02*
X207994209Y-70935712D01*
X207994209Y-70935712D02*
X207994209Y-70726188D01*
X207994209Y-70726188D02*
X208046590Y-70621426D01*
X208046590Y-70621426D02*
X208151352Y-70569045D01*
X208151352Y-70569045D02*
X208256114Y-70569045D01*
X208256114Y-70569045D02*
X208360876Y-71092855D01*
X208622781Y-68630950D02*
X208675162Y-68683331D01*
X208675162Y-68683331D02*
X208727542Y-68840474D01*
X208727542Y-68840474D02*
X208727542Y-68945236D01*
X208727542Y-68945236D02*
X208675162Y-69102379D01*
X208675162Y-69102379D02*
X208570400Y-69207141D01*
X208570400Y-69207141D02*
X208465638Y-69259522D01*
X208465638Y-69259522D02*
X208256114Y-69311903D01*
X208256114Y-69311903D02*
X208098971Y-69311903D01*
X208098971Y-69311903D02*
X207889447Y-69259522D01*
X207889447Y-69259522D02*
X207784685Y-69207141D01*
X207784685Y-69207141D02*
X207679923Y-69102379D01*
X207679923Y-69102379D02*
X207627542Y-68945236D01*
X207627542Y-68945236D02*
X207627542Y-68840474D01*
X207627542Y-68840474D02*
X207679923Y-68683331D01*
X207679923Y-68683331D02*
X207732304Y-68630950D01*
X208727542Y-68002379D02*
X208675162Y-68107141D01*
X208675162Y-68107141D02*
X208622781Y-68159522D01*
X208622781Y-68159522D02*
X208518019Y-68211903D01*
X208518019Y-68211903D02*
X208203733Y-68211903D01*
X208203733Y-68211903D02*
X208098971Y-68159522D01*
X208098971Y-68159522D02*
X208046590Y-68107141D01*
X208046590Y-68107141D02*
X207994209Y-68002379D01*
X207994209Y-68002379D02*
X207994209Y-67845236D01*
X207994209Y-67845236D02*
X208046590Y-67740474D01*
X208046590Y-67740474D02*
X208098971Y-67688093D01*
X208098971Y-67688093D02*
X208203733Y-67635712D01*
X208203733Y-67635712D02*
X208518019Y-67635712D01*
X208518019Y-67635712D02*
X208622781Y-67688093D01*
X208622781Y-67688093D02*
X208675162Y-67740474D01*
X208675162Y-67740474D02*
X208727542Y-67845236D01*
X208727542Y-67845236D02*
X208727542Y-68002379D01*
X207994209Y-67164284D02*
X208727542Y-67164284D01*
X208098971Y-67164284D02*
X208046590Y-67111903D01*
X208046590Y-67111903D02*
X207994209Y-67007141D01*
X207994209Y-67007141D02*
X207994209Y-66849998D01*
X207994209Y-66849998D02*
X208046590Y-66745236D01*
X208046590Y-66745236D02*
X208151352Y-66692855D01*
X208151352Y-66692855D02*
X208727542Y-66692855D01*
X207994209Y-66326189D02*
X207994209Y-65907141D01*
X207627542Y-66169046D02*
X208570400Y-66169046D01*
X208570400Y-66169046D02*
X208675162Y-66116665D01*
X208675162Y-66116665D02*
X208727542Y-66011903D01*
X208727542Y-66011903D02*
X208727542Y-65907141D01*
X208727542Y-65540475D02*
X207994209Y-65540475D01*
X208203733Y-65540475D02*
X208098971Y-65488094D01*
X208098971Y-65488094D02*
X208046590Y-65435713D01*
X208046590Y-65435713D02*
X207994209Y-65330951D01*
X207994209Y-65330951D02*
X207994209Y-65226189D01*
X208727542Y-64702380D02*
X208675162Y-64807142D01*
X208675162Y-64807142D02*
X208622781Y-64859523D01*
X208622781Y-64859523D02*
X208518019Y-64911904D01*
X208518019Y-64911904D02*
X208203733Y-64911904D01*
X208203733Y-64911904D02*
X208098971Y-64859523D01*
X208098971Y-64859523D02*
X208046590Y-64807142D01*
X208046590Y-64807142D02*
X207994209Y-64702380D01*
X207994209Y-64702380D02*
X207994209Y-64545237D01*
X207994209Y-64545237D02*
X208046590Y-64440475D01*
X208046590Y-64440475D02*
X208098971Y-64388094D01*
X208098971Y-64388094D02*
X208203733Y-64335713D01*
X208203733Y-64335713D02*
X208518019Y-64335713D01*
X208518019Y-64335713D02*
X208622781Y-64388094D01*
X208622781Y-64388094D02*
X208675162Y-64440475D01*
X208675162Y-64440475D02*
X208727542Y-64545237D01*
X208727542Y-64545237D02*
X208727542Y-64702380D01*
X208727542Y-63707142D02*
X208675162Y-63811904D01*
X208675162Y-63811904D02*
X208570400Y-63864285D01*
X208570400Y-63864285D02*
X207627542Y-63864285D01*
X208727542Y-63130952D02*
X208675162Y-63235714D01*
X208675162Y-63235714D02*
X208570400Y-63288095D01*
X208570400Y-63288095D02*
X207627542Y-63288095D01*
X208675162Y-62292857D02*
X208727542Y-62397619D01*
X208727542Y-62397619D02*
X208727542Y-62607143D01*
X208727542Y-62607143D02*
X208675162Y-62711905D01*
X208675162Y-62711905D02*
X208570400Y-62764286D01*
X208570400Y-62764286D02*
X208151352Y-62764286D01*
X208151352Y-62764286D02*
X208046590Y-62711905D01*
X208046590Y-62711905D02*
X207994209Y-62607143D01*
X207994209Y-62607143D02*
X207994209Y-62397619D01*
X207994209Y-62397619D02*
X208046590Y-62292857D01*
X208046590Y-62292857D02*
X208151352Y-62240476D01*
X208151352Y-62240476D02*
X208256114Y-62240476D01*
X208256114Y-62240476D02*
X208360876Y-62764286D01*
X208727542Y-61769048D02*
X207994209Y-61769048D01*
X208203733Y-61769048D02*
X208098971Y-61716667D01*
X208098971Y-61716667D02*
X208046590Y-61664286D01*
X208046590Y-61664286D02*
X207994209Y-61559524D01*
X207994209Y-61559524D02*
X207994209Y-61454762D01*
X210079433Y-79814287D02*
X210079433Y-78976192D01*
X210079433Y-78452382D02*
X210079433Y-77614287D01*
X210079433Y-77090477D02*
X210079433Y-76252382D01*
X210079433Y-75728572D02*
X210079433Y-74890477D01*
X210079433Y-74366667D02*
X210079433Y-73528572D01*
X210079433Y-73004762D02*
X210079433Y-72166667D01*
X210079433Y-71642857D02*
X210079433Y-70804762D01*
X210079433Y-70280952D02*
X210079433Y-69442857D01*
X210079433Y-68919047D02*
X210079433Y-68080952D01*
X210079433Y-67557142D02*
X210079433Y-66719047D01*
X210079433Y-66195237D02*
X210079433Y-65357142D01*
X210079433Y-64833332D02*
X210079433Y-63995237D01*
X210079433Y-63471427D02*
X210079433Y-62633332D01*
X210079433Y-62109522D02*
X210079433Y-61271427D01*
X210079433Y-60747617D02*
X210079433Y-59909522D01*
X210079433Y-59385712D02*
X210079433Y-58547617D01*
X210079433Y-58023807D02*
X210079433Y-57185712D01*
X214040356Y-78426189D02*
X212940356Y-78426189D01*
X213359404Y-78426189D02*
X213307023Y-78321427D01*
X213307023Y-78321427D02*
X213307023Y-78111903D01*
X213307023Y-78111903D02*
X213359404Y-78007141D01*
X213359404Y-78007141D02*
X213411785Y-77954760D01*
X213411785Y-77954760D02*
X213516547Y-77902379D01*
X213516547Y-77902379D02*
X213830833Y-77902379D01*
X213830833Y-77902379D02*
X213935595Y-77954760D01*
X213935595Y-77954760D02*
X213987976Y-78007141D01*
X213987976Y-78007141D02*
X214040356Y-78111903D01*
X214040356Y-78111903D02*
X214040356Y-78321427D01*
X214040356Y-78321427D02*
X213987976Y-78426189D01*
X213307023Y-77535713D02*
X214040356Y-77273808D01*
X213307023Y-77011903D02*
X214040356Y-77273808D01*
X214040356Y-77273808D02*
X214302261Y-77378570D01*
X214302261Y-77378570D02*
X214354642Y-77430951D01*
X214354642Y-77430951D02*
X214407023Y-77535713D01*
X213935595Y-76592856D02*
X213987976Y-76540475D01*
X213987976Y-76540475D02*
X214040356Y-76592856D01*
X214040356Y-76592856D02*
X213987976Y-76645237D01*
X213987976Y-76645237D02*
X213935595Y-76592856D01*
X213935595Y-76592856D02*
X214040356Y-76592856D01*
X213359404Y-76592856D02*
X213411785Y-76540475D01*
X213411785Y-76540475D02*
X213464166Y-76592856D01*
X213464166Y-76592856D02*
X213411785Y-76645237D01*
X213411785Y-76645237D02*
X213359404Y-76592856D01*
X213359404Y-76592856D02*
X213464166Y-76592856D01*
X214040356Y-75230951D02*
X212940356Y-75230951D01*
X214040356Y-74602379D02*
X213411785Y-75073808D01*
X212940356Y-74602379D02*
X213568928Y-75230951D01*
X214040356Y-73973808D02*
X213987976Y-74078570D01*
X213987976Y-74078570D02*
X213935595Y-74130951D01*
X213935595Y-74130951D02*
X213830833Y-74183332D01*
X213830833Y-74183332D02*
X213516547Y-74183332D01*
X213516547Y-74183332D02*
X213411785Y-74130951D01*
X213411785Y-74130951D02*
X213359404Y-74078570D01*
X213359404Y-74078570D02*
X213307023Y-73973808D01*
X213307023Y-73973808D02*
X213307023Y-73816665D01*
X213307023Y-73816665D02*
X213359404Y-73711903D01*
X213359404Y-73711903D02*
X213411785Y-73659522D01*
X213411785Y-73659522D02*
X213516547Y-73607141D01*
X213516547Y-73607141D02*
X213830833Y-73607141D01*
X213830833Y-73607141D02*
X213935595Y-73659522D01*
X213935595Y-73659522D02*
X213987976Y-73711903D01*
X213987976Y-73711903D02*
X214040356Y-73816665D01*
X214040356Y-73816665D02*
X214040356Y-73973808D01*
X213307023Y-73135713D02*
X214040356Y-73135713D01*
X213411785Y-73135713D02*
X213359404Y-73083332D01*
X213359404Y-73083332D02*
X213307023Y-72978570D01*
X213307023Y-72978570D02*
X213307023Y-72821427D01*
X213307023Y-72821427D02*
X213359404Y-72716665D01*
X213359404Y-72716665D02*
X213464166Y-72664284D01*
X213464166Y-72664284D02*
X214040356Y-72664284D01*
X214040356Y-72140475D02*
X213307023Y-72140475D01*
X213516547Y-72140475D02*
X213411785Y-72088094D01*
X213411785Y-72088094D02*
X213359404Y-72035713D01*
X213359404Y-72035713D02*
X213307023Y-71930951D01*
X213307023Y-71930951D02*
X213307023Y-71826189D01*
X214040356Y-70988094D02*
X213464166Y-70988094D01*
X213464166Y-70988094D02*
X213359404Y-71040475D01*
X213359404Y-71040475D02*
X213307023Y-71145237D01*
X213307023Y-71145237D02*
X213307023Y-71354761D01*
X213307023Y-71354761D02*
X213359404Y-71459523D01*
X213987976Y-70988094D02*
X214040356Y-71092856D01*
X214040356Y-71092856D02*
X214040356Y-71354761D01*
X214040356Y-71354761D02*
X213987976Y-71459523D01*
X213987976Y-71459523D02*
X213883214Y-71511904D01*
X213883214Y-71511904D02*
X213778452Y-71511904D01*
X213778452Y-71511904D02*
X213673690Y-71459523D01*
X213673690Y-71459523D02*
X213621309Y-71354761D01*
X213621309Y-71354761D02*
X213621309Y-71092856D01*
X213621309Y-71092856D02*
X213568928Y-70988094D01*
X214040356Y-69992856D02*
X212940356Y-69992856D01*
X213987976Y-69992856D02*
X214040356Y-70097618D01*
X214040356Y-70097618D02*
X214040356Y-70307142D01*
X214040356Y-70307142D02*
X213987976Y-70411904D01*
X213987976Y-70411904D02*
X213935595Y-70464285D01*
X213935595Y-70464285D02*
X213830833Y-70516666D01*
X213830833Y-70516666D02*
X213516547Y-70516666D01*
X213516547Y-70516666D02*
X213411785Y-70464285D01*
X213411785Y-70464285D02*
X213359404Y-70411904D01*
X213359404Y-70411904D02*
X213307023Y-70307142D01*
X213307023Y-70307142D02*
X213307023Y-70097618D01*
X213307023Y-70097618D02*
X213359404Y-69992856D01*
X214040356Y-68630952D02*
X212940356Y-68630952D01*
X214040356Y-68002380D02*
X213411785Y-68473809D01*
X212940356Y-68002380D02*
X213568928Y-68630952D01*
X214040356Y-67373809D02*
X213987976Y-67478571D01*
X213987976Y-67478571D02*
X213935595Y-67530952D01*
X213935595Y-67530952D02*
X213830833Y-67583333D01*
X213830833Y-67583333D02*
X213516547Y-67583333D01*
X213516547Y-67583333D02*
X213411785Y-67530952D01*
X213411785Y-67530952D02*
X213359404Y-67478571D01*
X213359404Y-67478571D02*
X213307023Y-67373809D01*
X213307023Y-67373809D02*
X213307023Y-67216666D01*
X213307023Y-67216666D02*
X213359404Y-67111904D01*
X213359404Y-67111904D02*
X213411785Y-67059523D01*
X213411785Y-67059523D02*
X213516547Y-67007142D01*
X213516547Y-67007142D02*
X213830833Y-67007142D01*
X213830833Y-67007142D02*
X213935595Y-67059523D01*
X213935595Y-67059523D02*
X213987976Y-67111904D01*
X213987976Y-67111904D02*
X214040356Y-67216666D01*
X214040356Y-67216666D02*
X214040356Y-67373809D01*
X214040356Y-66535714D02*
X213307023Y-66535714D01*
X213516547Y-66535714D02*
X213411785Y-66483333D01*
X213411785Y-66483333D02*
X213359404Y-66430952D01*
X213359404Y-66430952D02*
X213307023Y-66326190D01*
X213307023Y-66326190D02*
X213307023Y-66221428D01*
X213307023Y-65959524D02*
X213307023Y-65383333D01*
X213307023Y-65383333D02*
X214040356Y-65959524D01*
X214040356Y-65959524D02*
X214040356Y-65383333D01*
X213987976Y-64545238D02*
X214040356Y-64650000D01*
X214040356Y-64650000D02*
X214040356Y-64859524D01*
X214040356Y-64859524D02*
X213987976Y-64964286D01*
X213987976Y-64964286D02*
X213883214Y-65016667D01*
X213883214Y-65016667D02*
X213464166Y-65016667D01*
X213464166Y-65016667D02*
X213359404Y-64964286D01*
X213359404Y-64964286D02*
X213307023Y-64859524D01*
X213307023Y-64859524D02*
X213307023Y-64650000D01*
X213307023Y-64650000D02*
X213359404Y-64545238D01*
X213359404Y-64545238D02*
X213464166Y-64492857D01*
X213464166Y-64492857D02*
X213568928Y-64492857D01*
X213568928Y-64492857D02*
X213673690Y-65016667D01*
X213307023Y-64021429D02*
X214040356Y-64021429D01*
X213411785Y-64021429D02*
X213359404Y-63969048D01*
X213359404Y-63969048D02*
X213307023Y-63864286D01*
X213307023Y-63864286D02*
X213307023Y-63707143D01*
X213307023Y-63707143D02*
X213359404Y-63602381D01*
X213359404Y-63602381D02*
X213464166Y-63550000D01*
X213464166Y-63550000D02*
X214040356Y-63550000D01*
X214040356Y-63026191D02*
X213307023Y-63026191D01*
X212940356Y-63026191D02*
X212992737Y-63078572D01*
X212992737Y-63078572D02*
X213045118Y-63026191D01*
X213045118Y-63026191D02*
X212992737Y-62973810D01*
X212992737Y-62973810D02*
X212940356Y-63026191D01*
X212940356Y-63026191D02*
X213045118Y-63026191D01*
X214040356Y-62345238D02*
X213987976Y-62450000D01*
X213987976Y-62450000D02*
X213935595Y-62502381D01*
X213935595Y-62502381D02*
X213830833Y-62554762D01*
X213830833Y-62554762D02*
X213516547Y-62554762D01*
X213516547Y-62554762D02*
X213411785Y-62502381D01*
X213411785Y-62502381D02*
X213359404Y-62450000D01*
X213359404Y-62450000D02*
X213307023Y-62345238D01*
X213307023Y-62345238D02*
X213307023Y-62188095D01*
X213307023Y-62188095D02*
X213359404Y-62083333D01*
X213359404Y-62083333D02*
X213411785Y-62030952D01*
X213411785Y-62030952D02*
X213516547Y-61978571D01*
X213516547Y-61978571D02*
X213830833Y-61978571D01*
X213830833Y-61978571D02*
X213935595Y-62030952D01*
X213935595Y-62030952D02*
X213987976Y-62083333D01*
X213987976Y-62083333D02*
X214040356Y-62188095D01*
X214040356Y-62188095D02*
X214040356Y-62345238D01*
X213307023Y-61611905D02*
X214040356Y-61402381D01*
X214040356Y-61402381D02*
X213516547Y-61192857D01*
X213516547Y-61192857D02*
X214040356Y-60983333D01*
X214040356Y-60983333D02*
X213307023Y-60773809D01*
X213987976Y-60407143D02*
X214040356Y-60302381D01*
X214040356Y-60302381D02*
X214040356Y-60092857D01*
X214040356Y-60092857D02*
X213987976Y-59988095D01*
X213987976Y-59988095D02*
X213883214Y-59935714D01*
X213883214Y-59935714D02*
X213830833Y-59935714D01*
X213830833Y-59935714D02*
X213726071Y-59988095D01*
X213726071Y-59988095D02*
X213673690Y-60092857D01*
X213673690Y-60092857D02*
X213673690Y-60250000D01*
X213673690Y-60250000D02*
X213621309Y-60354762D01*
X213621309Y-60354762D02*
X213516547Y-60407143D01*
X213516547Y-60407143D02*
X213464166Y-60407143D01*
X213464166Y-60407143D02*
X213359404Y-60354762D01*
X213359404Y-60354762D02*
X213307023Y-60250000D01*
X213307023Y-60250000D02*
X213307023Y-60092857D01*
X213307023Y-60092857D02*
X213359404Y-59988095D01*
X214040356Y-59464286D02*
X212940356Y-59464286D01*
X213621309Y-59359524D02*
X214040356Y-59045238D01*
X213307023Y-59045238D02*
X213726071Y-59464286D01*
X214040356Y-58573810D02*
X213307023Y-58573810D01*
X212940356Y-58573810D02*
X212992737Y-58626191D01*
X212992737Y-58626191D02*
X213045118Y-58573810D01*
X213045118Y-58573810D02*
X212992737Y-58521429D01*
X212992737Y-58521429D02*
X212940356Y-58573810D01*
X212940356Y-58573810D02*
X213045118Y-58573810D01*
X214711294Y-72742857D02*
X214711294Y-72638095D01*
X214711294Y-72638095D02*
X214763675Y-72533333D01*
X214763675Y-72533333D02*
X214816056Y-72480952D01*
X214816056Y-72480952D02*
X214920818Y-72428571D01*
X214920818Y-72428571D02*
X215130342Y-72376190D01*
X215130342Y-72376190D02*
X215392247Y-72376190D01*
X215392247Y-72376190D02*
X215601771Y-72428571D01*
X215601771Y-72428571D02*
X215706533Y-72480952D01*
X215706533Y-72480952D02*
X215758914Y-72533333D01*
X215758914Y-72533333D02*
X215811294Y-72638095D01*
X215811294Y-72638095D02*
X215811294Y-72742857D01*
X215811294Y-72742857D02*
X215758914Y-72847619D01*
X215758914Y-72847619D02*
X215706533Y-72900000D01*
X215706533Y-72900000D02*
X215601771Y-72952381D01*
X215601771Y-72952381D02*
X215392247Y-73004762D01*
X215392247Y-73004762D02*
X215130342Y-73004762D01*
X215130342Y-73004762D02*
X214920818Y-72952381D01*
X214920818Y-72952381D02*
X214816056Y-72900000D01*
X214816056Y-72900000D02*
X214763675Y-72847619D01*
X214763675Y-72847619D02*
X214711294Y-72742857D01*
X215182723Y-71747619D02*
X215130342Y-71852381D01*
X215130342Y-71852381D02*
X215077961Y-71904762D01*
X215077961Y-71904762D02*
X214973199Y-71957143D01*
X214973199Y-71957143D02*
X214920818Y-71957143D01*
X214920818Y-71957143D02*
X214816056Y-71904762D01*
X214816056Y-71904762D02*
X214763675Y-71852381D01*
X214763675Y-71852381D02*
X214711294Y-71747619D01*
X214711294Y-71747619D02*
X214711294Y-71538095D01*
X214711294Y-71538095D02*
X214763675Y-71433333D01*
X214763675Y-71433333D02*
X214816056Y-71380952D01*
X214816056Y-71380952D02*
X214920818Y-71328571D01*
X214920818Y-71328571D02*
X214973199Y-71328571D01*
X214973199Y-71328571D02*
X215077961Y-71380952D01*
X215077961Y-71380952D02*
X215130342Y-71433333D01*
X215130342Y-71433333D02*
X215182723Y-71538095D01*
X215182723Y-71538095D02*
X215182723Y-71747619D01*
X215182723Y-71747619D02*
X215235104Y-71852381D01*
X215235104Y-71852381D02*
X215287485Y-71904762D01*
X215287485Y-71904762D02*
X215392247Y-71957143D01*
X215392247Y-71957143D02*
X215601771Y-71957143D01*
X215601771Y-71957143D02*
X215706533Y-71904762D01*
X215706533Y-71904762D02*
X215758914Y-71852381D01*
X215758914Y-71852381D02*
X215811294Y-71747619D01*
X215811294Y-71747619D02*
X215811294Y-71538095D01*
X215811294Y-71538095D02*
X215758914Y-71433333D01*
X215758914Y-71433333D02*
X215706533Y-71380952D01*
X215706533Y-71380952D02*
X215601771Y-71328571D01*
X215601771Y-71328571D02*
X215392247Y-71328571D01*
X215392247Y-71328571D02*
X215287485Y-71380952D01*
X215287485Y-71380952D02*
X215235104Y-71433333D01*
X215235104Y-71433333D02*
X215182723Y-71538095D01*
X215706533Y-70857143D02*
X215758914Y-70804762D01*
X215758914Y-70804762D02*
X215811294Y-70857143D01*
X215811294Y-70857143D02*
X215758914Y-70909524D01*
X215758914Y-70909524D02*
X215706533Y-70857143D01*
X215706533Y-70857143D02*
X215811294Y-70857143D01*
X214711294Y-70123809D02*
X214711294Y-70019047D01*
X214711294Y-70019047D02*
X214763675Y-69914285D01*
X214763675Y-69914285D02*
X214816056Y-69861904D01*
X214816056Y-69861904D02*
X214920818Y-69809523D01*
X214920818Y-69809523D02*
X215130342Y-69757142D01*
X215130342Y-69757142D02*
X215392247Y-69757142D01*
X215392247Y-69757142D02*
X215601771Y-69809523D01*
X215601771Y-69809523D02*
X215706533Y-69861904D01*
X215706533Y-69861904D02*
X215758914Y-69914285D01*
X215758914Y-69914285D02*
X215811294Y-70019047D01*
X215811294Y-70019047D02*
X215811294Y-70123809D01*
X215811294Y-70123809D02*
X215758914Y-70228571D01*
X215758914Y-70228571D02*
X215706533Y-70280952D01*
X215706533Y-70280952D02*
X215601771Y-70333333D01*
X215601771Y-70333333D02*
X215392247Y-70385714D01*
X215392247Y-70385714D02*
X215130342Y-70385714D01*
X215130342Y-70385714D02*
X214920818Y-70333333D01*
X214920818Y-70333333D02*
X214816056Y-70280952D01*
X214816056Y-70280952D02*
X214763675Y-70228571D01*
X214763675Y-70228571D02*
X214711294Y-70123809D01*
X215182723Y-69128571D02*
X215130342Y-69233333D01*
X215130342Y-69233333D02*
X215077961Y-69285714D01*
X215077961Y-69285714D02*
X214973199Y-69338095D01*
X214973199Y-69338095D02*
X214920818Y-69338095D01*
X214920818Y-69338095D02*
X214816056Y-69285714D01*
X214816056Y-69285714D02*
X214763675Y-69233333D01*
X214763675Y-69233333D02*
X214711294Y-69128571D01*
X214711294Y-69128571D02*
X214711294Y-68919047D01*
X214711294Y-68919047D02*
X214763675Y-68814285D01*
X214763675Y-68814285D02*
X214816056Y-68761904D01*
X214816056Y-68761904D02*
X214920818Y-68709523D01*
X214920818Y-68709523D02*
X214973199Y-68709523D01*
X214973199Y-68709523D02*
X215077961Y-68761904D01*
X215077961Y-68761904D02*
X215130342Y-68814285D01*
X215130342Y-68814285D02*
X215182723Y-68919047D01*
X215182723Y-68919047D02*
X215182723Y-69128571D01*
X215182723Y-69128571D02*
X215235104Y-69233333D01*
X215235104Y-69233333D02*
X215287485Y-69285714D01*
X215287485Y-69285714D02*
X215392247Y-69338095D01*
X215392247Y-69338095D02*
X215601771Y-69338095D01*
X215601771Y-69338095D02*
X215706533Y-69285714D01*
X215706533Y-69285714D02*
X215758914Y-69233333D01*
X215758914Y-69233333D02*
X215811294Y-69128571D01*
X215811294Y-69128571D02*
X215811294Y-68919047D01*
X215811294Y-68919047D02*
X215758914Y-68814285D01*
X215758914Y-68814285D02*
X215706533Y-68761904D01*
X215706533Y-68761904D02*
X215601771Y-68709523D01*
X215601771Y-68709523D02*
X215392247Y-68709523D01*
X215392247Y-68709523D02*
X215287485Y-68761904D01*
X215287485Y-68761904D02*
X215235104Y-68814285D01*
X215235104Y-68814285D02*
X215182723Y-68919047D01*
X215706533Y-68238095D02*
X215758914Y-68185714D01*
X215758914Y-68185714D02*
X215811294Y-68238095D01*
X215811294Y-68238095D02*
X215758914Y-68290476D01*
X215758914Y-68290476D02*
X215706533Y-68238095D01*
X215706533Y-68238095D02*
X215811294Y-68238095D01*
X214816056Y-67766666D02*
X214763675Y-67714285D01*
X214763675Y-67714285D02*
X214711294Y-67609523D01*
X214711294Y-67609523D02*
X214711294Y-67347618D01*
X214711294Y-67347618D02*
X214763675Y-67242856D01*
X214763675Y-67242856D02*
X214816056Y-67190475D01*
X214816056Y-67190475D02*
X214920818Y-67138094D01*
X214920818Y-67138094D02*
X215025580Y-67138094D01*
X215025580Y-67138094D02*
X215182723Y-67190475D01*
X215182723Y-67190475D02*
X215811294Y-67819047D01*
X215811294Y-67819047D02*
X215811294Y-67138094D01*
X214711294Y-66457142D02*
X214711294Y-66352380D01*
X214711294Y-66352380D02*
X214763675Y-66247618D01*
X214763675Y-66247618D02*
X214816056Y-66195237D01*
X214816056Y-66195237D02*
X214920818Y-66142856D01*
X214920818Y-66142856D02*
X215130342Y-66090475D01*
X215130342Y-66090475D02*
X215392247Y-66090475D01*
X215392247Y-66090475D02*
X215601771Y-66142856D01*
X215601771Y-66142856D02*
X215706533Y-66195237D01*
X215706533Y-66195237D02*
X215758914Y-66247618D01*
X215758914Y-66247618D02*
X215811294Y-66352380D01*
X215811294Y-66352380D02*
X215811294Y-66457142D01*
X215811294Y-66457142D02*
X215758914Y-66561904D01*
X215758914Y-66561904D02*
X215706533Y-66614285D01*
X215706533Y-66614285D02*
X215601771Y-66666666D01*
X215601771Y-66666666D02*
X215392247Y-66719047D01*
X215392247Y-66719047D02*
X215130342Y-66719047D01*
X215130342Y-66719047D02*
X214920818Y-66666666D01*
X214920818Y-66666666D02*
X214816056Y-66614285D01*
X214816056Y-66614285D02*
X214763675Y-66561904D01*
X214763675Y-66561904D02*
X214711294Y-66457142D01*
X214816056Y-65671428D02*
X214763675Y-65619047D01*
X214763675Y-65619047D02*
X214711294Y-65514285D01*
X214711294Y-65514285D02*
X214711294Y-65252380D01*
X214711294Y-65252380D02*
X214763675Y-65147618D01*
X214763675Y-65147618D02*
X214816056Y-65095237D01*
X214816056Y-65095237D02*
X214920818Y-65042856D01*
X214920818Y-65042856D02*
X215025580Y-65042856D01*
X215025580Y-65042856D02*
X215182723Y-65095237D01*
X215182723Y-65095237D02*
X215811294Y-65723809D01*
X215811294Y-65723809D02*
X215811294Y-65042856D01*
X215077961Y-64099999D02*
X215811294Y-64099999D01*
X214658914Y-64361904D02*
X215444628Y-64623809D01*
X215444628Y-64623809D02*
X215444628Y-63942856D01*
D12*
X219261905Y-121457419D02*
X219261905Y-120457419D01*
X219833333Y-121457419D02*
X219404762Y-120885990D01*
X219833333Y-120457419D02*
X219261905Y-121028847D01*
X220785714Y-121457419D02*
X220214286Y-121457419D01*
X220500000Y-121457419D02*
X220500000Y-120457419D01*
X220500000Y-120457419D02*
X220404762Y-120600276D01*
X220404762Y-120600276D02*
X220309524Y-120695514D01*
X220309524Y-120695514D02*
X220214286Y-120743133D01*
D10*
X246285714Y-44164228D02*
X246333333Y-44211847D01*
X246333333Y-44211847D02*
X246428571Y-44354704D01*
X246428571Y-44354704D02*
X246476190Y-44449942D01*
X246476190Y-44449942D02*
X246523809Y-44592800D01*
X246523809Y-44592800D02*
X246571428Y-44830895D01*
X246571428Y-44830895D02*
X246571428Y-45021371D01*
X246571428Y-45021371D02*
X246523809Y-45259466D01*
X246523809Y-45259466D02*
X246476190Y-45402323D01*
X246476190Y-45402323D02*
X246428571Y-45497561D01*
X246428571Y-45497561D02*
X246333333Y-45640419D01*
X246333333Y-45640419D02*
X246285714Y-45688038D01*
X245904761Y-44545180D02*
X245904761Y-45545180D01*
X245904761Y-45545180D02*
X245333333Y-44545180D01*
X245333333Y-44545180D02*
X245333333Y-45545180D01*
X244952380Y-44164228D02*
X244904761Y-44211847D01*
X244904761Y-44211847D02*
X244809523Y-44354704D01*
X244809523Y-44354704D02*
X244761904Y-44449942D01*
X244761904Y-44449942D02*
X244714285Y-44592800D01*
X244714285Y-44592800D02*
X244666666Y-44830895D01*
X244666666Y-44830895D02*
X244666666Y-45021371D01*
X244666666Y-45021371D02*
X244714285Y-45259466D01*
X244714285Y-45259466D02*
X244761904Y-45402323D01*
X244761904Y-45402323D02*
X244809523Y-45497561D01*
X244809523Y-45497561D02*
X244904761Y-45640419D01*
X244904761Y-45640419D02*
X244952380Y-45688038D01*
X243428570Y-44545180D02*
X243428570Y-45545180D01*
X243428570Y-45545180D02*
X243095237Y-44830895D01*
X243095237Y-44830895D02*
X242761904Y-45545180D01*
X242761904Y-45545180D02*
X242761904Y-44545180D01*
X242333332Y-44830895D02*
X241857142Y-44830895D01*
X242428570Y-44545180D02*
X242095237Y-45545180D01*
X242095237Y-45545180D02*
X241761904Y-44545180D01*
X241428570Y-44545180D02*
X241428570Y-45545180D01*
X240952380Y-44545180D02*
X240952380Y-45545180D01*
X240952380Y-45545180D02*
X240380952Y-44545180D01*
X240380952Y-44545180D02*
X240380952Y-45545180D01*
X239952380Y-44592800D02*
X239809523Y-44545180D01*
X239809523Y-44545180D02*
X239571428Y-44545180D01*
X239571428Y-44545180D02*
X239476190Y-44592800D01*
X239476190Y-44592800D02*
X239428571Y-44640419D01*
X239428571Y-44640419D02*
X239380952Y-44735657D01*
X239380952Y-44735657D02*
X239380952Y-44830895D01*
X239380952Y-44830895D02*
X239428571Y-44926133D01*
X239428571Y-44926133D02*
X239476190Y-44973752D01*
X239476190Y-44973752D02*
X239571428Y-45021371D01*
X239571428Y-45021371D02*
X239761904Y-45068990D01*
X239761904Y-45068990D02*
X239857142Y-45116609D01*
X239857142Y-45116609D02*
X239904761Y-45164228D01*
X239904761Y-45164228D02*
X239952380Y-45259466D01*
X239952380Y-45259466D02*
X239952380Y-45354704D01*
X239952380Y-45354704D02*
X239904761Y-45449942D01*
X239904761Y-45449942D02*
X239857142Y-45497561D01*
X239857142Y-45497561D02*
X239761904Y-45545180D01*
X239761904Y-45545180D02*
X239523809Y-45545180D01*
X239523809Y-45545180D02*
X239380952Y-45497561D01*
X238190475Y-44545180D02*
X238190475Y-45545180D01*
X237714285Y-44545180D02*
X237714285Y-45545180D01*
X237714285Y-45545180D02*
X237142857Y-44545180D01*
X237142857Y-44545180D02*
X237142857Y-45545180D01*
X236666666Y-44545180D02*
X236666666Y-45545180D01*
X236666666Y-45545180D02*
X236285714Y-45545180D01*
X236285714Y-45545180D02*
X236190476Y-45497561D01*
X236190476Y-45497561D02*
X236142857Y-45449942D01*
X236142857Y-45449942D02*
X236095238Y-45354704D01*
X236095238Y-45354704D02*
X236095238Y-45211847D01*
X236095238Y-45211847D02*
X236142857Y-45116609D01*
X236142857Y-45116609D02*
X236190476Y-45068990D01*
X236190476Y-45068990D02*
X236285714Y-45021371D01*
X236285714Y-45021371D02*
X236666666Y-45021371D01*
X235666666Y-45545180D02*
X235666666Y-44735657D01*
X235666666Y-44735657D02*
X235619047Y-44640419D01*
X235619047Y-44640419D02*
X235571428Y-44592800D01*
X235571428Y-44592800D02*
X235476190Y-44545180D01*
X235476190Y-44545180D02*
X235285714Y-44545180D01*
X235285714Y-44545180D02*
X235190476Y-44592800D01*
X235190476Y-44592800D02*
X235142857Y-44640419D01*
X235142857Y-44640419D02*
X235095238Y-44735657D01*
X235095238Y-44735657D02*
X235095238Y-45545180D01*
X234761904Y-45545180D02*
X234190476Y-45545180D01*
X234476190Y-44545180D02*
X234476190Y-45545180D01*
X232809523Y-44164228D02*
X232857142Y-44211847D01*
X232857142Y-44211847D02*
X232952380Y-44354704D01*
X232952380Y-44354704D02*
X232999999Y-44449942D01*
X232999999Y-44449942D02*
X233047618Y-44592800D01*
X233047618Y-44592800D02*
X233095237Y-44830895D01*
X233095237Y-44830895D02*
X233095237Y-45021371D01*
X233095237Y-45021371D02*
X233047618Y-45259466D01*
X233047618Y-45259466D02*
X232999999Y-45402323D01*
X232999999Y-45402323D02*
X232952380Y-45497561D01*
X232952380Y-45497561D02*
X232857142Y-45640419D01*
X232857142Y-45640419D02*
X232809523Y-45688038D01*
X231952380Y-44545180D02*
X232428570Y-44545180D01*
X232428570Y-44545180D02*
X232428570Y-45545180D01*
X231714284Y-44164228D02*
X231666665Y-44211847D01*
X231666665Y-44211847D02*
X231571427Y-44354704D01*
X231571427Y-44354704D02*
X231523808Y-44449942D01*
X231523808Y-44449942D02*
X231476189Y-44592800D01*
X231476189Y-44592800D02*
X231428570Y-44830895D01*
X231428570Y-44830895D02*
X231428570Y-45021371D01*
X231428570Y-45021371D02*
X231476189Y-45259466D01*
X231476189Y-45259466D02*
X231523808Y-45402323D01*
X231523808Y-45402323D02*
X231571427Y-45497561D01*
X231571427Y-45497561D02*
X231666665Y-45640419D01*
X231666665Y-45640419D02*
X231714284Y-45688038D01*
X256335771Y-107071429D02*
X256288152Y-107119048D01*
X256288152Y-107119048D02*
X256145295Y-107214286D01*
X256145295Y-107214286D02*
X256050057Y-107261905D01*
X256050057Y-107261905D02*
X255907200Y-107309524D01*
X255907200Y-107309524D02*
X255669104Y-107357143D01*
X255669104Y-107357143D02*
X255478628Y-107357143D01*
X255478628Y-107357143D02*
X255240533Y-107309524D01*
X255240533Y-107309524D02*
X255097676Y-107261905D01*
X255097676Y-107261905D02*
X255002438Y-107214286D01*
X255002438Y-107214286D02*
X254859580Y-107119048D01*
X254859580Y-107119048D02*
X254811961Y-107071429D01*
X255954819Y-106214286D02*
X255954819Y-106690476D01*
X255954819Y-106690476D02*
X254954819Y-106690476D01*
X256335771Y-105976190D02*
X256288152Y-105928571D01*
X256288152Y-105928571D02*
X256145295Y-105833333D01*
X256145295Y-105833333D02*
X256050057Y-105785714D01*
X256050057Y-105785714D02*
X255907200Y-105738095D01*
X255907200Y-105738095D02*
X255669104Y-105690476D01*
X255669104Y-105690476D02*
X255478628Y-105690476D01*
X255478628Y-105690476D02*
X255240533Y-105738095D01*
X255240533Y-105738095D02*
X255097676Y-105785714D01*
X255097676Y-105785714D02*
X255002438Y-105833333D01*
X255002438Y-105833333D02*
X254859580Y-105928571D01*
X254859580Y-105928571D02*
X254811961Y-105976190D01*
X255954819Y-103880952D02*
X255478628Y-104214285D01*
X255954819Y-104452380D02*
X254954819Y-104452380D01*
X254954819Y-104452380D02*
X254954819Y-104071428D01*
X254954819Y-104071428D02*
X255002438Y-103976190D01*
X255002438Y-103976190D02*
X255050057Y-103928571D01*
X255050057Y-103928571D02*
X255145295Y-103880952D01*
X255145295Y-103880952D02*
X255288152Y-103880952D01*
X255288152Y-103880952D02*
X255383390Y-103928571D01*
X255383390Y-103928571D02*
X255431009Y-103976190D01*
X255431009Y-103976190D02*
X255478628Y-104071428D01*
X255478628Y-104071428D02*
X255478628Y-104452380D01*
X255431009Y-103452380D02*
X255431009Y-103119047D01*
X255954819Y-102976190D02*
X255954819Y-103452380D01*
X255954819Y-103452380D02*
X254954819Y-103452380D01*
X254954819Y-103452380D02*
X254954819Y-102976190D01*
X255954819Y-102071428D02*
X255954819Y-102547618D01*
X255954819Y-102547618D02*
X254954819Y-102547618D01*
X255669104Y-101785713D02*
X255669104Y-101309523D01*
X255954819Y-101880951D02*
X254954819Y-101547618D01*
X254954819Y-101547618D02*
X255954819Y-101214285D01*
X255478628Y-100690475D02*
X255954819Y-100690475D01*
X254954819Y-101023808D02*
X255478628Y-100690475D01*
X255478628Y-100690475D02*
X254954819Y-100357142D01*
X255050057Y-99309522D02*
X255002438Y-99261903D01*
X255002438Y-99261903D02*
X254954819Y-99166665D01*
X254954819Y-99166665D02*
X254954819Y-98928570D01*
X254954819Y-98928570D02*
X255002438Y-98833332D01*
X255002438Y-98833332D02*
X255050057Y-98785713D01*
X255050057Y-98785713D02*
X255145295Y-98738094D01*
X255145295Y-98738094D02*
X255240533Y-98738094D01*
X255240533Y-98738094D02*
X255383390Y-98785713D01*
X255383390Y-98785713D02*
X255954819Y-99357141D01*
X255954819Y-99357141D02*
X255954819Y-98738094D01*
X256335771Y-97261903D02*
X256288152Y-97309522D01*
X256288152Y-97309522D02*
X256145295Y-97404760D01*
X256145295Y-97404760D02*
X256050057Y-97452379D01*
X256050057Y-97452379D02*
X255907200Y-97499998D01*
X255907200Y-97499998D02*
X255669104Y-97547617D01*
X255669104Y-97547617D02*
X255478628Y-97547617D01*
X255478628Y-97547617D02*
X255240533Y-97499998D01*
X255240533Y-97499998D02*
X255097676Y-97452379D01*
X255097676Y-97452379D02*
X255002438Y-97404760D01*
X255002438Y-97404760D02*
X254859580Y-97309522D01*
X254859580Y-97309522D02*
X254811961Y-97261903D01*
X255954819Y-96880950D02*
X254954819Y-96880950D01*
X254954819Y-96880950D02*
X255954819Y-96309522D01*
X255954819Y-96309522D02*
X254954819Y-96309522D01*
X256335771Y-95928569D02*
X256288152Y-95880950D01*
X256288152Y-95880950D02*
X256145295Y-95785712D01*
X256145295Y-95785712D02*
X256050057Y-95738093D01*
X256050057Y-95738093D02*
X255907200Y-95690474D01*
X255907200Y-95690474D02*
X255669104Y-95642855D01*
X255669104Y-95642855D02*
X255478628Y-95642855D01*
X255478628Y-95642855D02*
X255240533Y-95690474D01*
X255240533Y-95690474D02*
X255097676Y-95738093D01*
X255097676Y-95738093D02*
X255002438Y-95785712D01*
X255002438Y-95785712D02*
X254859580Y-95880950D01*
X254859580Y-95880950D02*
X254811961Y-95928569D01*
X256335771Y-120571429D02*
X256288152Y-120619048D01*
X256288152Y-120619048D02*
X256145295Y-120714286D01*
X256145295Y-120714286D02*
X256050057Y-120761905D01*
X256050057Y-120761905D02*
X255907200Y-120809524D01*
X255907200Y-120809524D02*
X255669104Y-120857143D01*
X255669104Y-120857143D02*
X255478628Y-120857143D01*
X255478628Y-120857143D02*
X255240533Y-120809524D01*
X255240533Y-120809524D02*
X255097676Y-120761905D01*
X255097676Y-120761905D02*
X255002438Y-120714286D01*
X255002438Y-120714286D02*
X254859580Y-120619048D01*
X254859580Y-120619048D02*
X254811961Y-120571429D01*
X255954819Y-119714286D02*
X255954819Y-120190476D01*
X255954819Y-120190476D02*
X254954819Y-120190476D01*
X256335771Y-119476190D02*
X256288152Y-119428571D01*
X256288152Y-119428571D02*
X256145295Y-119333333D01*
X256145295Y-119333333D02*
X256050057Y-119285714D01*
X256050057Y-119285714D02*
X255907200Y-119238095D01*
X255907200Y-119238095D02*
X255669104Y-119190476D01*
X255669104Y-119190476D02*
X255478628Y-119190476D01*
X255478628Y-119190476D02*
X255240533Y-119238095D01*
X255240533Y-119238095D02*
X255097676Y-119285714D01*
X255097676Y-119285714D02*
X255002438Y-119333333D01*
X255002438Y-119333333D02*
X254859580Y-119428571D01*
X254859580Y-119428571D02*
X254811961Y-119476190D01*
X255954819Y-117380952D02*
X255478628Y-117714285D01*
X255954819Y-117952380D02*
X254954819Y-117952380D01*
X254954819Y-117952380D02*
X254954819Y-117571428D01*
X254954819Y-117571428D02*
X255002438Y-117476190D01*
X255002438Y-117476190D02*
X255050057Y-117428571D01*
X255050057Y-117428571D02*
X255145295Y-117380952D01*
X255145295Y-117380952D02*
X255288152Y-117380952D01*
X255288152Y-117380952D02*
X255383390Y-117428571D01*
X255383390Y-117428571D02*
X255431009Y-117476190D01*
X255431009Y-117476190D02*
X255478628Y-117571428D01*
X255478628Y-117571428D02*
X255478628Y-117952380D01*
X255431009Y-116952380D02*
X255431009Y-116619047D01*
X255954819Y-116476190D02*
X255954819Y-116952380D01*
X255954819Y-116952380D02*
X254954819Y-116952380D01*
X254954819Y-116952380D02*
X254954819Y-116476190D01*
X255954819Y-115571428D02*
X255954819Y-116047618D01*
X255954819Y-116047618D02*
X254954819Y-116047618D01*
X255669104Y-115285713D02*
X255669104Y-114809523D01*
X255954819Y-115380951D02*
X254954819Y-115047618D01*
X254954819Y-115047618D02*
X255954819Y-114714285D01*
X255478628Y-114190475D02*
X255954819Y-114190475D01*
X254954819Y-114523808D02*
X255478628Y-114190475D01*
X255478628Y-114190475D02*
X254954819Y-113857142D01*
X255954819Y-112238094D02*
X255954819Y-112809522D01*
X255954819Y-112523808D02*
X254954819Y-112523808D01*
X254954819Y-112523808D02*
X255097676Y-112619046D01*
X255097676Y-112619046D02*
X255192914Y-112714284D01*
X255192914Y-112714284D02*
X255240533Y-112809522D01*
X256335771Y-110761903D02*
X256288152Y-110809522D01*
X256288152Y-110809522D02*
X256145295Y-110904760D01*
X256145295Y-110904760D02*
X256050057Y-110952379D01*
X256050057Y-110952379D02*
X255907200Y-110999998D01*
X255907200Y-110999998D02*
X255669104Y-111047617D01*
X255669104Y-111047617D02*
X255478628Y-111047617D01*
X255478628Y-111047617D02*
X255240533Y-110999998D01*
X255240533Y-110999998D02*
X255097676Y-110952379D01*
X255097676Y-110952379D02*
X255002438Y-110904760D01*
X255002438Y-110904760D02*
X254859580Y-110809522D01*
X254859580Y-110809522D02*
X254811961Y-110761903D01*
X255954819Y-110380950D02*
X254954819Y-110380950D01*
X254954819Y-110380950D02*
X255954819Y-109809522D01*
X255954819Y-109809522D02*
X254954819Y-109809522D01*
X256335771Y-109428569D02*
X256288152Y-109380950D01*
X256288152Y-109380950D02*
X256145295Y-109285712D01*
X256145295Y-109285712D02*
X256050057Y-109238093D01*
X256050057Y-109238093D02*
X255907200Y-109190474D01*
X255907200Y-109190474D02*
X255669104Y-109142855D01*
X255669104Y-109142855D02*
X255478628Y-109142855D01*
X255478628Y-109142855D02*
X255240533Y-109190474D01*
X255240533Y-109190474D02*
X255097676Y-109238093D01*
X255097676Y-109238093D02*
X255002438Y-109285712D01*
X255002438Y-109285712D02*
X254859580Y-109380950D01*
X254859580Y-109380950D02*
X254811961Y-109428569D01*
X256335771Y-133333333D02*
X256288152Y-133380952D01*
X256288152Y-133380952D02*
X256145295Y-133476190D01*
X256145295Y-133476190D02*
X256050057Y-133523809D01*
X256050057Y-133523809D02*
X255907200Y-133571428D01*
X255907200Y-133571428D02*
X255669104Y-133619047D01*
X255669104Y-133619047D02*
X255478628Y-133619047D01*
X255478628Y-133619047D02*
X255240533Y-133571428D01*
X255240533Y-133571428D02*
X255097676Y-133523809D01*
X255097676Y-133523809D02*
X255002438Y-133476190D01*
X255002438Y-133476190D02*
X254859580Y-133380952D01*
X254859580Y-133380952D02*
X254811961Y-133333333D01*
X255954819Y-132476190D02*
X255954819Y-132952380D01*
X255954819Y-132952380D02*
X254954819Y-132952380D01*
X256335771Y-132238094D02*
X256288152Y-132190475D01*
X256288152Y-132190475D02*
X256145295Y-132095237D01*
X256145295Y-132095237D02*
X256050057Y-132047618D01*
X256050057Y-132047618D02*
X255907200Y-131999999D01*
X255907200Y-131999999D02*
X255669104Y-131952380D01*
X255669104Y-131952380D02*
X255478628Y-131952380D01*
X255478628Y-131952380D02*
X255240533Y-131999999D01*
X255240533Y-131999999D02*
X255097676Y-132047618D01*
X255097676Y-132047618D02*
X255002438Y-132095237D01*
X255002438Y-132095237D02*
X254859580Y-132190475D01*
X254859580Y-132190475D02*
X254811961Y-132238094D01*
X255954819Y-130714284D02*
X254954819Y-130714284D01*
X254954819Y-130714284D02*
X254954819Y-130476189D01*
X254954819Y-130476189D02*
X255002438Y-130333332D01*
X255002438Y-130333332D02*
X255097676Y-130238094D01*
X255097676Y-130238094D02*
X255192914Y-130190475D01*
X255192914Y-130190475D02*
X255383390Y-130142856D01*
X255383390Y-130142856D02*
X255526247Y-130142856D01*
X255526247Y-130142856D02*
X255716723Y-130190475D01*
X255716723Y-130190475D02*
X255811961Y-130238094D01*
X255811961Y-130238094D02*
X255907200Y-130333332D01*
X255907200Y-130333332D02*
X255954819Y-130476189D01*
X255954819Y-130476189D02*
X255954819Y-130714284D01*
X255954819Y-129714284D02*
X254954819Y-129714284D01*
X255954819Y-129238094D02*
X254954819Y-129238094D01*
X254954819Y-129238094D02*
X255669104Y-128904761D01*
X255669104Y-128904761D02*
X254954819Y-128571428D01*
X254954819Y-128571428D02*
X255954819Y-128571428D01*
X255954819Y-128095237D02*
X254954819Y-128095237D01*
X254954819Y-128095237D02*
X255669104Y-127761904D01*
X255669104Y-127761904D02*
X254954819Y-127428571D01*
X254954819Y-127428571D02*
X255954819Y-127428571D01*
X255431009Y-126952380D02*
X255431009Y-126619047D01*
X255954819Y-126476190D02*
X255954819Y-126952380D01*
X255954819Y-126952380D02*
X254954819Y-126952380D01*
X254954819Y-126952380D02*
X254954819Y-126476190D01*
X255954819Y-125476190D02*
X255478628Y-125809523D01*
X255954819Y-126047618D02*
X254954819Y-126047618D01*
X254954819Y-126047618D02*
X254954819Y-125666666D01*
X254954819Y-125666666D02*
X255002438Y-125571428D01*
X255002438Y-125571428D02*
X255050057Y-125523809D01*
X255050057Y-125523809D02*
X255145295Y-125476190D01*
X255145295Y-125476190D02*
X255288152Y-125476190D01*
X255288152Y-125476190D02*
X255383390Y-125523809D01*
X255383390Y-125523809D02*
X255431009Y-125571428D01*
X255431009Y-125571428D02*
X255478628Y-125666666D01*
X255478628Y-125666666D02*
X255478628Y-126047618D01*
X256335771Y-123999999D02*
X256288152Y-124047618D01*
X256288152Y-124047618D02*
X256145295Y-124142856D01*
X256145295Y-124142856D02*
X256050057Y-124190475D01*
X256050057Y-124190475D02*
X255907200Y-124238094D01*
X255907200Y-124238094D02*
X255669104Y-124285713D01*
X255669104Y-124285713D02*
X255478628Y-124285713D01*
X255478628Y-124285713D02*
X255240533Y-124238094D01*
X255240533Y-124238094D02*
X255097676Y-124190475D01*
X255097676Y-124190475D02*
X255002438Y-124142856D01*
X255002438Y-124142856D02*
X254859580Y-124047618D01*
X254859580Y-124047618D02*
X254811961Y-123999999D01*
X255954819Y-123619046D02*
X254954819Y-123619046D01*
X254954819Y-123619046D02*
X255954819Y-123047618D01*
X255954819Y-123047618D02*
X254954819Y-123047618D01*
X256335771Y-122666665D02*
X256288152Y-122619046D01*
X256288152Y-122619046D02*
X256145295Y-122523808D01*
X256145295Y-122523808D02*
X256050057Y-122476189D01*
X256050057Y-122476189D02*
X255907200Y-122428570D01*
X255907200Y-122428570D02*
X255669104Y-122380951D01*
X255669104Y-122380951D02*
X255478628Y-122380951D01*
X255478628Y-122380951D02*
X255240533Y-122428570D01*
X255240533Y-122428570D02*
X255097676Y-122476189D01*
X255097676Y-122476189D02*
X255002438Y-122523808D01*
X255002438Y-122523808D02*
X254859580Y-122619046D01*
X254859580Y-122619046D02*
X254811961Y-122666665D01*
X231261905Y-81424819D02*
X231261905Y-80424819D01*
X231261905Y-80424819D02*
X231500000Y-80424819D01*
X231500000Y-80424819D02*
X231642857Y-80472438D01*
X231642857Y-80472438D02*
X231738095Y-80567676D01*
X231738095Y-80567676D02*
X231785714Y-80662914D01*
X231785714Y-80662914D02*
X231833333Y-80853390D01*
X231833333Y-80853390D02*
X231833333Y-80996247D01*
X231833333Y-80996247D02*
X231785714Y-81186723D01*
X231785714Y-81186723D02*
X231738095Y-81281961D01*
X231738095Y-81281961D02*
X231642857Y-81377200D01*
X231642857Y-81377200D02*
X231500000Y-81424819D01*
X231500000Y-81424819D02*
X231261905Y-81424819D01*
X232166667Y-80424819D02*
X232785714Y-80424819D01*
X232785714Y-80424819D02*
X232452381Y-80805771D01*
X232452381Y-80805771D02*
X232595238Y-80805771D01*
X232595238Y-80805771D02*
X232690476Y-80853390D01*
X232690476Y-80853390D02*
X232738095Y-80901009D01*
X232738095Y-80901009D02*
X232785714Y-80996247D01*
X232785714Y-80996247D02*
X232785714Y-81234342D01*
X232785714Y-81234342D02*
X232738095Y-81329580D01*
X232738095Y-81329580D02*
X232690476Y-81377200D01*
X232690476Y-81377200D02*
X232595238Y-81424819D01*
X232595238Y-81424819D02*
X232309524Y-81424819D01*
X232309524Y-81424819D02*
X232214286Y-81377200D01*
X232214286Y-81377200D02*
X232166667Y-81329580D01*
X236818095Y-81054819D02*
X236818095Y-80054819D01*
X237389523Y-81054819D02*
X236960952Y-80483390D01*
X237389523Y-80054819D02*
X236818095Y-80626247D01*
X191904819Y-124642857D02*
X191428628Y-124976190D01*
X191904819Y-125214285D02*
X190904819Y-125214285D01*
X190904819Y-125214285D02*
X190904819Y-124833333D01*
X190904819Y-124833333D02*
X190952438Y-124738095D01*
X190952438Y-124738095D02*
X191000057Y-124690476D01*
X191000057Y-124690476D02*
X191095295Y-124642857D01*
X191095295Y-124642857D02*
X191238152Y-124642857D01*
X191238152Y-124642857D02*
X191333390Y-124690476D01*
X191333390Y-124690476D02*
X191381009Y-124738095D01*
X191381009Y-124738095D02*
X191428628Y-124833333D01*
X191428628Y-124833333D02*
X191428628Y-125214285D01*
X191904819Y-123690476D02*
X191904819Y-124261904D01*
X191904819Y-123976190D02*
X190904819Y-123976190D01*
X190904819Y-123976190D02*
X191047676Y-124071428D01*
X191047676Y-124071428D02*
X191142914Y-124166666D01*
X191142914Y-124166666D02*
X191190533Y-124261904D01*
X190904819Y-123071428D02*
X190904819Y-122976190D01*
X190904819Y-122976190D02*
X190952438Y-122880952D01*
X190952438Y-122880952D02*
X191000057Y-122833333D01*
X191000057Y-122833333D02*
X191095295Y-122785714D01*
X191095295Y-122785714D02*
X191285771Y-122738095D01*
X191285771Y-122738095D02*
X191523866Y-122738095D01*
X191523866Y-122738095D02*
X191714342Y-122785714D01*
X191714342Y-122785714D02*
X191809580Y-122833333D01*
X191809580Y-122833333D02*
X191857200Y-122880952D01*
X191857200Y-122880952D02*
X191904819Y-122976190D01*
X191904819Y-122976190D02*
X191904819Y-123071428D01*
X191904819Y-123071428D02*
X191857200Y-123166666D01*
X191857200Y-123166666D02*
X191809580Y-123214285D01*
X191809580Y-123214285D02*
X191714342Y-123261904D01*
X191714342Y-123261904D02*
X191523866Y-123309523D01*
X191523866Y-123309523D02*
X191285771Y-123309523D01*
X191285771Y-123309523D02*
X191095295Y-123261904D01*
X191095295Y-123261904D02*
X191000057Y-123214285D01*
X191000057Y-123214285D02*
X190952438Y-123166666D01*
X190952438Y-123166666D02*
X190904819Y-123071428D01*
X239694819Y-114833333D02*
X240409104Y-114833333D01*
X240409104Y-114833333D02*
X240551961Y-114880952D01*
X240551961Y-114880952D02*
X240647200Y-114976190D01*
X240647200Y-114976190D02*
X240694819Y-115119047D01*
X240694819Y-115119047D02*
X240694819Y-115214285D01*
X239694819Y-114452380D02*
X239694819Y-113833333D01*
X239694819Y-113833333D02*
X240075771Y-114166666D01*
X240075771Y-114166666D02*
X240075771Y-114023809D01*
X240075771Y-114023809D02*
X240123390Y-113928571D01*
X240123390Y-113928571D02*
X240171009Y-113880952D01*
X240171009Y-113880952D02*
X240266247Y-113833333D01*
X240266247Y-113833333D02*
X240504342Y-113833333D01*
X240504342Y-113833333D02*
X240599580Y-113880952D01*
X240599580Y-113880952D02*
X240647200Y-113928571D01*
X240647200Y-113928571D02*
X240694819Y-114023809D01*
X240694819Y-114023809D02*
X240694819Y-114309523D01*
X240694819Y-114309523D02*
X240647200Y-114404761D01*
X240647200Y-114404761D02*
X240599580Y-114452380D01*
X231261905Y-71984819D02*
X231261905Y-70984819D01*
X231261905Y-70984819D02*
X231500000Y-70984819D01*
X231500000Y-70984819D02*
X231642857Y-71032438D01*
X231642857Y-71032438D02*
X231738095Y-71127676D01*
X231738095Y-71127676D02*
X231785714Y-71222914D01*
X231785714Y-71222914D02*
X231833333Y-71413390D01*
X231833333Y-71413390D02*
X231833333Y-71556247D01*
X231833333Y-71556247D02*
X231785714Y-71746723D01*
X231785714Y-71746723D02*
X231738095Y-71841961D01*
X231738095Y-71841961D02*
X231642857Y-71937200D01*
X231642857Y-71937200D02*
X231500000Y-71984819D01*
X231500000Y-71984819D02*
X231261905Y-71984819D01*
X232785714Y-71984819D02*
X232214286Y-71984819D01*
X232500000Y-71984819D02*
X232500000Y-70984819D01*
X232500000Y-70984819D02*
X232404762Y-71127676D01*
X232404762Y-71127676D02*
X232309524Y-71222914D01*
X232309524Y-71222914D02*
X232214286Y-71270533D01*
X226658095Y-72354819D02*
X226658095Y-71354819D01*
X227229523Y-72354819D02*
X226800952Y-71783390D01*
X227229523Y-71354819D02*
X226658095Y-71926247D01*
X201333333Y-138584819D02*
X201000000Y-138108628D01*
X200761905Y-138584819D02*
X200761905Y-137584819D01*
X200761905Y-137584819D02*
X201142857Y-137584819D01*
X201142857Y-137584819D02*
X201238095Y-137632438D01*
X201238095Y-137632438D02*
X201285714Y-137680057D01*
X201285714Y-137680057D02*
X201333333Y-137775295D01*
X201333333Y-137775295D02*
X201333333Y-137918152D01*
X201333333Y-137918152D02*
X201285714Y-138013390D01*
X201285714Y-138013390D02*
X201238095Y-138061009D01*
X201238095Y-138061009D02*
X201142857Y-138108628D01*
X201142857Y-138108628D02*
X200761905Y-138108628D01*
X202238095Y-137584819D02*
X201761905Y-137584819D01*
X201761905Y-137584819D02*
X201714286Y-138061009D01*
X201714286Y-138061009D02*
X201761905Y-138013390D01*
X201761905Y-138013390D02*
X201857143Y-137965771D01*
X201857143Y-137965771D02*
X202095238Y-137965771D01*
X202095238Y-137965771D02*
X202190476Y-138013390D01*
X202190476Y-138013390D02*
X202238095Y-138061009D01*
X202238095Y-138061009D02*
X202285714Y-138156247D01*
X202285714Y-138156247D02*
X202285714Y-138394342D01*
X202285714Y-138394342D02*
X202238095Y-138489580D01*
X202238095Y-138489580D02*
X202190476Y-138537200D01*
X202190476Y-138537200D02*
X202095238Y-138584819D01*
X202095238Y-138584819D02*
X201857143Y-138584819D01*
X201857143Y-138584819D02*
X201761905Y-138537200D01*
X201761905Y-138537200D02*
X201714286Y-138489580D01*
X231333333Y-69324819D02*
X231000000Y-68848628D01*
X230761905Y-69324819D02*
X230761905Y-68324819D01*
X230761905Y-68324819D02*
X231142857Y-68324819D01*
X231142857Y-68324819D02*
X231238095Y-68372438D01*
X231238095Y-68372438D02*
X231285714Y-68420057D01*
X231285714Y-68420057D02*
X231333333Y-68515295D01*
X231333333Y-68515295D02*
X231333333Y-68658152D01*
X231333333Y-68658152D02*
X231285714Y-68753390D01*
X231285714Y-68753390D02*
X231238095Y-68801009D01*
X231238095Y-68801009D02*
X231142857Y-68848628D01*
X231142857Y-68848628D02*
X230761905Y-68848628D01*
X232285714Y-69324819D02*
X231714286Y-69324819D01*
X232000000Y-69324819D02*
X232000000Y-68324819D01*
X232000000Y-68324819D02*
X231904762Y-68467676D01*
X231904762Y-68467676D02*
X231809524Y-68562914D01*
X231809524Y-68562914D02*
X231714286Y-68610533D01*
X209904761Y-121550057D02*
X209809523Y-121502438D01*
X209809523Y-121502438D02*
X209714285Y-121407200D01*
X209714285Y-121407200D02*
X209571428Y-121264342D01*
X209571428Y-121264342D02*
X209476190Y-121216723D01*
X209476190Y-121216723D02*
X209380952Y-121216723D01*
X209428571Y-121454819D02*
X209333333Y-121407200D01*
X209333333Y-121407200D02*
X209238095Y-121311961D01*
X209238095Y-121311961D02*
X209190476Y-121121485D01*
X209190476Y-121121485D02*
X209190476Y-120788152D01*
X209190476Y-120788152D02*
X209238095Y-120597676D01*
X209238095Y-120597676D02*
X209333333Y-120502438D01*
X209333333Y-120502438D02*
X209428571Y-120454819D01*
X209428571Y-120454819D02*
X209619047Y-120454819D01*
X209619047Y-120454819D02*
X209714285Y-120502438D01*
X209714285Y-120502438D02*
X209809523Y-120597676D01*
X209809523Y-120597676D02*
X209857142Y-120788152D01*
X209857142Y-120788152D02*
X209857142Y-121121485D01*
X209857142Y-121121485D02*
X209809523Y-121311961D01*
X209809523Y-121311961D02*
X209714285Y-121407200D01*
X209714285Y-121407200D02*
X209619047Y-121454819D01*
X209619047Y-121454819D02*
X209428571Y-121454819D01*
X210809523Y-121454819D02*
X210238095Y-121454819D01*
X210523809Y-121454819D02*
X210523809Y-120454819D01*
X210523809Y-120454819D02*
X210428571Y-120597676D01*
X210428571Y-120597676D02*
X210333333Y-120692914D01*
X210333333Y-120692914D02*
X210238095Y-120740533D01*
X207990057Y-96095238D02*
X207942438Y-96190476D01*
X207942438Y-96190476D02*
X207847200Y-96285714D01*
X207847200Y-96285714D02*
X207704342Y-96428571D01*
X207704342Y-96428571D02*
X207656723Y-96523809D01*
X207656723Y-96523809D02*
X207656723Y-96619047D01*
X207894819Y-96571428D02*
X207847200Y-96666666D01*
X207847200Y-96666666D02*
X207751961Y-96761904D01*
X207751961Y-96761904D02*
X207561485Y-96809523D01*
X207561485Y-96809523D02*
X207228152Y-96809523D01*
X207228152Y-96809523D02*
X207037676Y-96761904D01*
X207037676Y-96761904D02*
X206942438Y-96666666D01*
X206942438Y-96666666D02*
X206894819Y-96571428D01*
X206894819Y-96571428D02*
X206894819Y-96380952D01*
X206894819Y-96380952D02*
X206942438Y-96285714D01*
X206942438Y-96285714D02*
X207037676Y-96190476D01*
X207037676Y-96190476D02*
X207228152Y-96142857D01*
X207228152Y-96142857D02*
X207561485Y-96142857D01*
X207561485Y-96142857D02*
X207751961Y-96190476D01*
X207751961Y-96190476D02*
X207847200Y-96285714D01*
X207847200Y-96285714D02*
X207894819Y-96380952D01*
X207894819Y-96380952D02*
X207894819Y-96571428D01*
X206990057Y-95761904D02*
X206942438Y-95714285D01*
X206942438Y-95714285D02*
X206894819Y-95619047D01*
X206894819Y-95619047D02*
X206894819Y-95380952D01*
X206894819Y-95380952D02*
X206942438Y-95285714D01*
X206942438Y-95285714D02*
X206990057Y-95238095D01*
X206990057Y-95238095D02*
X207085295Y-95190476D01*
X207085295Y-95190476D02*
X207180533Y-95190476D01*
X207180533Y-95190476D02*
X207323390Y-95238095D01*
X207323390Y-95238095D02*
X207894819Y-95809523D01*
X207894819Y-95809523D02*
X207894819Y-95190476D01*
X182166667Y-98657200D02*
X182309524Y-98704819D01*
X182309524Y-98704819D02*
X182547619Y-98704819D01*
X182547619Y-98704819D02*
X182642857Y-98657200D01*
X182642857Y-98657200D02*
X182690476Y-98609580D01*
X182690476Y-98609580D02*
X182738095Y-98514342D01*
X182738095Y-98514342D02*
X182738095Y-98419104D01*
X182738095Y-98419104D02*
X182690476Y-98323866D01*
X182690476Y-98323866D02*
X182642857Y-98276247D01*
X182642857Y-98276247D02*
X182547619Y-98228628D01*
X182547619Y-98228628D02*
X182357143Y-98181009D01*
X182357143Y-98181009D02*
X182261905Y-98133390D01*
X182261905Y-98133390D02*
X182214286Y-98085771D01*
X182214286Y-98085771D02*
X182166667Y-97990533D01*
X182166667Y-97990533D02*
X182166667Y-97895295D01*
X182166667Y-97895295D02*
X182214286Y-97800057D01*
X182214286Y-97800057D02*
X182261905Y-97752438D01*
X182261905Y-97752438D02*
X182357143Y-97704819D01*
X182357143Y-97704819D02*
X182595238Y-97704819D01*
X182595238Y-97704819D02*
X182738095Y-97752438D01*
X183071429Y-97704819D02*
X183309524Y-98704819D01*
X183309524Y-98704819D02*
X183500000Y-97990533D01*
X183500000Y-97990533D02*
X183690476Y-98704819D01*
X183690476Y-98704819D02*
X183928572Y-97704819D01*
X184261905Y-97800057D02*
X184309524Y-97752438D01*
X184309524Y-97752438D02*
X184404762Y-97704819D01*
X184404762Y-97704819D02*
X184642857Y-97704819D01*
X184642857Y-97704819D02*
X184738095Y-97752438D01*
X184738095Y-97752438D02*
X184785714Y-97800057D01*
X184785714Y-97800057D02*
X184833333Y-97895295D01*
X184833333Y-97895295D02*
X184833333Y-97990533D01*
X184833333Y-97990533D02*
X184785714Y-98133390D01*
X184785714Y-98133390D02*
X184214286Y-98704819D01*
X184214286Y-98704819D02*
X184833333Y-98704819D01*
X232364761Y-145820057D02*
X232269523Y-145772438D01*
X232269523Y-145772438D02*
X232174285Y-145677200D01*
X232174285Y-145677200D02*
X232031428Y-145534342D01*
X232031428Y-145534342D02*
X231936190Y-145486723D01*
X231936190Y-145486723D02*
X231840952Y-145486723D01*
X231888571Y-145724819D02*
X231793333Y-145677200D01*
X231793333Y-145677200D02*
X231698095Y-145581961D01*
X231698095Y-145581961D02*
X231650476Y-145391485D01*
X231650476Y-145391485D02*
X231650476Y-145058152D01*
X231650476Y-145058152D02*
X231698095Y-144867676D01*
X231698095Y-144867676D02*
X231793333Y-144772438D01*
X231793333Y-144772438D02*
X231888571Y-144724819D01*
X231888571Y-144724819D02*
X232079047Y-144724819D01*
X232079047Y-144724819D02*
X232174285Y-144772438D01*
X232174285Y-144772438D02*
X232269523Y-144867676D01*
X232269523Y-144867676D02*
X232317142Y-145058152D01*
X232317142Y-145058152D02*
X232317142Y-145391485D01*
X232317142Y-145391485D02*
X232269523Y-145581961D01*
X232269523Y-145581961D02*
X232174285Y-145677200D01*
X232174285Y-145677200D02*
X232079047Y-145724819D01*
X232079047Y-145724819D02*
X231888571Y-145724819D01*
X232650476Y-144724819D02*
X233269523Y-144724819D01*
X233269523Y-144724819D02*
X232936190Y-145105771D01*
X232936190Y-145105771D02*
X233079047Y-145105771D01*
X233079047Y-145105771D02*
X233174285Y-145153390D01*
X233174285Y-145153390D02*
X233221904Y-145201009D01*
X233221904Y-145201009D02*
X233269523Y-145296247D01*
X233269523Y-145296247D02*
X233269523Y-145534342D01*
X233269523Y-145534342D02*
X233221904Y-145629580D01*
X233221904Y-145629580D02*
X233174285Y-145677200D01*
X233174285Y-145677200D02*
X233079047Y-145724819D01*
X233079047Y-145724819D02*
X232793333Y-145724819D01*
X232793333Y-145724819D02*
X232698095Y-145677200D01*
X232698095Y-145677200D02*
X232650476Y-145629580D01*
X182324819Y-124642857D02*
X181848628Y-124976190D01*
X182324819Y-125214285D02*
X181324819Y-125214285D01*
X181324819Y-125214285D02*
X181324819Y-124833333D01*
X181324819Y-124833333D02*
X181372438Y-124738095D01*
X181372438Y-124738095D02*
X181420057Y-124690476D01*
X181420057Y-124690476D02*
X181515295Y-124642857D01*
X181515295Y-124642857D02*
X181658152Y-124642857D01*
X181658152Y-124642857D02*
X181753390Y-124690476D01*
X181753390Y-124690476D02*
X181801009Y-124738095D01*
X181801009Y-124738095D02*
X181848628Y-124833333D01*
X181848628Y-124833333D02*
X181848628Y-125214285D01*
X182324819Y-123690476D02*
X182324819Y-124261904D01*
X182324819Y-123976190D02*
X181324819Y-123976190D01*
X181324819Y-123976190D02*
X181467676Y-124071428D01*
X181467676Y-124071428D02*
X181562914Y-124166666D01*
X181562914Y-124166666D02*
X181610533Y-124261904D01*
X182324819Y-122738095D02*
X182324819Y-123309523D01*
X182324819Y-123023809D02*
X181324819Y-123023809D01*
X181324819Y-123023809D02*
X181467676Y-123119047D01*
X181467676Y-123119047D02*
X181562914Y-123214285D01*
X181562914Y-123214285D02*
X181610533Y-123309523D01*
X214333333Y-92324819D02*
X214000000Y-91848628D01*
X213761905Y-92324819D02*
X213761905Y-91324819D01*
X213761905Y-91324819D02*
X214142857Y-91324819D01*
X214142857Y-91324819D02*
X214238095Y-91372438D01*
X214238095Y-91372438D02*
X214285714Y-91420057D01*
X214285714Y-91420057D02*
X214333333Y-91515295D01*
X214333333Y-91515295D02*
X214333333Y-91658152D01*
X214333333Y-91658152D02*
X214285714Y-91753390D01*
X214285714Y-91753390D02*
X214238095Y-91801009D01*
X214238095Y-91801009D02*
X214142857Y-91848628D01*
X214142857Y-91848628D02*
X213761905Y-91848628D01*
X214666667Y-91324819D02*
X215285714Y-91324819D01*
X215285714Y-91324819D02*
X214952381Y-91705771D01*
X214952381Y-91705771D02*
X215095238Y-91705771D01*
X215095238Y-91705771D02*
X215190476Y-91753390D01*
X215190476Y-91753390D02*
X215238095Y-91801009D01*
X215238095Y-91801009D02*
X215285714Y-91896247D01*
X215285714Y-91896247D02*
X215285714Y-92134342D01*
X215285714Y-92134342D02*
X215238095Y-92229580D01*
X215238095Y-92229580D02*
X215190476Y-92277200D01*
X215190476Y-92277200D02*
X215095238Y-92324819D01*
X215095238Y-92324819D02*
X214809524Y-92324819D01*
X214809524Y-92324819D02*
X214714286Y-92277200D01*
X214714286Y-92277200D02*
X214666667Y-92229580D01*
X212261905Y-113574819D02*
X212261905Y-112574819D01*
X212261905Y-112574819D02*
X212500000Y-112574819D01*
X212500000Y-112574819D02*
X212642857Y-112622438D01*
X212642857Y-112622438D02*
X212738095Y-112717676D01*
X212738095Y-112717676D02*
X212785714Y-112812914D01*
X212785714Y-112812914D02*
X212833333Y-113003390D01*
X212833333Y-113003390D02*
X212833333Y-113146247D01*
X212833333Y-113146247D02*
X212785714Y-113336723D01*
X212785714Y-113336723D02*
X212738095Y-113431961D01*
X212738095Y-113431961D02*
X212642857Y-113527200D01*
X212642857Y-113527200D02*
X212500000Y-113574819D01*
X212500000Y-113574819D02*
X212261905Y-113574819D01*
X213166667Y-112574819D02*
X213833333Y-112574819D01*
X213833333Y-112574819D02*
X213404762Y-113574819D01*
X206454819Y-119666666D02*
X205978628Y-119999999D01*
X206454819Y-120238094D02*
X205454819Y-120238094D01*
X205454819Y-120238094D02*
X205454819Y-119857142D01*
X205454819Y-119857142D02*
X205502438Y-119761904D01*
X205502438Y-119761904D02*
X205550057Y-119714285D01*
X205550057Y-119714285D02*
X205645295Y-119666666D01*
X205645295Y-119666666D02*
X205788152Y-119666666D01*
X205788152Y-119666666D02*
X205883390Y-119714285D01*
X205883390Y-119714285D02*
X205931009Y-119761904D01*
X205931009Y-119761904D02*
X205978628Y-119857142D01*
X205978628Y-119857142D02*
X205978628Y-120238094D01*
X205454819Y-118809523D02*
X205454819Y-118999999D01*
X205454819Y-118999999D02*
X205502438Y-119095237D01*
X205502438Y-119095237D02*
X205550057Y-119142856D01*
X205550057Y-119142856D02*
X205692914Y-119238094D01*
X205692914Y-119238094D02*
X205883390Y-119285713D01*
X205883390Y-119285713D02*
X206264342Y-119285713D01*
X206264342Y-119285713D02*
X206359580Y-119238094D01*
X206359580Y-119238094D02*
X206407200Y-119190475D01*
X206407200Y-119190475D02*
X206454819Y-119095237D01*
X206454819Y-119095237D02*
X206454819Y-118904761D01*
X206454819Y-118904761D02*
X206407200Y-118809523D01*
X206407200Y-118809523D02*
X206359580Y-118761904D01*
X206359580Y-118761904D02*
X206264342Y-118714285D01*
X206264342Y-118714285D02*
X206026247Y-118714285D01*
X206026247Y-118714285D02*
X205931009Y-118761904D01*
X205931009Y-118761904D02*
X205883390Y-118809523D01*
X205883390Y-118809523D02*
X205835771Y-118904761D01*
X205835771Y-118904761D02*
X205835771Y-119095237D01*
X205835771Y-119095237D02*
X205883390Y-119190475D01*
X205883390Y-119190475D02*
X205931009Y-119238094D01*
X205931009Y-119238094D02*
X206026247Y-119285713D01*
D12*
X234320704Y-119094359D02*
X234358800Y-119122931D01*
X234358800Y-119122931D02*
X234396895Y-119208645D01*
X234396895Y-119208645D02*
X234396895Y-119265788D01*
X234396895Y-119265788D02*
X234358800Y-119351502D01*
X234358800Y-119351502D02*
X234282609Y-119408645D01*
X234282609Y-119408645D02*
X234206419Y-119437216D01*
X234206419Y-119437216D02*
X234054038Y-119465788D01*
X234054038Y-119465788D02*
X233939752Y-119465788D01*
X233939752Y-119465788D02*
X233787371Y-119437216D01*
X233787371Y-119437216D02*
X233711180Y-119408645D01*
X233711180Y-119408645D02*
X233634990Y-119351502D01*
X233634990Y-119351502D02*
X233596895Y-119265788D01*
X233596895Y-119265788D02*
X233596895Y-119208645D01*
X233596895Y-119208645D02*
X233634990Y-119122931D01*
X233634990Y-119122931D02*
X233673085Y-119094359D01*
X233596895Y-118722931D02*
X233596895Y-118608645D01*
X233596895Y-118608645D02*
X233634990Y-118551502D01*
X233634990Y-118551502D02*
X233711180Y-118494359D01*
X233711180Y-118494359D02*
X233863561Y-118465788D01*
X233863561Y-118465788D02*
X234130228Y-118465788D01*
X234130228Y-118465788D02*
X234282609Y-118494359D01*
X234282609Y-118494359D02*
X234358800Y-118551502D01*
X234358800Y-118551502D02*
X234396895Y-118608645D01*
X234396895Y-118608645D02*
X234396895Y-118722931D01*
X234396895Y-118722931D02*
X234358800Y-118780074D01*
X234358800Y-118780074D02*
X234282609Y-118837216D01*
X234282609Y-118837216D02*
X234130228Y-118865788D01*
X234130228Y-118865788D02*
X233863561Y-118865788D01*
X233863561Y-118865788D02*
X233711180Y-118837216D01*
X233711180Y-118837216D02*
X233634990Y-118780074D01*
X233634990Y-118780074D02*
X233596895Y-118722931D01*
X234396895Y-118208645D02*
X233596895Y-118208645D01*
X233596895Y-118208645D02*
X234168323Y-118008645D01*
X234168323Y-118008645D02*
X233596895Y-117808645D01*
X233596895Y-117808645D02*
X234396895Y-117808645D01*
X230396895Y-111551502D02*
X229596895Y-111551502D01*
X229596895Y-111551502D02*
X230396895Y-111208645D01*
X230396895Y-111208645D02*
X229596895Y-111208645D01*
X230320704Y-110580074D02*
X230358800Y-110608646D01*
X230358800Y-110608646D02*
X230396895Y-110694360D01*
X230396895Y-110694360D02*
X230396895Y-110751503D01*
X230396895Y-110751503D02*
X230358800Y-110837217D01*
X230358800Y-110837217D02*
X230282609Y-110894360D01*
X230282609Y-110894360D02*
X230206419Y-110922931D01*
X230206419Y-110922931D02*
X230054038Y-110951503D01*
X230054038Y-110951503D02*
X229939752Y-110951503D01*
X229939752Y-110951503D02*
X229787371Y-110922931D01*
X229787371Y-110922931D02*
X229711180Y-110894360D01*
X229711180Y-110894360D02*
X229634990Y-110837217D01*
X229634990Y-110837217D02*
X229596895Y-110751503D01*
X229596895Y-110751503D02*
X229596895Y-110694360D01*
X229596895Y-110694360D02*
X229634990Y-110608646D01*
X229634990Y-110608646D02*
X229673085Y-110580074D01*
X234396895Y-112830073D02*
X233596895Y-112830073D01*
X233596895Y-112830073D02*
X234396895Y-112487216D01*
X234396895Y-112487216D02*
X233596895Y-112487216D01*
X233596895Y-112087217D02*
X233596895Y-111972931D01*
X233596895Y-111972931D02*
X233634990Y-111915788D01*
X233634990Y-111915788D02*
X233711180Y-111858645D01*
X233711180Y-111858645D02*
X233863561Y-111830074D01*
X233863561Y-111830074D02*
X234130228Y-111830074D01*
X234130228Y-111830074D02*
X234282609Y-111858645D01*
X234282609Y-111858645D02*
X234358800Y-111915788D01*
X234358800Y-111915788D02*
X234396895Y-111972931D01*
X234396895Y-111972931D02*
X234396895Y-112087217D01*
X234396895Y-112087217D02*
X234358800Y-112144360D01*
X234358800Y-112144360D02*
X234282609Y-112201502D01*
X234282609Y-112201502D02*
X234130228Y-112230074D01*
X234130228Y-112230074D02*
X233863561Y-112230074D01*
X233863561Y-112230074D02*
X233711180Y-112201502D01*
X233711180Y-112201502D02*
X233634990Y-112144360D01*
X233634990Y-112144360D02*
X233596895Y-112087217D01*
D10*
X239499819Y-101833333D02*
X240214104Y-101833333D01*
X240214104Y-101833333D02*
X240356961Y-101880952D01*
X240356961Y-101880952D02*
X240452200Y-101976190D01*
X240452200Y-101976190D02*
X240499819Y-102119047D01*
X240499819Y-102119047D02*
X240499819Y-102214285D01*
X239833152Y-100928571D02*
X240499819Y-100928571D01*
X239452200Y-101166666D02*
X240166485Y-101404761D01*
X240166485Y-101404761D02*
X240166485Y-100785714D01*
X239166666Y-59714819D02*
X239166666Y-60429104D01*
X239166666Y-60429104D02*
X239119047Y-60571961D01*
X239119047Y-60571961D02*
X239023809Y-60667200D01*
X239023809Y-60667200D02*
X238880952Y-60714819D01*
X238880952Y-60714819D02*
X238785714Y-60714819D01*
X240166666Y-60714819D02*
X239595238Y-60714819D01*
X239880952Y-60714819D02*
X239880952Y-59714819D01*
X239880952Y-59714819D02*
X239785714Y-59857676D01*
X239785714Y-59857676D02*
X239690476Y-59952914D01*
X239690476Y-59952914D02*
X239595238Y-60000533D01*
X254261905Y-74454819D02*
X254261905Y-73454819D01*
X254261905Y-73454819D02*
X254500000Y-73454819D01*
X254500000Y-73454819D02*
X254642857Y-73502438D01*
X254642857Y-73502438D02*
X254738095Y-73597676D01*
X254738095Y-73597676D02*
X254785714Y-73692914D01*
X254785714Y-73692914D02*
X254833333Y-73883390D01*
X254833333Y-73883390D02*
X254833333Y-74026247D01*
X254833333Y-74026247D02*
X254785714Y-74216723D01*
X254785714Y-74216723D02*
X254738095Y-74311961D01*
X254738095Y-74311961D02*
X254642857Y-74407200D01*
X254642857Y-74407200D02*
X254500000Y-74454819D01*
X254500000Y-74454819D02*
X254261905Y-74454819D01*
X255690476Y-73788152D02*
X255690476Y-74454819D01*
X255452381Y-73407200D02*
X255214286Y-74121485D01*
X255214286Y-74121485D02*
X255833333Y-74121485D01*
X241658095Y-76854819D02*
X241658095Y-75854819D01*
X242229523Y-76854819D02*
X241800952Y-76283390D01*
X242229523Y-75854819D02*
X241658095Y-76426247D01*
X246753333Y-64584819D02*
X246420000Y-64108628D01*
X246181905Y-64584819D02*
X246181905Y-63584819D01*
X246181905Y-63584819D02*
X246562857Y-63584819D01*
X246562857Y-63584819D02*
X246658095Y-63632438D01*
X246658095Y-63632438D02*
X246705714Y-63680057D01*
X246705714Y-63680057D02*
X246753333Y-63775295D01*
X246753333Y-63775295D02*
X246753333Y-63918152D01*
X246753333Y-63918152D02*
X246705714Y-64013390D01*
X246705714Y-64013390D02*
X246658095Y-64061009D01*
X246658095Y-64061009D02*
X246562857Y-64108628D01*
X246562857Y-64108628D02*
X246181905Y-64108628D01*
X247134286Y-63680057D02*
X247181905Y-63632438D01*
X247181905Y-63632438D02*
X247277143Y-63584819D01*
X247277143Y-63584819D02*
X247515238Y-63584819D01*
X247515238Y-63584819D02*
X247610476Y-63632438D01*
X247610476Y-63632438D02*
X247658095Y-63680057D01*
X247658095Y-63680057D02*
X247705714Y-63775295D01*
X247705714Y-63775295D02*
X247705714Y-63870533D01*
X247705714Y-63870533D02*
X247658095Y-64013390D01*
X247658095Y-64013390D02*
X247086667Y-64584819D01*
X247086667Y-64584819D02*
X247705714Y-64584819D01*
X200824819Y-103166666D02*
X200348628Y-103499999D01*
X200824819Y-103738094D02*
X199824819Y-103738094D01*
X199824819Y-103738094D02*
X199824819Y-103357142D01*
X199824819Y-103357142D02*
X199872438Y-103261904D01*
X199872438Y-103261904D02*
X199920057Y-103214285D01*
X199920057Y-103214285D02*
X200015295Y-103166666D01*
X200015295Y-103166666D02*
X200158152Y-103166666D01*
X200158152Y-103166666D02*
X200253390Y-103214285D01*
X200253390Y-103214285D02*
X200301009Y-103261904D01*
X200301009Y-103261904D02*
X200348628Y-103357142D01*
X200348628Y-103357142D02*
X200348628Y-103738094D01*
X199824819Y-102833332D02*
X199824819Y-102166666D01*
X199824819Y-102166666D02*
X200824819Y-102595237D01*
X213494819Y-106008094D02*
X212494819Y-106008094D01*
X212494819Y-106008094D02*
X212494819Y-105769999D01*
X212494819Y-105769999D02*
X212542438Y-105627142D01*
X212542438Y-105627142D02*
X212637676Y-105531904D01*
X212637676Y-105531904D02*
X212732914Y-105484285D01*
X212732914Y-105484285D02*
X212923390Y-105436666D01*
X212923390Y-105436666D02*
X213066247Y-105436666D01*
X213066247Y-105436666D02*
X213256723Y-105484285D01*
X213256723Y-105484285D02*
X213351961Y-105531904D01*
X213351961Y-105531904D02*
X213447200Y-105627142D01*
X213447200Y-105627142D02*
X213494819Y-105769999D01*
X213494819Y-105769999D02*
X213494819Y-106008094D01*
X212494819Y-104579523D02*
X212494819Y-104769999D01*
X212494819Y-104769999D02*
X212542438Y-104865237D01*
X212542438Y-104865237D02*
X212590057Y-104912856D01*
X212590057Y-104912856D02*
X212732914Y-105008094D01*
X212732914Y-105008094D02*
X212923390Y-105055713D01*
X212923390Y-105055713D02*
X213304342Y-105055713D01*
X213304342Y-105055713D02*
X213399580Y-105008094D01*
X213399580Y-105008094D02*
X213447200Y-104960475D01*
X213447200Y-104960475D02*
X213494819Y-104865237D01*
X213494819Y-104865237D02*
X213494819Y-104674761D01*
X213494819Y-104674761D02*
X213447200Y-104579523D01*
X213447200Y-104579523D02*
X213399580Y-104531904D01*
X213399580Y-104531904D02*
X213304342Y-104484285D01*
X213304342Y-104484285D02*
X213066247Y-104484285D01*
X213066247Y-104484285D02*
X212971009Y-104531904D01*
X212971009Y-104531904D02*
X212923390Y-104579523D01*
X212923390Y-104579523D02*
X212875771Y-104674761D01*
X212875771Y-104674761D02*
X212875771Y-104865237D01*
X212875771Y-104865237D02*
X212923390Y-104960475D01*
X212923390Y-104960475D02*
X212971009Y-105008094D01*
X212971009Y-105008094D02*
X213066247Y-105055713D01*
X239694819Y-127833333D02*
X240409104Y-127833333D01*
X240409104Y-127833333D02*
X240551961Y-127880952D01*
X240551961Y-127880952D02*
X240647200Y-127976190D01*
X240647200Y-127976190D02*
X240694819Y-128119047D01*
X240694819Y-128119047D02*
X240694819Y-128214285D01*
X239790057Y-127404761D02*
X239742438Y-127357142D01*
X239742438Y-127357142D02*
X239694819Y-127261904D01*
X239694819Y-127261904D02*
X239694819Y-127023809D01*
X239694819Y-127023809D02*
X239742438Y-126928571D01*
X239742438Y-126928571D02*
X239790057Y-126880952D01*
X239790057Y-126880952D02*
X239885295Y-126833333D01*
X239885295Y-126833333D02*
X239980533Y-126833333D01*
X239980533Y-126833333D02*
X240123390Y-126880952D01*
X240123390Y-126880952D02*
X240694819Y-127452380D01*
X240694819Y-127452380D02*
X240694819Y-126833333D01*
X254261905Y-79454819D02*
X254261905Y-78454819D01*
X254261905Y-78454819D02*
X254500000Y-78454819D01*
X254500000Y-78454819D02*
X254642857Y-78502438D01*
X254642857Y-78502438D02*
X254738095Y-78597676D01*
X254738095Y-78597676D02*
X254785714Y-78692914D01*
X254785714Y-78692914D02*
X254833333Y-78883390D01*
X254833333Y-78883390D02*
X254833333Y-79026247D01*
X254833333Y-79026247D02*
X254785714Y-79216723D01*
X254785714Y-79216723D02*
X254738095Y-79311961D01*
X254738095Y-79311961D02*
X254642857Y-79407200D01*
X254642857Y-79407200D02*
X254500000Y-79454819D01*
X254500000Y-79454819D02*
X254261905Y-79454819D01*
X255214286Y-78550057D02*
X255261905Y-78502438D01*
X255261905Y-78502438D02*
X255357143Y-78454819D01*
X255357143Y-78454819D02*
X255595238Y-78454819D01*
X255595238Y-78454819D02*
X255690476Y-78502438D01*
X255690476Y-78502438D02*
X255738095Y-78550057D01*
X255738095Y-78550057D02*
X255785714Y-78645295D01*
X255785714Y-78645295D02*
X255785714Y-78740533D01*
X255785714Y-78740533D02*
X255738095Y-78883390D01*
X255738095Y-78883390D02*
X255166667Y-79454819D01*
X255166667Y-79454819D02*
X255785714Y-79454819D01*
X251818095Y-76554819D02*
X251818095Y-75554819D01*
X252389523Y-76554819D02*
X251960952Y-75983390D01*
X252389523Y-75554819D02*
X251818095Y-76126247D01*
D12*
X218457419Y-97738094D02*
X217457419Y-97738094D01*
X218457419Y-97166666D02*
X217885990Y-97595237D01*
X217457419Y-97166666D02*
X218028847Y-97738094D01*
X217552657Y-96785713D02*
X217505038Y-96738094D01*
X217505038Y-96738094D02*
X217457419Y-96642856D01*
X217457419Y-96642856D02*
X217457419Y-96404761D01*
X217457419Y-96404761D02*
X217505038Y-96309523D01*
X217505038Y-96309523D02*
X217552657Y-96261904D01*
X217552657Y-96261904D02*
X217647895Y-96214285D01*
X217647895Y-96214285D02*
X217743133Y-96214285D01*
X217743133Y-96214285D02*
X217885990Y-96261904D01*
X217885990Y-96261904D02*
X218457419Y-96833332D01*
X218457419Y-96833332D02*
X218457419Y-96214285D01*
X234320704Y-106294359D02*
X234358800Y-106322931D01*
X234358800Y-106322931D02*
X234396895Y-106408645D01*
X234396895Y-106408645D02*
X234396895Y-106465788D01*
X234396895Y-106465788D02*
X234358800Y-106551502D01*
X234358800Y-106551502D02*
X234282609Y-106608645D01*
X234282609Y-106608645D02*
X234206419Y-106637216D01*
X234206419Y-106637216D02*
X234054038Y-106665788D01*
X234054038Y-106665788D02*
X233939752Y-106665788D01*
X233939752Y-106665788D02*
X233787371Y-106637216D01*
X233787371Y-106637216D02*
X233711180Y-106608645D01*
X233711180Y-106608645D02*
X233634990Y-106551502D01*
X233634990Y-106551502D02*
X233596895Y-106465788D01*
X233596895Y-106465788D02*
X233596895Y-106408645D01*
X233596895Y-106408645D02*
X233634990Y-106322931D01*
X233634990Y-106322931D02*
X233673085Y-106294359D01*
X233596895Y-105922931D02*
X233596895Y-105808645D01*
X233596895Y-105808645D02*
X233634990Y-105751502D01*
X233634990Y-105751502D02*
X233711180Y-105694359D01*
X233711180Y-105694359D02*
X233863561Y-105665788D01*
X233863561Y-105665788D02*
X234130228Y-105665788D01*
X234130228Y-105665788D02*
X234282609Y-105694359D01*
X234282609Y-105694359D02*
X234358800Y-105751502D01*
X234358800Y-105751502D02*
X234396895Y-105808645D01*
X234396895Y-105808645D02*
X234396895Y-105922931D01*
X234396895Y-105922931D02*
X234358800Y-105980074D01*
X234358800Y-105980074D02*
X234282609Y-106037216D01*
X234282609Y-106037216D02*
X234130228Y-106065788D01*
X234130228Y-106065788D02*
X233863561Y-106065788D01*
X233863561Y-106065788D02*
X233711180Y-106037216D01*
X233711180Y-106037216D02*
X233634990Y-105980074D01*
X233634990Y-105980074D02*
X233596895Y-105922931D01*
X234396895Y-105408645D02*
X233596895Y-105408645D01*
X233596895Y-105408645D02*
X234168323Y-105208645D01*
X234168323Y-105208645D02*
X233596895Y-105008645D01*
X233596895Y-105008645D02*
X234396895Y-105008645D01*
X230396895Y-98651502D02*
X229596895Y-98651502D01*
X229596895Y-98651502D02*
X230396895Y-98308645D01*
X230396895Y-98308645D02*
X229596895Y-98308645D01*
X230320704Y-97680074D02*
X230358800Y-97708646D01*
X230358800Y-97708646D02*
X230396895Y-97794360D01*
X230396895Y-97794360D02*
X230396895Y-97851503D01*
X230396895Y-97851503D02*
X230358800Y-97937217D01*
X230358800Y-97937217D02*
X230282609Y-97994360D01*
X230282609Y-97994360D02*
X230206419Y-98022931D01*
X230206419Y-98022931D02*
X230054038Y-98051503D01*
X230054038Y-98051503D02*
X229939752Y-98051503D01*
X229939752Y-98051503D02*
X229787371Y-98022931D01*
X229787371Y-98022931D02*
X229711180Y-97994360D01*
X229711180Y-97994360D02*
X229634990Y-97937217D01*
X229634990Y-97937217D02*
X229596895Y-97851503D01*
X229596895Y-97851503D02*
X229596895Y-97794360D01*
X229596895Y-97794360D02*
X229634990Y-97708646D01*
X229634990Y-97708646D02*
X229673085Y-97680074D01*
X234396895Y-100030073D02*
X233596895Y-100030073D01*
X233596895Y-100030073D02*
X234396895Y-99687216D01*
X234396895Y-99687216D02*
X233596895Y-99687216D01*
X233596895Y-99287217D02*
X233596895Y-99172931D01*
X233596895Y-99172931D02*
X233634990Y-99115788D01*
X233634990Y-99115788D02*
X233711180Y-99058645D01*
X233711180Y-99058645D02*
X233863561Y-99030074D01*
X233863561Y-99030074D02*
X234130228Y-99030074D01*
X234130228Y-99030074D02*
X234282609Y-99058645D01*
X234282609Y-99058645D02*
X234358800Y-99115788D01*
X234358800Y-99115788D02*
X234396895Y-99172931D01*
X234396895Y-99172931D02*
X234396895Y-99287217D01*
X234396895Y-99287217D02*
X234358800Y-99344360D01*
X234358800Y-99344360D02*
X234282609Y-99401502D01*
X234282609Y-99401502D02*
X234130228Y-99430074D01*
X234130228Y-99430074D02*
X233863561Y-99430074D01*
X233863561Y-99430074D02*
X233711180Y-99401502D01*
X233711180Y-99401502D02*
X233634990Y-99344360D01*
X233634990Y-99344360D02*
X233596895Y-99287217D01*
D10*
X188904761Y-132350057D02*
X188809523Y-132302438D01*
X188809523Y-132302438D02*
X188714285Y-132207200D01*
X188714285Y-132207200D02*
X188571428Y-132064342D01*
X188571428Y-132064342D02*
X188476190Y-132016723D01*
X188476190Y-132016723D02*
X188380952Y-132016723D01*
X188428571Y-132254819D02*
X188333333Y-132207200D01*
X188333333Y-132207200D02*
X188238095Y-132111961D01*
X188238095Y-132111961D02*
X188190476Y-131921485D01*
X188190476Y-131921485D02*
X188190476Y-131588152D01*
X188190476Y-131588152D02*
X188238095Y-131397676D01*
X188238095Y-131397676D02*
X188333333Y-131302438D01*
X188333333Y-131302438D02*
X188428571Y-131254819D01*
X188428571Y-131254819D02*
X188619047Y-131254819D01*
X188619047Y-131254819D02*
X188714285Y-131302438D01*
X188714285Y-131302438D02*
X188809523Y-131397676D01*
X188809523Y-131397676D02*
X188857142Y-131588152D01*
X188857142Y-131588152D02*
X188857142Y-131921485D01*
X188857142Y-131921485D02*
X188809523Y-132111961D01*
X188809523Y-132111961D02*
X188714285Y-132207200D01*
X188714285Y-132207200D02*
X188619047Y-132254819D01*
X188619047Y-132254819D02*
X188428571Y-132254819D01*
X189714285Y-131588152D02*
X189714285Y-132254819D01*
X189476190Y-131207200D02*
X189238095Y-131921485D01*
X189238095Y-131921485D02*
X189857142Y-131921485D01*
X179346905Y-138414819D02*
X179346905Y-137414819D01*
X179346905Y-137414819D02*
X179585000Y-137414819D01*
X179585000Y-137414819D02*
X179727857Y-137462438D01*
X179727857Y-137462438D02*
X179823095Y-137557676D01*
X179823095Y-137557676D02*
X179870714Y-137652914D01*
X179870714Y-137652914D02*
X179918333Y-137843390D01*
X179918333Y-137843390D02*
X179918333Y-137986247D01*
X179918333Y-137986247D02*
X179870714Y-138176723D01*
X179870714Y-138176723D02*
X179823095Y-138271961D01*
X179823095Y-138271961D02*
X179727857Y-138367200D01*
X179727857Y-138367200D02*
X179585000Y-138414819D01*
X179585000Y-138414819D02*
X179346905Y-138414819D01*
X180394524Y-138414819D02*
X180585000Y-138414819D01*
X180585000Y-138414819D02*
X180680238Y-138367200D01*
X180680238Y-138367200D02*
X180727857Y-138319580D01*
X180727857Y-138319580D02*
X180823095Y-138176723D01*
X180823095Y-138176723D02*
X180870714Y-137986247D01*
X180870714Y-137986247D02*
X180870714Y-137605295D01*
X180870714Y-137605295D02*
X180823095Y-137510057D01*
X180823095Y-137510057D02*
X180775476Y-137462438D01*
X180775476Y-137462438D02*
X180680238Y-137414819D01*
X180680238Y-137414819D02*
X180489762Y-137414819D01*
X180489762Y-137414819D02*
X180394524Y-137462438D01*
X180394524Y-137462438D02*
X180346905Y-137510057D01*
X180346905Y-137510057D02*
X180299286Y-137605295D01*
X180299286Y-137605295D02*
X180299286Y-137843390D01*
X180299286Y-137843390D02*
X180346905Y-137938628D01*
X180346905Y-137938628D02*
X180394524Y-137986247D01*
X180394524Y-137986247D02*
X180489762Y-138033866D01*
X180489762Y-138033866D02*
X180680238Y-138033866D01*
X180680238Y-138033866D02*
X180775476Y-137986247D01*
X180775476Y-137986247D02*
X180823095Y-137938628D01*
X180823095Y-137938628D02*
X180870714Y-137843390D01*
X206324819Y-103166666D02*
X205848628Y-103499999D01*
X206324819Y-103738094D02*
X205324819Y-103738094D01*
X205324819Y-103738094D02*
X205324819Y-103357142D01*
X205324819Y-103357142D02*
X205372438Y-103261904D01*
X205372438Y-103261904D02*
X205420057Y-103214285D01*
X205420057Y-103214285D02*
X205515295Y-103166666D01*
X205515295Y-103166666D02*
X205658152Y-103166666D01*
X205658152Y-103166666D02*
X205753390Y-103214285D01*
X205753390Y-103214285D02*
X205801009Y-103261904D01*
X205801009Y-103261904D02*
X205848628Y-103357142D01*
X205848628Y-103357142D02*
X205848628Y-103738094D01*
X205753390Y-102595237D02*
X205705771Y-102690475D01*
X205705771Y-102690475D02*
X205658152Y-102738094D01*
X205658152Y-102738094D02*
X205562914Y-102785713D01*
X205562914Y-102785713D02*
X205515295Y-102785713D01*
X205515295Y-102785713D02*
X205420057Y-102738094D01*
X205420057Y-102738094D02*
X205372438Y-102690475D01*
X205372438Y-102690475D02*
X205324819Y-102595237D01*
X205324819Y-102595237D02*
X205324819Y-102404761D01*
X205324819Y-102404761D02*
X205372438Y-102309523D01*
X205372438Y-102309523D02*
X205420057Y-102261904D01*
X205420057Y-102261904D02*
X205515295Y-102214285D01*
X205515295Y-102214285D02*
X205562914Y-102214285D01*
X205562914Y-102214285D02*
X205658152Y-102261904D01*
X205658152Y-102261904D02*
X205705771Y-102309523D01*
X205705771Y-102309523D02*
X205753390Y-102404761D01*
X205753390Y-102404761D02*
X205753390Y-102595237D01*
X205753390Y-102595237D02*
X205801009Y-102690475D01*
X205801009Y-102690475D02*
X205848628Y-102738094D01*
X205848628Y-102738094D02*
X205943866Y-102785713D01*
X205943866Y-102785713D02*
X206134342Y-102785713D01*
X206134342Y-102785713D02*
X206229580Y-102738094D01*
X206229580Y-102738094D02*
X206277200Y-102690475D01*
X206277200Y-102690475D02*
X206324819Y-102595237D01*
X206324819Y-102595237D02*
X206324819Y-102404761D01*
X206324819Y-102404761D02*
X206277200Y-102309523D01*
X206277200Y-102309523D02*
X206229580Y-102261904D01*
X206229580Y-102261904D02*
X206134342Y-102214285D01*
X206134342Y-102214285D02*
X205943866Y-102214285D01*
X205943866Y-102214285D02*
X205848628Y-102261904D01*
X205848628Y-102261904D02*
X205801009Y-102309523D01*
X205801009Y-102309523D02*
X205753390Y-102404761D01*
X217728095Y-142309819D02*
X217728095Y-143119342D01*
X217728095Y-143119342D02*
X217775714Y-143214580D01*
X217775714Y-143214580D02*
X217823333Y-143262200D01*
X217823333Y-143262200D02*
X217918571Y-143309819D01*
X217918571Y-143309819D02*
X218109047Y-143309819D01*
X218109047Y-143309819D02*
X218204285Y-143262200D01*
X218204285Y-143262200D02*
X218251904Y-143214580D01*
X218251904Y-143214580D02*
X218299523Y-143119342D01*
X218299523Y-143119342D02*
X218299523Y-142309819D01*
X218680476Y-142309819D02*
X219299523Y-142309819D01*
X219299523Y-142309819D02*
X218966190Y-142690771D01*
X218966190Y-142690771D02*
X219109047Y-142690771D01*
X219109047Y-142690771D02*
X219204285Y-142738390D01*
X219204285Y-142738390D02*
X219251904Y-142786009D01*
X219251904Y-142786009D02*
X219299523Y-142881247D01*
X219299523Y-142881247D02*
X219299523Y-143119342D01*
X219299523Y-143119342D02*
X219251904Y-143214580D01*
X219251904Y-143214580D02*
X219204285Y-143262200D01*
X219204285Y-143262200D02*
X219109047Y-143309819D01*
X219109047Y-143309819D02*
X218823333Y-143309819D01*
X218823333Y-143309819D02*
X218728095Y-143262200D01*
X218728095Y-143262200D02*
X218680476Y-143214580D01*
X222761905Y-91334819D02*
X222761905Y-90334819D01*
X222761905Y-90334819D02*
X223000000Y-90334819D01*
X223000000Y-90334819D02*
X223142857Y-90382438D01*
X223142857Y-90382438D02*
X223238095Y-90477676D01*
X223238095Y-90477676D02*
X223285714Y-90572914D01*
X223285714Y-90572914D02*
X223333333Y-90763390D01*
X223333333Y-90763390D02*
X223333333Y-90906247D01*
X223333333Y-90906247D02*
X223285714Y-91096723D01*
X223285714Y-91096723D02*
X223238095Y-91191961D01*
X223238095Y-91191961D02*
X223142857Y-91287200D01*
X223142857Y-91287200D02*
X223000000Y-91334819D01*
X223000000Y-91334819D02*
X222761905Y-91334819D01*
X223904762Y-90763390D02*
X223809524Y-90715771D01*
X223809524Y-90715771D02*
X223761905Y-90668152D01*
X223761905Y-90668152D02*
X223714286Y-90572914D01*
X223714286Y-90572914D02*
X223714286Y-90525295D01*
X223714286Y-90525295D02*
X223761905Y-90430057D01*
X223761905Y-90430057D02*
X223809524Y-90382438D01*
X223809524Y-90382438D02*
X223904762Y-90334819D01*
X223904762Y-90334819D02*
X224095238Y-90334819D01*
X224095238Y-90334819D02*
X224190476Y-90382438D01*
X224190476Y-90382438D02*
X224238095Y-90430057D01*
X224238095Y-90430057D02*
X224285714Y-90525295D01*
X224285714Y-90525295D02*
X224285714Y-90572914D01*
X224285714Y-90572914D02*
X224238095Y-90668152D01*
X224238095Y-90668152D02*
X224190476Y-90715771D01*
X224190476Y-90715771D02*
X224095238Y-90763390D01*
X224095238Y-90763390D02*
X223904762Y-90763390D01*
X223904762Y-90763390D02*
X223809524Y-90811009D01*
X223809524Y-90811009D02*
X223761905Y-90858628D01*
X223761905Y-90858628D02*
X223714286Y-90953866D01*
X223714286Y-90953866D02*
X223714286Y-91144342D01*
X223714286Y-91144342D02*
X223761905Y-91239580D01*
X223761905Y-91239580D02*
X223809524Y-91287200D01*
X223809524Y-91287200D02*
X223904762Y-91334819D01*
X223904762Y-91334819D02*
X224095238Y-91334819D01*
X224095238Y-91334819D02*
X224190476Y-91287200D01*
X224190476Y-91287200D02*
X224238095Y-91239580D01*
X224238095Y-91239580D02*
X224285714Y-91144342D01*
X224285714Y-91144342D02*
X224285714Y-90953866D01*
X224285714Y-90953866D02*
X224238095Y-90858628D01*
X224238095Y-90858628D02*
X224190476Y-90811009D01*
X224190476Y-90811009D02*
X224095238Y-90763390D01*
X219428095Y-91654819D02*
X219428095Y-90654819D01*
X219999523Y-91654819D02*
X219570952Y-91083390D01*
X219999523Y-90654819D02*
X219428095Y-91226247D01*
X186275714Y-98789104D02*
X186751904Y-98789104D01*
X186180476Y-99074819D02*
X186513809Y-98074819D01*
X186513809Y-98074819D02*
X186847142Y-99074819D01*
X187704285Y-99074819D02*
X187132857Y-99074819D01*
X187418571Y-99074819D02*
X187418571Y-98074819D01*
X187418571Y-98074819D02*
X187323333Y-98217676D01*
X187323333Y-98217676D02*
X187228095Y-98312914D01*
X187228095Y-98312914D02*
X187132857Y-98360533D01*
X188251904Y-58525180D02*
X188251904Y-57715657D01*
X188251904Y-57715657D02*
X188204285Y-57620419D01*
X188204285Y-57620419D02*
X188156666Y-57572800D01*
X188156666Y-57572800D02*
X188061428Y-57525180D01*
X188061428Y-57525180D02*
X187870952Y-57525180D01*
X187870952Y-57525180D02*
X187775714Y-57572800D01*
X187775714Y-57572800D02*
X187728095Y-57620419D01*
X187728095Y-57620419D02*
X187680476Y-57715657D01*
X187680476Y-57715657D02*
X187680476Y-58525180D01*
X187251904Y-57572800D02*
X187109047Y-57525180D01*
X187109047Y-57525180D02*
X186870952Y-57525180D01*
X186870952Y-57525180D02*
X186775714Y-57572800D01*
X186775714Y-57572800D02*
X186728095Y-57620419D01*
X186728095Y-57620419D02*
X186680476Y-57715657D01*
X186680476Y-57715657D02*
X186680476Y-57810895D01*
X186680476Y-57810895D02*
X186728095Y-57906133D01*
X186728095Y-57906133D02*
X186775714Y-57953752D01*
X186775714Y-57953752D02*
X186870952Y-58001371D01*
X186870952Y-58001371D02*
X187061428Y-58048990D01*
X187061428Y-58048990D02*
X187156666Y-58096609D01*
X187156666Y-58096609D02*
X187204285Y-58144228D01*
X187204285Y-58144228D02*
X187251904Y-58239466D01*
X187251904Y-58239466D02*
X187251904Y-58334704D01*
X187251904Y-58334704D02*
X187204285Y-58429942D01*
X187204285Y-58429942D02*
X187156666Y-58477561D01*
X187156666Y-58477561D02*
X187061428Y-58525180D01*
X187061428Y-58525180D02*
X186823333Y-58525180D01*
X186823333Y-58525180D02*
X186680476Y-58477561D01*
X185918571Y-58048990D02*
X185775714Y-58001371D01*
X185775714Y-58001371D02*
X185728095Y-57953752D01*
X185728095Y-57953752D02*
X185680476Y-57858514D01*
X185680476Y-57858514D02*
X185680476Y-57715657D01*
X185680476Y-57715657D02*
X185728095Y-57620419D01*
X185728095Y-57620419D02*
X185775714Y-57572800D01*
X185775714Y-57572800D02*
X185870952Y-57525180D01*
X185870952Y-57525180D02*
X186251904Y-57525180D01*
X186251904Y-57525180D02*
X186251904Y-58525180D01*
X186251904Y-58525180D02*
X185918571Y-58525180D01*
X185918571Y-58525180D02*
X185823333Y-58477561D01*
X185823333Y-58477561D02*
X185775714Y-58429942D01*
X185775714Y-58429942D02*
X185728095Y-58334704D01*
X185728095Y-58334704D02*
X185728095Y-58239466D01*
X185728095Y-58239466D02*
X185775714Y-58144228D01*
X185775714Y-58144228D02*
X185823333Y-58096609D01*
X185823333Y-58096609D02*
X185918571Y-58048990D01*
X185918571Y-58048990D02*
X186251904Y-58048990D01*
X200824819Y-119166666D02*
X200348628Y-119499999D01*
X200824819Y-119738094D02*
X199824819Y-119738094D01*
X199824819Y-119738094D02*
X199824819Y-119357142D01*
X199824819Y-119357142D02*
X199872438Y-119261904D01*
X199872438Y-119261904D02*
X199920057Y-119214285D01*
X199920057Y-119214285D02*
X200015295Y-119166666D01*
X200015295Y-119166666D02*
X200158152Y-119166666D01*
X200158152Y-119166666D02*
X200253390Y-119214285D01*
X200253390Y-119214285D02*
X200301009Y-119261904D01*
X200301009Y-119261904D02*
X200348628Y-119357142D01*
X200348628Y-119357142D02*
X200348628Y-119738094D01*
X200158152Y-118309523D02*
X200824819Y-118309523D01*
X199777200Y-118547618D02*
X200491485Y-118785713D01*
X200491485Y-118785713D02*
X200491485Y-118166666D01*
X222833333Y-126084819D02*
X222500000Y-125608628D01*
X222261905Y-126084819D02*
X222261905Y-125084819D01*
X222261905Y-125084819D02*
X222642857Y-125084819D01*
X222642857Y-125084819D02*
X222738095Y-125132438D01*
X222738095Y-125132438D02*
X222785714Y-125180057D01*
X222785714Y-125180057D02*
X222833333Y-125275295D01*
X222833333Y-125275295D02*
X222833333Y-125418152D01*
X222833333Y-125418152D02*
X222785714Y-125513390D01*
X222785714Y-125513390D02*
X222738095Y-125561009D01*
X222738095Y-125561009D02*
X222642857Y-125608628D01*
X222642857Y-125608628D02*
X222261905Y-125608628D01*
X223309524Y-126084819D02*
X223500000Y-126084819D01*
X223500000Y-126084819D02*
X223595238Y-126037200D01*
X223595238Y-126037200D02*
X223642857Y-125989580D01*
X223642857Y-125989580D02*
X223738095Y-125846723D01*
X223738095Y-125846723D02*
X223785714Y-125656247D01*
X223785714Y-125656247D02*
X223785714Y-125275295D01*
X223785714Y-125275295D02*
X223738095Y-125180057D01*
X223738095Y-125180057D02*
X223690476Y-125132438D01*
X223690476Y-125132438D02*
X223595238Y-125084819D01*
X223595238Y-125084819D02*
X223404762Y-125084819D01*
X223404762Y-125084819D02*
X223309524Y-125132438D01*
X223309524Y-125132438D02*
X223261905Y-125180057D01*
X223261905Y-125180057D02*
X223214286Y-125275295D01*
X223214286Y-125275295D02*
X223214286Y-125513390D01*
X223214286Y-125513390D02*
X223261905Y-125608628D01*
X223261905Y-125608628D02*
X223309524Y-125656247D01*
X223309524Y-125656247D02*
X223404762Y-125703866D01*
X223404762Y-125703866D02*
X223595238Y-125703866D01*
X223595238Y-125703866D02*
X223690476Y-125656247D01*
X223690476Y-125656247D02*
X223738095Y-125608628D01*
X223738095Y-125608628D02*
X223785714Y-125513390D01*
X229728095Y-88059819D02*
X229728095Y-88869342D01*
X229728095Y-88869342D02*
X229775714Y-88964580D01*
X229775714Y-88964580D02*
X229823333Y-89012200D01*
X229823333Y-89012200D02*
X229918571Y-89059819D01*
X229918571Y-89059819D02*
X230109047Y-89059819D01*
X230109047Y-89059819D02*
X230204285Y-89012200D01*
X230204285Y-89012200D02*
X230251904Y-88964580D01*
X230251904Y-88964580D02*
X230299523Y-88869342D01*
X230299523Y-88869342D02*
X230299523Y-88059819D01*
X231299523Y-89059819D02*
X230728095Y-89059819D01*
X231013809Y-89059819D02*
X231013809Y-88059819D01*
X231013809Y-88059819D02*
X230918571Y-88202676D01*
X230918571Y-88202676D02*
X230823333Y-88297914D01*
X230823333Y-88297914D02*
X230728095Y-88345533D01*
X215261905Y-121454819D02*
X215261905Y-120454819D01*
X215261905Y-120454819D02*
X215500000Y-120454819D01*
X215500000Y-120454819D02*
X215642857Y-120502438D01*
X215642857Y-120502438D02*
X215738095Y-120597676D01*
X215738095Y-120597676D02*
X215785714Y-120692914D01*
X215785714Y-120692914D02*
X215833333Y-120883390D01*
X215833333Y-120883390D02*
X215833333Y-121026247D01*
X215833333Y-121026247D02*
X215785714Y-121216723D01*
X215785714Y-121216723D02*
X215738095Y-121311961D01*
X215738095Y-121311961D02*
X215642857Y-121407200D01*
X215642857Y-121407200D02*
X215500000Y-121454819D01*
X215500000Y-121454819D02*
X215261905Y-121454819D01*
X216738095Y-120454819D02*
X216261905Y-120454819D01*
X216261905Y-120454819D02*
X216214286Y-120931009D01*
X216214286Y-120931009D02*
X216261905Y-120883390D01*
X216261905Y-120883390D02*
X216357143Y-120835771D01*
X216357143Y-120835771D02*
X216595238Y-120835771D01*
X216595238Y-120835771D02*
X216690476Y-120883390D01*
X216690476Y-120883390D02*
X216738095Y-120931009D01*
X216738095Y-120931009D02*
X216785714Y-121026247D01*
X216785714Y-121026247D02*
X216785714Y-121264342D01*
X216785714Y-121264342D02*
X216738095Y-121359580D01*
X216738095Y-121359580D02*
X216690476Y-121407200D01*
X216690476Y-121407200D02*
X216595238Y-121454819D01*
X216595238Y-121454819D02*
X216357143Y-121454819D01*
X216357143Y-121454819D02*
X216261905Y-121407200D01*
X216261905Y-121407200D02*
X216214286Y-121359580D01*
D13*
%TO.C,D3*%
X228260000Y-78500000D02*
X229280000Y-78500000D01*
X229280000Y-77030000D02*
X229280000Y-79970000D01*
X229280000Y-79970000D02*
X234720000Y-79970000D01*
X233700000Y-79970000D02*
X233700000Y-77030000D01*
X233820000Y-79970000D02*
X233820000Y-77030000D01*
X233940000Y-79970000D02*
X233940000Y-77030000D01*
X234720000Y-77030000D02*
X229280000Y-77030000D01*
X234720000Y-79970000D02*
X234720000Y-77030000D01*
X235740000Y-78500000D02*
X234720000Y-78500000D01*
%TO.C,R10*%
X187710000Y-120730000D02*
X187710000Y-127270000D01*
X187710000Y-127270000D02*
X190450000Y-127270000D01*
X189080000Y-119960000D02*
X189080000Y-120730000D01*
X189080000Y-128040000D02*
X189080000Y-127270000D01*
X190450000Y-120730000D02*
X187710000Y-120730000D01*
X190450000Y-127270000D02*
X190450000Y-120730000D01*
%TO.C,J3*%
X241239000Y-109440000D02*
X251160000Y-109440000D01*
X241239000Y-119560000D02*
X241239000Y-109440000D01*
X241239000Y-119560000D02*
X251160000Y-119560000D01*
X244199000Y-119560000D02*
X244199000Y-109440000D01*
X245225000Y-110930000D02*
X245261000Y-110965000D01*
X245431000Y-110725000D02*
X245477000Y-110772000D01*
X247523000Y-113227000D02*
X247569000Y-113274000D01*
X247739000Y-113034000D02*
X247774000Y-113069000D01*
X249100000Y-119560000D02*
X249100000Y-109440000D01*
X250600000Y-119560000D02*
X250600000Y-109440000D01*
X250660000Y-119800000D02*
X251400000Y-119800000D01*
X251160000Y-119560000D02*
X251160000Y-109440000D01*
X251400000Y-119800000D02*
X251400000Y-119300000D01*
X244964573Y-117683042D02*
G75*
G02*
X244965000Y-116316000I1535420J683041D01*
G01*
X245816958Y-115464573D02*
G75*
G02*
X247184000Y-115465000I683042J-1535427D01*
G01*
X247183042Y-118535427D02*
G75*
G02*
X245816000Y-118535000I-683041J1535420D01*
G01*
X248034756Y-116316682D02*
G75*
G02*
X248180000Y-117000000I-1534756J-683318D01*
G01*
X248180253Y-116971195D02*
G75*
G02*
X248035000Y-117684000I-1680254J-28806D01*
G01*
X248180000Y-112000000D02*
G75*
G02*
X244820000Y-112000000I-1680000J0D01*
G01*
X244820000Y-112000000D02*
G75*
G02*
X248180000Y-112000000I1680000J0D01*
G01*
%TO.C,D1*%
X228260000Y-74000000D02*
X229280000Y-74000000D01*
X229280000Y-72530000D02*
X229280000Y-75470000D01*
X229280000Y-75470000D02*
X234720000Y-75470000D01*
X230060000Y-72530000D02*
X230060000Y-75470000D01*
X230180000Y-72530000D02*
X230180000Y-75470000D01*
X230300000Y-72530000D02*
X230300000Y-75470000D01*
X234720000Y-72530000D02*
X229280000Y-72530000D01*
X234720000Y-75470000D02*
X234720000Y-72530000D01*
X235740000Y-74000000D02*
X234720000Y-74000000D01*
%TO.C,R5*%
X197460000Y-140500000D02*
X198230000Y-140500000D01*
X198230000Y-139130000D02*
X198230000Y-141870000D01*
X198230000Y-141870000D02*
X204770000Y-141870000D01*
X204770000Y-139130000D02*
X198230000Y-139130000D01*
X204770000Y-141870000D02*
X204770000Y-139130000D01*
X205540000Y-140500000D02*
X204770000Y-140500000D01*
%TO.C,R1*%
X227460000Y-66500000D02*
X228230000Y-66500000D01*
X228230000Y-65130000D02*
X228230000Y-67870000D01*
X228230000Y-67870000D02*
X234770000Y-67870000D01*
X234770000Y-65130000D02*
X228230000Y-65130000D01*
X234770000Y-67870000D02*
X234770000Y-65130000D01*
X235540000Y-66500000D02*
X234770000Y-66500000D01*
%TO.C,Q1*%
X208150000Y-114740000D02*
X208150000Y-118340000D01*
X208150000Y-114740000D02*
G75*
G02*
X208877205Y-114215816I1850000J-1800000D01*
G01*
X208877205Y-118864184D02*
G75*
G02*
X208150000Y-118340000I1122795J2324184D01*
G01*
X211098807Y-114183600D02*
G75*
G02*
X212600000Y-116540000I-1098807J-2356400D01*
G01*
X212600000Y-116540000D02*
G75*
G02*
X211098807Y-118896400I-2600000J0D01*
G01*
%TO.C,Q2*%
X212850000Y-97800000D02*
X212850000Y-94200000D01*
X208400000Y-96000000D02*
G75*
G02*
X209901193Y-93643600I2600000J0D01*
G01*
X209901193Y-98356400D02*
G75*
G02*
X208400000Y-96000000I1098807J2356400D01*
G01*
X212122795Y-93675816D02*
G75*
G02*
X212850000Y-94200000I-1122795J-2324184D01*
G01*
X212850000Y-97800000D02*
G75*
G02*
X212122795Y-98324184I-1850000J1800000D01*
G01*
%TO.C,SW2*%
X178230000Y-100030000D02*
X178230000Y-99030000D01*
X178480000Y-108720000D02*
X178480000Y-99280000D01*
X179230000Y-99030000D02*
X178230000Y-99030000D01*
X181800000Y-102300000D02*
X181800000Y-105600000D01*
X185100000Y-102300000D02*
X181800000Y-102300000D01*
X185100000Y-102300000D02*
X185100000Y-105600000D01*
X185100000Y-105600000D02*
X181800000Y-105600000D01*
X188520000Y-99280000D02*
X178480000Y-99280000D01*
X188520000Y-108720000D02*
X178480000Y-108720000D01*
X188520000Y-108720000D02*
X188520000Y-99280000D01*
%TO.C,Q3*%
X227340000Y-144270000D02*
X227340000Y-139629000D01*
X230609000Y-144270000D02*
X230609000Y-142760000D01*
X234310000Y-144270000D02*
X234310000Y-142760000D01*
X237580000Y-139629000D02*
X227340000Y-139629000D01*
X237580000Y-142760000D02*
X227340000Y-142760000D01*
X237580000Y-144270000D02*
X227340000Y-144270000D01*
X237580000Y-144270000D02*
X237580000Y-139629000D01*
%TO.C,R11*%
X178130000Y-120730000D02*
X178130000Y-127270000D01*
X178130000Y-127270000D02*
X180870000Y-127270000D01*
X179500000Y-119960000D02*
X179500000Y-120730000D01*
X179500000Y-128040000D02*
X179500000Y-127270000D01*
X180870000Y-120730000D02*
X178130000Y-120730000D01*
X180870000Y-127270000D02*
X180870000Y-120730000D01*
%TO.C,R3*%
X210460000Y-89500000D02*
X211230000Y-89500000D01*
X211230000Y-88130000D02*
X211230000Y-90870000D01*
X211230000Y-90870000D02*
X217770000Y-90870000D01*
X217770000Y-88130000D02*
X211230000Y-88130000D01*
X217770000Y-90870000D02*
X217770000Y-88130000D01*
X218540000Y-89500000D02*
X217770000Y-89500000D01*
%TO.C,D7*%
X210230000Y-111000000D02*
X210880000Y-111000000D01*
X210880000Y-109880000D02*
X210880000Y-112120000D01*
X210880000Y-112120000D02*
X215120000Y-112120000D01*
X214280000Y-112120000D02*
X214280000Y-109880000D01*
X214400000Y-112120000D02*
X214400000Y-109880000D01*
X214520000Y-112120000D02*
X214520000Y-109880000D01*
X215120000Y-109880000D02*
X210880000Y-109880000D01*
X215120000Y-112120000D02*
X215120000Y-109880000D01*
X215770000Y-111000000D02*
X215120000Y-111000000D01*
%TO.C,R6*%
X202130000Y-116230000D02*
X202130000Y-122770000D01*
X202130000Y-122770000D02*
X204870000Y-122770000D01*
X203500000Y-115460000D02*
X203500000Y-116230000D01*
X203500000Y-123540000D02*
X203500000Y-122770000D01*
X204870000Y-116230000D02*
X202130000Y-116230000D01*
X204870000Y-122770000D02*
X204870000Y-116230000D01*
D12*
%TO.C,K1*%
X221500000Y-111000000D02*
X222350000Y-111000000D01*
X222350000Y-111000000D02*
X222350000Y-113750000D01*
X222350000Y-115900000D02*
X222350000Y-118600000D01*
X222350000Y-118600000D02*
X221550000Y-118600000D01*
X222750000Y-115900000D02*
X221950000Y-113800000D01*
X218800000Y-109350000D02*
X237200000Y-109350000D01*
X237200000Y-120250000D01*
X218800000Y-120250000D01*
X218800000Y-109350000D01*
X221950000Y-113800000D02*
X222750000Y-113800000D01*
X222750000Y-115900000D01*
X221950000Y-115900000D01*
X221950000Y-113800000D01*
D13*
%TO.C,J4*%
X241044000Y-96440000D02*
X250965000Y-96440000D01*
X241044000Y-106560000D02*
X241044000Y-96440000D01*
X241044000Y-106560000D02*
X250965000Y-106560000D01*
X244004000Y-106560000D02*
X244004000Y-96440000D01*
X245030000Y-97930000D02*
X245066000Y-97965000D01*
X245236000Y-97725000D02*
X245282000Y-97772000D01*
X247328000Y-100227000D02*
X247374000Y-100274000D01*
X247544000Y-100034000D02*
X247579000Y-100069000D01*
X248905000Y-106560000D02*
X248905000Y-96440000D01*
X250405000Y-106560000D02*
X250405000Y-96440000D01*
X250465000Y-106800000D02*
X251205000Y-106800000D01*
X250965000Y-106560000D02*
X250965000Y-96440000D01*
X251205000Y-106800000D02*
X251205000Y-106300000D01*
X244769573Y-104683042D02*
G75*
G02*
X244770000Y-103316000I1535420J683041D01*
G01*
X245621958Y-102464573D02*
G75*
G02*
X246989000Y-102465000I683042J-1535427D01*
G01*
X246988042Y-105535427D02*
G75*
G02*
X245621000Y-105535000I-683041J1535420D01*
G01*
X247839756Y-103316682D02*
G75*
G02*
X247985000Y-104000000I-1534756J-683318D01*
G01*
X247985253Y-103971195D02*
G75*
G02*
X247840000Y-104684000I-1680254J-28806D01*
G01*
X247985000Y-99000000D02*
G75*
G02*
X244625000Y-99000000I-1680000J0D01*
G01*
X244625000Y-99000000D02*
G75*
G02*
X247985000Y-99000000I1680000J0D01*
G01*
%TO.C,J1*%
X234440000Y-59261000D02*
X234440000Y-49340000D01*
X235725000Y-55069000D02*
X235772000Y-55023000D01*
X235930000Y-55275000D02*
X235965000Y-55239000D01*
X238034000Y-52761000D02*
X238069000Y-52726000D01*
X238227000Y-52977000D02*
X238274000Y-52931000D01*
X244560000Y-49340000D02*
X234440000Y-49340000D01*
X244560000Y-49900000D02*
X234440000Y-49900000D01*
X244560000Y-51400000D02*
X234440000Y-51400000D01*
X244560000Y-56301000D02*
X234440000Y-56301000D01*
X244560000Y-59261000D02*
X234440000Y-59261000D01*
X244560000Y-59261000D02*
X244560000Y-49340000D01*
X244800000Y-49100000D02*
X244300000Y-49100000D01*
X244800000Y-49840000D02*
X244800000Y-49100000D01*
X240464573Y-54683042D02*
G75*
G02*
X240465000Y-53316000I1535427J683042D01*
G01*
X241316682Y-52465244D02*
G75*
G02*
X242000000Y-52320000I683318J-1534756D01*
G01*
X241971195Y-52319747D02*
G75*
G02*
X242684000Y-52465000I28806J-1680254D01*
G01*
X242683042Y-55535427D02*
G75*
G02*
X241316000Y-55535000I-683041J1535420D01*
G01*
X243535427Y-53316958D02*
G75*
G02*
X243535000Y-54684000I-1535420J-683041D01*
G01*
X238680000Y-54000000D02*
G75*
G02*
X235320000Y-54000000I-1680000J0D01*
G01*
X235320000Y-54000000D02*
G75*
G02*
X238680000Y-54000000I1680000J0D01*
G01*
%TO.C,D4*%
X243260000Y-78500000D02*
X244280000Y-78500000D01*
X244280000Y-77030000D02*
X244280000Y-79970000D01*
X244280000Y-79970000D02*
X249720000Y-79970000D01*
X245060000Y-77030000D02*
X245060000Y-79970000D01*
X245180000Y-77030000D02*
X245180000Y-79970000D01*
X245300000Y-77030000D02*
X245300000Y-79970000D01*
X249720000Y-77030000D02*
X244280000Y-77030000D01*
X249720000Y-79970000D02*
X249720000Y-77030000D01*
X250740000Y-78500000D02*
X249720000Y-78500000D01*
%TO.C,R2*%
X242880000Y-66500000D02*
X243650000Y-66500000D01*
X243650000Y-65130000D02*
X243650000Y-67870000D01*
X243650000Y-67870000D02*
X250190000Y-67870000D01*
X250190000Y-65130000D02*
X243650000Y-65130000D01*
X250190000Y-67870000D02*
X250190000Y-65130000D01*
X250960000Y-66500000D02*
X250190000Y-66500000D01*
%TO.C,R7*%
X196630000Y-99730000D02*
X196630000Y-106270000D01*
X196630000Y-106270000D02*
X199370000Y-106270000D01*
X198000000Y-98960000D02*
X198000000Y-99730000D01*
X198000000Y-107040000D02*
X198000000Y-106270000D01*
X199370000Y-99730000D02*
X196630000Y-99730000D01*
X199370000Y-106270000D02*
X199370000Y-99730000D01*
%TO.C,D6*%
X214764000Y-106830000D02*
X214920000Y-106830000D01*
X217080000Y-106830000D02*
X217236000Y-106830000D01*
X214764484Y-106830000D02*
G75*
G02*
X214921392Y-103597665I1235516J1560000D01*
G01*
X214920000Y-106310961D02*
G75*
G02*
X214920163Y-104228870I1080000J1040961D01*
G01*
X217078608Y-103597665D02*
G75*
G02*
X217235516Y-106830000I-1078608J-1672335D01*
G01*
X217079837Y-104228870D02*
G75*
G02*
X217080000Y-106310961I-1079837J-1041130D01*
G01*
%TO.C,J2*%
X241239000Y-122440000D02*
X251160000Y-122440000D01*
X241239000Y-132560000D02*
X241239000Y-122440000D01*
X241239000Y-132560000D02*
X251160000Y-132560000D01*
X244199000Y-132560000D02*
X244199000Y-122440000D01*
X245225000Y-123930000D02*
X245261000Y-123965000D01*
X245431000Y-123725000D02*
X245477000Y-123772000D01*
X247523000Y-126227000D02*
X247569000Y-126274000D01*
X247739000Y-126034000D02*
X247774000Y-126069000D01*
X249100000Y-132560000D02*
X249100000Y-122440000D01*
X250600000Y-132560000D02*
X250600000Y-122440000D01*
X250660000Y-132800000D02*
X251400000Y-132800000D01*
X251160000Y-132560000D02*
X251160000Y-122440000D01*
X251400000Y-132800000D02*
X251400000Y-132300000D01*
X244964573Y-130683042D02*
G75*
G02*
X244965000Y-129316000I1535420J683041D01*
G01*
X245816958Y-128464573D02*
G75*
G02*
X247184000Y-128465000I683042J-1535427D01*
G01*
X247183042Y-131535427D02*
G75*
G02*
X245816000Y-131535000I-683041J1535420D01*
G01*
X248034756Y-129316682D02*
G75*
G02*
X248180000Y-130000000I-1534756J-683318D01*
G01*
X248180253Y-129971195D02*
G75*
G02*
X248035000Y-130684000I-1680254J-28806D01*
G01*
X248180000Y-125000000D02*
G75*
G02*
X244820000Y-125000000I-1680000J0D01*
G01*
X244820000Y-125000000D02*
G75*
G02*
X248180000Y-125000000I1680000J0D01*
G01*
%TO.C,D2*%
X243260000Y-74000000D02*
X244280000Y-74000000D01*
X244280000Y-72530000D02*
X244280000Y-75470000D01*
X244280000Y-75470000D02*
X249720000Y-75470000D01*
X248700000Y-75470000D02*
X248700000Y-72530000D01*
X248820000Y-75470000D02*
X248820000Y-72530000D01*
X248940000Y-75470000D02*
X248940000Y-72530000D01*
X249720000Y-72530000D02*
X244280000Y-72530000D01*
X249720000Y-75470000D02*
X249720000Y-72530000D01*
X250740000Y-74000000D02*
X249720000Y-74000000D01*
D12*
%TO.C,K2*%
X221500000Y-98200000D02*
X222350000Y-98200000D01*
X222350000Y-98200000D02*
X222350000Y-100950000D01*
X222350000Y-103100000D02*
X222350000Y-105800000D01*
X222350000Y-105800000D02*
X221550000Y-105800000D01*
X222750000Y-103100000D02*
X221950000Y-101000000D01*
X218800000Y-96550000D02*
X237200000Y-96550000D01*
X237200000Y-107450000D01*
X218800000Y-107450000D01*
X218800000Y-96550000D01*
X221950000Y-101000000D02*
X222750000Y-101000000D01*
X222750000Y-103100000D01*
X221950000Y-103100000D01*
X221950000Y-101000000D01*
D13*
%TO.C,Q4*%
X187200000Y-137210000D02*
X190800000Y-137210000D01*
X186643600Y-134261193D02*
G75*
G02*
X189000000Y-132760000I2356400J-1098807D01*
G01*
X187200000Y-137210000D02*
G75*
G02*
X186675816Y-136482795I1800000J1850000D01*
G01*
X189000000Y-132760000D02*
G75*
G02*
X191356400Y-134261193I0J-2600000D01*
G01*
X191324184Y-136482795D02*
G75*
G02*
X190800000Y-137210000I-2324184J1122795D01*
G01*
%TO.C,D9*%
X181645000Y-133920000D02*
X181645000Y-133764000D01*
X181645000Y-136236000D02*
X181645000Y-136080000D01*
X178412665Y-133921392D02*
G75*
G02*
X181645000Y-133764484I1672335J-1078608D01*
G01*
X179043870Y-133920163D02*
G75*
G02*
X181125961Y-133920000I1041130J-1079837D01*
G01*
X181125961Y-136080000D02*
G75*
G02*
X179043870Y-136079837I-1040961J1080000D01*
G01*
X181645000Y-136235516D02*
G75*
G02*
X178412665Y-136078608I-1560000J1235516D01*
G01*
%TO.C,R8*%
X202130000Y-99730000D02*
X202130000Y-106270000D01*
X202130000Y-106270000D02*
X204870000Y-106270000D01*
X203500000Y-98960000D02*
X203500000Y-99730000D01*
X203500000Y-107040000D02*
X203500000Y-106270000D01*
X204870000Y-99730000D02*
X202130000Y-99730000D01*
X204870000Y-106270000D02*
X204870000Y-99730000D01*
%TO.C,U3*%
X215840000Y-134115000D02*
X215840000Y-141855000D01*
X215840000Y-141855000D02*
X217490000Y-141855000D01*
X219490000Y-141855000D02*
X221140000Y-141855000D01*
X221140000Y-134115000D02*
X215840000Y-134115000D01*
X221140000Y-141855000D02*
X221140000Y-134115000D01*
X217490000Y-141855000D02*
G75*
G02*
X219490000Y-141855000I1000000J0D01*
G01*
%TO.C,D8*%
X220730000Y-93000000D02*
X221380000Y-93000000D01*
X221380000Y-91880000D02*
X221380000Y-94120000D01*
X221380000Y-94120000D02*
X225620000Y-94120000D01*
X221980000Y-91880000D02*
X221980000Y-94120000D01*
X222100000Y-91880000D02*
X222100000Y-94120000D01*
X222220000Y-91880000D02*
X222220000Y-94120000D01*
X225620000Y-91880000D02*
X221380000Y-91880000D01*
X225620000Y-94120000D02*
X225620000Y-91880000D01*
X226270000Y-93000000D02*
X225620000Y-93000000D01*
%TO.C,A1*%
X177970000Y-54040000D02*
X177970000Y-97480000D01*
X177970000Y-54040000D02*
X183050000Y-54040000D01*
X177970000Y-97480000D02*
X196010000Y-97480000D01*
X180640000Y-56710000D02*
X177970000Y-56710000D01*
X180640000Y-94810000D02*
X177970000Y-94810000D01*
X180640000Y-94810000D02*
X180640000Y-56710000D01*
X183050000Y-51500000D02*
X190930000Y-51500000D01*
X183050000Y-61920000D02*
X183050000Y-51500000D01*
X190930000Y-51500000D02*
X190930000Y-61920000D01*
X190930000Y-61920000D02*
X183050000Y-61920000D01*
X193340000Y-56710000D02*
X196010000Y-56710000D01*
X193340000Y-92270000D02*
X193340000Y-56710000D01*
X193340000Y-92270000D02*
X193340000Y-94810000D01*
X193340000Y-92270000D02*
X196010000Y-92270000D01*
X193340000Y-94810000D02*
X196010000Y-94810000D01*
X196010000Y-54040000D02*
X190930000Y-54040000D01*
X196010000Y-92270000D02*
X196010000Y-54040000D01*
X196010000Y-97480000D02*
X196010000Y-94810000D01*
%TO.C,R4*%
X196630000Y-115730000D02*
X196630000Y-122270000D01*
X196630000Y-122270000D02*
X199370000Y-122270000D01*
X198000000Y-114960000D02*
X198000000Y-115730000D01*
X198000000Y-123040000D02*
X198000000Y-122270000D01*
X199370000Y-115730000D02*
X196630000Y-115730000D01*
X199370000Y-122270000D02*
X199370000Y-115730000D01*
%TO.C,R9*%
X218960000Y-128000000D02*
X219730000Y-128000000D01*
X219730000Y-126630000D02*
X219730000Y-129370000D01*
X219730000Y-129370000D02*
X226270000Y-129370000D01*
X226270000Y-126630000D02*
X219730000Y-126630000D01*
X226270000Y-129370000D02*
X226270000Y-126630000D01*
X227040000Y-128000000D02*
X226270000Y-128000000D01*
%TO.C,U1*%
X227840000Y-82405000D02*
X227840000Y-87605000D01*
X227840000Y-87605000D02*
X229490000Y-87605000D01*
X231490000Y-87605000D02*
X233140000Y-87605000D01*
X233140000Y-82405000D02*
X227840000Y-82405000D01*
X233140000Y-87605000D02*
X233140000Y-82405000D01*
X229490000Y-87605000D02*
G75*
G02*
X231490000Y-87605000I1000000J0D01*
G01*
%TO.C,D5*%
X214764000Y-118830000D02*
X214920000Y-118830000D01*
X217080000Y-118830000D02*
X217236000Y-118830000D01*
X214764484Y-118830000D02*
G75*
G02*
X214921392Y-115597665I1235516J1560000D01*
G01*
X214920000Y-118310961D02*
G75*
G02*
X214920163Y-116228870I1080000J1040961D01*
G01*
X217078608Y-115597665D02*
G75*
G02*
X217235516Y-118830000I-1078608J-1672335D01*
G01*
X217079837Y-116228870D02*
G75*
G02*
X217080000Y-118310961I-1079837J-1041130D01*
G01*
%TD*%
M02*
