%TF.GenerationSoftware,KiCad,Pcbnew,8.0.3*%
%TF.CreationDate,2024-08-09T13:49:10+02:00*%
%TF.ProjectId,230V_controller,32333056-5f63-46f6-9e74-726f6c6c6572,rev?*%
%TF.SameCoordinates,Original*%
%TF.FileFunction,Copper,L1,Top*%
%TF.FilePolarity,Positive*%
%FSLAX46Y46*%
G04 Gerber Fmt 4.6, Leading zero omitted, Abs format (unit mm)*
G04 Created by KiCad (PCBNEW 8.0.3) date 2024-08-09 13:49:10*
%MOMM*%
%LPD*%
G01*
G04 APERTURE LIST*
%TA.AperFunction,ComponentPad*%
%ADD10R,2.200000X2.200000*%
%TD*%
%TA.AperFunction,ComponentPad*%
%ADD11O,2.200000X2.200000*%
%TD*%
%TA.AperFunction,ComponentPad*%
%ADD12C,1.600000*%
%TD*%
%TA.AperFunction,ComponentPad*%
%ADD13O,1.600000X1.600000*%
%TD*%
%TA.AperFunction,ComponentPad*%
%ADD14R,2.600000X2.600000*%
%TD*%
%TA.AperFunction,ComponentPad*%
%ADD15C,2.600000*%
%TD*%
%TA.AperFunction,ComponentPad*%
%ADD16R,1.500000X1.500000*%
%TD*%
%TA.AperFunction,ComponentPad*%
%ADD17C,1.500000*%
%TD*%
%TA.AperFunction,ComponentPad*%
%ADD18R,1.800000X1.800000*%
%TD*%
%TA.AperFunction,ComponentPad*%
%ADD19C,1.800000*%
%TD*%
%TA.AperFunction,ComponentPad*%
%ADD20R,1.905000X2.000000*%
%TD*%
%TA.AperFunction,ComponentPad*%
%ADD21O,1.905000X2.000000*%
%TD*%
%TA.AperFunction,ComponentPad*%
%ADD22R,1.600000X1.600000*%
%TD*%
%TA.AperFunction,ComponentPad*%
%ADD23C,1.524000*%
%TD*%
%TA.AperFunction,Conductor*%
%ADD24C,0.500000*%
%TD*%
%TA.AperFunction,Conductor*%
%ADD25C,1.000000*%
%TD*%
G04 APERTURE END LIST*
D10*
%TO.P,D3,1,K*%
%TO.N,Net-(D3-K)*%
X237080000Y-78500000D03*
D11*
%TO.P,D3,2,A*%
%TO.N,Net-(D1-K)*%
X226920000Y-78500000D03*
%TD*%
D12*
%TO.P,R10,1*%
%TO.N,DIMMER_EN*%
X189080000Y-118920000D03*
D13*
%TO.P,R10,2*%
%TO.N,Net-(Q4-B)*%
X189080000Y-129080000D03*
%TD*%
D14*
%TO.P,J3,1,Pin_1*%
%TO.N,Net-(J3-Pin_1)*%
X246500000Y-117000000D03*
D15*
%TO.P,J3,2,Pin_2*%
%TO.N,NEUTRAL*%
X246500000Y-112000000D03*
%TD*%
D10*
%TO.P,D1,1,K*%
%TO.N,Net-(D1-K)*%
X226920000Y-74000000D03*
D11*
%TO.P,D1,2,A*%
%TO.N,Net-(D1-A)*%
X237080000Y-74000000D03*
%TD*%
D12*
%TO.P,R5,1*%
%TO.N,DIMM_TRIAC*%
X196420000Y-140500000D03*
D13*
%TO.P,R5,2*%
%TO.N,Net-(R5-Pad2)*%
X206580000Y-140500000D03*
%TD*%
D12*
%TO.P,R1,1*%
%TO.N,L1*%
X236580000Y-66500000D03*
D13*
%TO.P,R1,2*%
%TO.N,Net-(D1-K)*%
X226420000Y-66500000D03*
%TD*%
D16*
%TO.P,Q1,1,C*%
%TO.N,Net-(D7-A)*%
X210000000Y-114000000D03*
D17*
%TO.P,Q1,2,B*%
%TO.N,Net-(Q1-B)*%
X210000000Y-116540000D03*
%TO.P,Q1,3,E*%
%TO.N,GND*%
X210000000Y-119080000D03*
%TD*%
D16*
%TO.P,Q2,1,C*%
%TO.N,Net-(D8-A)*%
X211000000Y-98540000D03*
D17*
%TO.P,Q2,2,B*%
%TO.N,Net-(Q2-B)*%
X211000000Y-96000000D03*
%TO.P,Q2,3,E*%
%TO.N,GND*%
X211000000Y-93460000D03*
%TD*%
D18*
%TO.P,SW2,1,A*%
%TO.N,GND*%
X181000000Y-101000000D03*
D19*
%TO.P,SW2,2,B*%
X183500000Y-101000000D03*
%TO.P,SW2,3,C*%
X186000000Y-101000000D03*
%TO.P,SW2,4,A*%
X181000000Y-107000000D03*
%TO.P,SW2,5,B*%
X183500000Y-107000000D03*
%TO.P,SW2,6,C*%
%TO.N,unconnected-(A1-D3-Pad6)*%
X186000000Y-107000000D03*
%TD*%
D20*
%TO.P,Q3,1,A1*%
%TO.N,Net-(J2-Pin_1)*%
X235000000Y-141000000D03*
D21*
%TO.P,Q3,2,A2*%
%TO.N,L1*%
X232460000Y-141000000D03*
%TO.P,Q3,3,G*%
%TO.N,Net-(Q3-G)*%
X229920000Y-141000000D03*
%TD*%
D12*
%TO.P,R11,1*%
%TO.N,DIMMER_EN*%
X179500000Y-118920000D03*
D13*
%TO.P,R11,2*%
%TO.N,Net-(D9-A)*%
X179500000Y-129080000D03*
%TD*%
D12*
%TO.P,R3,1*%
%TO.N,+5V*%
X219580000Y-89500000D03*
D13*
%TO.P,R3,2*%
%TO.N,ZCD*%
X209420000Y-89500000D03*
%TD*%
D22*
%TO.P,D7,1,K*%
%TO.N,+5V*%
X216810000Y-111000000D03*
D13*
%TO.P,D7,2,A*%
%TO.N,Net-(D7-A)*%
X209190000Y-111000000D03*
%TD*%
D12*
%TO.P,R6,1*%
%TO.N,RELAY_2*%
X203500000Y-124580000D03*
D13*
%TO.P,R6,2*%
%TO.N,Net-(D6-A)*%
X203500000Y-114420000D03*
%TD*%
D23*
%TO.P,K1,1*%
%TO.N,Net-(D7-A)*%
X220600000Y-118600000D03*
%TO.P,K1,2*%
%TO.N,+5V*%
X220600000Y-111000000D03*
%TO.P,K1,3*%
%TO.N,Net-(J3-Pin_1)*%
X235840000Y-118600000D03*
%TO.P,K1,4*%
%TO.N,unconnected-(K1-Pad4)*%
X231840000Y-111000000D03*
%TO.P,K1,5*%
%TO.N,L1*%
X235840000Y-112250000D03*
%TD*%
D14*
%TO.P,J4,1,Pin_1*%
%TO.N,Net-(J4-Pin_1)*%
X246305000Y-104000000D03*
D15*
%TO.P,J4,2,Pin_2*%
%TO.N,NEUTRAL*%
X246305000Y-99000000D03*
%TD*%
D14*
%TO.P,J1,1,Pin_1*%
%TO.N,NEUTRAL*%
X242000000Y-54000000D03*
D15*
%TO.P,J1,2,Pin_2*%
%TO.N,L1*%
X237000000Y-54000000D03*
%TD*%
D10*
%TO.P,D4,1,K*%
%TO.N,Net-(D3-K)*%
X241920000Y-78500000D03*
D11*
%TO.P,D4,2,A*%
%TO.N,Net-(D2-K)*%
X252080000Y-78500000D03*
%TD*%
D12*
%TO.P,R2,1*%
%TO.N,NEUTRAL*%
X241840000Y-66500000D03*
D13*
%TO.P,R2,2*%
%TO.N,Net-(D2-K)*%
X252000000Y-66500000D03*
%TD*%
D12*
%TO.P,R7,1*%
%TO.N,RELAY_1*%
X198000000Y-97920000D03*
D13*
%TO.P,R7,2*%
%TO.N,Net-(Q1-B)*%
X198000000Y-108080000D03*
%TD*%
D18*
%TO.P,D6,1,K*%
%TO.N,GND*%
X216000000Y-106540000D03*
D19*
%TO.P,D6,2,A*%
%TO.N,Net-(D6-A)*%
X216000000Y-104000000D03*
%TD*%
D14*
%TO.P,J2,1,Pin_1*%
%TO.N,Net-(J2-Pin_1)*%
X246500000Y-130000000D03*
D15*
%TO.P,J2,2,Pin_2*%
%TO.N,NEUTRAL*%
X246500000Y-125000000D03*
%TD*%
D10*
%TO.P,D2,1,K*%
%TO.N,Net-(D2-K)*%
X252080000Y-74000000D03*
D11*
%TO.P,D2,2,A*%
%TO.N,Net-(D1-A)*%
X241920000Y-74000000D03*
%TD*%
D23*
%TO.P,K2,1*%
%TO.N,Net-(D8-A)*%
X220600000Y-105800000D03*
%TO.P,K2,2*%
%TO.N,+5V*%
X220600000Y-98200000D03*
%TO.P,K2,3*%
%TO.N,Net-(J4-Pin_1)*%
X235840000Y-105800000D03*
%TO.P,K2,4*%
%TO.N,unconnected-(K2-Pad4)*%
X231840000Y-98200000D03*
%TO.P,K2,5*%
%TO.N,L1*%
X235840000Y-99450000D03*
%TD*%
D16*
%TO.P,Q4,1,C*%
%TO.N,Net-(Q4-C)*%
X186460000Y-135360000D03*
D17*
%TO.P,Q4,2,B*%
%TO.N,Net-(Q4-B)*%
X189000000Y-135360000D03*
%TO.P,Q4,3,E*%
%TO.N,GND*%
X191540000Y-135360000D03*
%TD*%
D18*
%TO.P,D9,1,K*%
%TO.N,GND*%
X181355000Y-135000000D03*
D19*
%TO.P,D9,2,A*%
%TO.N,Net-(D9-A)*%
X178815000Y-135000000D03*
%TD*%
D12*
%TO.P,R8,1*%
%TO.N,RELAY_2*%
X203500000Y-97920000D03*
D13*
%TO.P,R8,2*%
%TO.N,Net-(Q2-B)*%
X203500000Y-108080000D03*
%TD*%
D22*
%TO.P,U3,1*%
%TO.N,Net-(R5-Pad2)*%
X222300000Y-140525000D03*
D13*
%TO.P,U3,2*%
%TO.N,Net-(Q4-C)*%
X222300000Y-137985000D03*
%TO.P,U3,3,NC*%
%TO.N,unconnected-(U3-NC-Pad3)*%
X222300000Y-135445000D03*
%TO.P,U3,4*%
%TO.N,Net-(Q3-G)*%
X214680000Y-135445000D03*
%TO.P,U3,5,NC*%
%TO.N,unconnected-(U3-NC-Pad5)*%
X214680000Y-137985000D03*
%TO.P,U3,6*%
%TO.N,Net-(R9-Pad1)*%
X214680000Y-140525000D03*
%TD*%
D22*
%TO.P,D8,1,K*%
%TO.N,+5V*%
X219690000Y-93000000D03*
D13*
%TO.P,D8,2,A*%
%TO.N,Net-(D8-A)*%
X227310000Y-93000000D03*
%TD*%
D22*
%TO.P,A1,1,D1/TX*%
%TO.N,unconnected-(A1-D1{slash}TX-Pad1)*%
X194610000Y-93540000D03*
D13*
%TO.P,A1,2,D0/RX*%
%TO.N,unconnected-(A1-D0{slash}RX-Pad2)*%
X194610000Y-91000000D03*
%TO.P,A1,3,~{RESET}*%
%TO.N,unconnected-(A1-~{RESET}-Pad3)*%
X194610000Y-88460000D03*
%TO.P,A1,4,GND*%
%TO.N,GND*%
X194610000Y-85920000D03*
%TO.P,A1,5,D2*%
%TO.N,ZCD*%
X194610000Y-83380000D03*
%TO.P,A1,6,D3*%
%TO.N,unconnected-(A1-D3-Pad6)*%
X194610000Y-80840000D03*
%TO.P,A1,7,D4*%
%TO.N,unconnected-(A1-D4-Pad7)*%
X194610000Y-78300000D03*
%TO.P,A1,8,D5*%
%TO.N,unconnected-(A1-D5-Pad8)*%
X194610000Y-75760000D03*
%TO.P,A1,9,D6*%
%TO.N,RELAY_2*%
X194610000Y-73220000D03*
%TO.P,A1,10,D7*%
%TO.N,RELAY_1*%
X194610000Y-70680000D03*
%TO.P,A1,11,D8*%
%TO.N,DIMM_TRIAC*%
X194610000Y-68140000D03*
%TO.P,A1,12,D9*%
%TO.N,DIMMER_EN*%
X194610000Y-65600000D03*
%TO.P,A1,13,D10*%
%TO.N,unconnected-(A1-D10-Pad13)*%
X194610000Y-63060000D03*
%TO.P,A1,14,D11*%
%TO.N,unconnected-(A1-D11-Pad14)*%
X194610000Y-60520000D03*
%TO.P,A1,15,D12*%
%TO.N,unconnected-(A1-D12-Pad15)*%
X194610000Y-57980000D03*
%TO.P,A1,16,D13*%
%TO.N,unconnected-(A1-D13-Pad16)*%
X179370000Y-57980000D03*
%TO.P,A1,17,3V3*%
%TO.N,unconnected-(A1-3V3-Pad17)*%
X179370000Y-60520000D03*
%TO.P,A1,18,AREF*%
%TO.N,unconnected-(A1-AREF-Pad18)*%
X179370000Y-63060000D03*
%TO.P,A1,19,A0*%
%TO.N,unconnected-(A1-A0-Pad19)*%
X179370000Y-65600000D03*
%TO.P,A1,20,A1*%
%TO.N,unconnected-(A1-A1-Pad20)*%
X179370000Y-68140000D03*
%TO.P,A1,21,A2*%
%TO.N,unconnected-(A1-A2-Pad21)*%
X179370000Y-70680000D03*
%TO.P,A1,22,A3*%
%TO.N,unconnected-(A1-A3-Pad22)*%
X179370000Y-73220000D03*
%TO.P,A1,23,A4*%
%TO.N,unconnected-(A1-A4-Pad23)*%
X179370000Y-75760000D03*
%TO.P,A1,24,A5*%
%TO.N,unconnected-(A1-A5-Pad24)*%
X179370000Y-78300000D03*
%TO.P,A1,25,A6*%
%TO.N,unconnected-(A1-A6-Pad25)*%
X179370000Y-80840000D03*
%TO.P,A1,26,A7*%
%TO.N,unconnected-(A1-A7-Pad26)*%
X179370000Y-83380000D03*
%TO.P,A1,27,+5V*%
%TO.N,+5V*%
X179370000Y-85920000D03*
%TO.P,A1,28,~{RESET}*%
%TO.N,unconnected-(A1-~{RESET}-Pad28)*%
X179370000Y-88460000D03*
%TO.P,A1,29,GND*%
%TO.N,GND*%
X179370000Y-91000000D03*
%TO.P,A1,30,VIN*%
%TO.N,unconnected-(A1-VIN-Pad30)*%
X179370000Y-93540000D03*
%TD*%
D12*
%TO.P,R4,1*%
%TO.N,RELAY_1*%
X198000000Y-113920000D03*
D13*
%TO.P,R4,2*%
%TO.N,Net-(D5-A)*%
X198000000Y-124080000D03*
%TD*%
D12*
%TO.P,R9,1*%
%TO.N,Net-(R9-Pad1)*%
X217920000Y-128000000D03*
D13*
%TO.P,R9,2*%
%TO.N,L1*%
X228080000Y-128000000D03*
%TD*%
D22*
%TO.P,U1,1*%
%TO.N,Net-(D3-K)*%
X234300000Y-86275000D03*
D13*
%TO.P,U1,2*%
%TO.N,Net-(D1-A)*%
X234300000Y-83735000D03*
%TO.P,U1,3*%
%TO.N,GND*%
X226680000Y-83735000D03*
%TO.P,U1,4*%
%TO.N,ZCD*%
X226680000Y-86275000D03*
%TD*%
D18*
%TO.P,D5,1,K*%
%TO.N,GND*%
X216000000Y-118540000D03*
D19*
%TO.P,D5,2,A*%
%TO.N,Net-(D5-A)*%
X216000000Y-116000000D03*
%TD*%
D24*
%TO.N,GND*%
X219500000Y-122500000D02*
X218000000Y-122500000D01*
X221000000Y-108000000D02*
X223000000Y-110000000D01*
X217460000Y-108000000D02*
X221000000Y-108000000D01*
X218000000Y-122500000D02*
X216000000Y-120500000D01*
X216000000Y-106540000D02*
X217460000Y-108000000D01*
X223000000Y-110000000D02*
X223000000Y-119000000D01*
X223000000Y-119000000D02*
X219500000Y-122500000D01*
X214460000Y-93460000D02*
X211000000Y-93460000D01*
X217000000Y-96000000D02*
X214460000Y-93460000D01*
X217000000Y-98000000D02*
X217000000Y-96000000D01*
X222000000Y-100000000D02*
X219000000Y-100000000D01*
X229500000Y-87500000D02*
X223000000Y-94000000D01*
X219000000Y-100000000D02*
X217000000Y-98000000D01*
X229500000Y-85500000D02*
X229500000Y-87500000D01*
X227735000Y-83735000D02*
X229500000Y-85500000D01*
X226680000Y-83735000D02*
X227735000Y-83735000D01*
X223000000Y-94000000D02*
X223000000Y-99000000D01*
X223000000Y-99000000D02*
X222000000Y-100000000D01*
%TO.N,+5V*%
X224095000Y-84985000D02*
X219580000Y-89500000D01*
X227197767Y-84985000D02*
X224095000Y-84985000D01*
X228300000Y-87200000D02*
X228300000Y-86087233D01*
X220600000Y-94900000D02*
X228300000Y-87200000D01*
X228300000Y-86087233D02*
X227197767Y-84985000D01*
X220600000Y-98200000D02*
X220600000Y-94900000D01*
D25*
%TO.N,NEUTRAL*%
X242000000Y-66340000D02*
X242000000Y-54000000D01*
X241840000Y-66500000D02*
X242000000Y-66340000D01*
D24*
%TO.N,DIMM_TRIAC*%
X191000000Y-126000000D02*
X196420000Y-131420000D01*
X175000000Y-51500000D02*
X175000000Y-123000000D01*
X196420000Y-131420000D02*
X196420000Y-140500000D01*
X193140000Y-68140000D02*
X191000000Y-66000000D01*
X175000000Y-123000000D02*
X178000000Y-126000000D01*
X176500000Y-50000000D02*
X175000000Y-51500000D01*
X178000000Y-126000000D02*
X191000000Y-126000000D01*
X191000000Y-66000000D02*
X191000000Y-53000000D01*
X188000000Y-50000000D02*
X176500000Y-50000000D01*
X193140000Y-68140000D02*
X194610000Y-68140000D01*
X191000000Y-53000000D02*
X188000000Y-50000000D01*
%TO.N,ZCD*%
X210920000Y-91000000D02*
X209420000Y-89500000D01*
X209420000Y-89500000D02*
X203500000Y-89500000D01*
X197380000Y-83380000D02*
X194610000Y-83380000D01*
X203500000Y-89500000D02*
X197380000Y-83380000D01*
X226680000Y-86275000D02*
X221955000Y-91000000D01*
X221955000Y-91000000D02*
X210920000Y-91000000D01*
%TO.N,RELAY_2*%
X202080000Y-126000000D02*
X196000000Y-126000000D01*
X180847767Y-123847767D02*
X177000000Y-120000000D01*
X191000000Y-112000000D02*
X203500000Y-99500000D01*
X203500000Y-124580000D02*
X202080000Y-126000000D01*
X196000000Y-126000000D02*
X193847767Y-123847767D01*
X203500000Y-99500000D02*
X203500000Y-97920000D01*
X177000000Y-114000000D02*
X179000000Y-112000000D01*
X177000000Y-120000000D02*
X177000000Y-114000000D01*
X179000000Y-112000000D02*
X191000000Y-112000000D01*
X193847767Y-123847767D02*
X180847767Y-123847767D01*
%TO.N,GND*%
X188000000Y-79310000D02*
X188000000Y-56000000D01*
X214000000Y-114000000D02*
X217000000Y-114000000D01*
X225000000Y-135000000D02*
X225000000Y-143000000D01*
X177000000Y-56000000D02*
X177000000Y-90000000D01*
X213000000Y-116080000D02*
X213000000Y-115000000D01*
X212000000Y-143000000D02*
X216000000Y-143000000D01*
X207000000Y-133000000D02*
X207000000Y-135000000D01*
X213000000Y-115000000D02*
X214000000Y-114000000D01*
X219000000Y-133000000D02*
X223000000Y-133000000D01*
X217460000Y-118540000D02*
X216000000Y-118540000D01*
X179000000Y-54000000D02*
X177000000Y-56000000D01*
X217000000Y-135000000D02*
X219000000Y-133000000D01*
X223000000Y-133000000D02*
X225000000Y-135000000D01*
X211500000Y-124500000D02*
X216000000Y-120000000D01*
X221000000Y-147000000D02*
X187355000Y-147000000D01*
X188000000Y-56000000D02*
X186000000Y-54000000D01*
X192760000Y-143000000D02*
X197000000Y-143000000D01*
X210000000Y-141000000D02*
X212000000Y-143000000D01*
X207000000Y-133000000D02*
X210500000Y-129500000D01*
X207000000Y-135000000D02*
X210000000Y-138000000D01*
X183500000Y-107000000D02*
X181000000Y-107000000D01*
X210500000Y-125540000D02*
X211500000Y-124540000D01*
X210000000Y-138000000D02*
X210000000Y-141000000D01*
X181000000Y-101000000D02*
X182000000Y-100000000D01*
X211500000Y-124540000D02*
X211500000Y-124500000D01*
X225000000Y-143000000D02*
X221000000Y-147000000D01*
X192760000Y-143000000D02*
X191540000Y-141780000D01*
X216000000Y-120000000D02*
X216000000Y-118540000D01*
X194610000Y-85920000D02*
X188000000Y-79310000D01*
X210500000Y-129500000D02*
X210500000Y-125540000D01*
X197000000Y-143000000D02*
X207000000Y-133000000D01*
X186000000Y-54000000D02*
X179000000Y-54000000D01*
X183500000Y-101000000D02*
X181000000Y-101000000D01*
X186000000Y-101000000D02*
X183500000Y-101000000D01*
X217000000Y-142000000D02*
X217000000Y-135000000D01*
X181355000Y-141000000D02*
X181355000Y-135000000D01*
X177000000Y-90000000D02*
X178000000Y-91000000D01*
X218500000Y-115500000D02*
X218500000Y-117500000D01*
X181000000Y-101000000D02*
X181000000Y-107000000D01*
X187355000Y-147000000D02*
X181355000Y-141000000D01*
X216000000Y-143000000D02*
X217000000Y-142000000D01*
X210000000Y-119080000D02*
X213000000Y-116080000D01*
X178000000Y-91000000D02*
X179370000Y-91000000D01*
X218500000Y-117500000D02*
X217460000Y-118540000D01*
X217000000Y-114000000D02*
X218500000Y-115500000D01*
X191540000Y-141780000D02*
X191540000Y-135360000D01*
%TO.N,unconnected-(A1-D3-Pad6)*%
X183000000Y-110000000D02*
X180000000Y-110000000D01*
X176000000Y-106000000D02*
X176000000Y-52000000D01*
X176000000Y-52000000D02*
X177000000Y-51000000D01*
X186000000Y-107000000D02*
X183000000Y-110000000D01*
X187000000Y-51000000D02*
X190000000Y-54000000D01*
X192840000Y-80840000D02*
X194240000Y-80840000D01*
X180000000Y-110000000D02*
X176000000Y-106000000D01*
X190000000Y-78000000D02*
X192840000Y-80840000D01*
X177000000Y-51000000D02*
X187000000Y-51000000D01*
X190000000Y-54000000D02*
X190000000Y-78000000D01*
%TO.N,DIMMER_EN*%
X179500000Y-118920000D02*
X189080000Y-118920000D01*
%TO.N,+5V*%
X179000000Y-85920000D02*
X188080000Y-95000000D01*
X203610051Y-95000000D02*
X206610051Y-92000000D01*
X219690000Y-97290000D02*
X220600000Y-98200000D01*
X216810000Y-111000000D02*
X220600000Y-111000000D01*
X188080000Y-95000000D02*
X203610051Y-95000000D01*
X206610051Y-92000000D02*
X218690000Y-92000000D01*
X219690000Y-93000000D02*
X219690000Y-97290000D01*
X218690000Y-92000000D02*
X219690000Y-93000000D01*
D25*
%TO.N,Net-(D1-K)*%
X226920000Y-74000000D02*
X226920000Y-67000000D01*
X226920000Y-78500000D02*
X226920000Y-74000000D01*
D24*
X226920000Y-67000000D02*
X226420000Y-66500000D01*
D25*
%TO.N,Net-(D1-A)*%
X234300000Y-76780000D02*
X237080000Y-74000000D01*
X234300000Y-83735000D02*
X234300000Y-76780000D01*
X241920000Y-74000000D02*
X237080000Y-74000000D01*
%TO.N,Net-(D2-K)*%
X252000000Y-66500000D02*
X252000000Y-73920000D01*
D24*
X252000000Y-73920000D02*
X252080000Y-74000000D01*
D25*
X252080000Y-74000000D02*
X252080000Y-78500000D01*
%TO.N,Net-(D3-K)*%
X242000000Y-85000000D02*
X242000000Y-84000000D01*
X241920000Y-83920000D02*
X241920000Y-78500000D01*
X240725000Y-86275000D02*
X242000000Y-85000000D01*
D24*
X242000000Y-84000000D02*
X241920000Y-83920000D01*
D25*
X241920000Y-78500000D02*
X237080000Y-78500000D01*
X234300000Y-86275000D02*
X240725000Y-86275000D01*
D24*
%TO.N,Net-(D5-A)*%
X211000000Y-122000000D02*
X212000000Y-121000000D01*
X200080000Y-122000000D02*
X211000000Y-122000000D01*
X198000000Y-124080000D02*
X200080000Y-122000000D01*
X212000000Y-121000000D02*
X212000000Y-120000000D01*
X212000000Y-120000000D02*
X216000000Y-116000000D01*
%TO.N,Net-(D6-A)*%
X203500000Y-114420000D02*
X207000000Y-110920000D01*
X207000000Y-104000000D02*
X208040000Y-102960000D01*
X207000000Y-110920000D02*
X207000000Y-104000000D01*
X208040000Y-102960000D02*
X214960000Y-102960000D01*
X214960000Y-102960000D02*
X216000000Y-104000000D01*
%TO.N,Net-(D7-A)*%
X210000000Y-111810000D02*
X209190000Y-111000000D01*
X218000000Y-113000000D02*
X211000000Y-113000000D01*
X220600000Y-115600000D02*
X218000000Y-113000000D01*
X220600000Y-118600000D02*
X220600000Y-115600000D01*
X210000000Y-114000000D02*
X210000000Y-111810000D01*
X211000000Y-113000000D02*
X210000000Y-114000000D01*
%TO.N,Net-(D8-A)*%
X227310000Y-99090000D02*
X220600000Y-105800000D01*
X220600000Y-105800000D02*
X220600000Y-103600000D01*
X215540000Y-98540000D02*
X211000000Y-98540000D01*
X227310000Y-93000000D02*
X227310000Y-99090000D01*
X220600000Y-103600000D02*
X215540000Y-98540000D01*
%TO.N,Net-(D9-A)*%
X178815000Y-135000000D02*
X178815000Y-129765000D01*
X178815000Y-129765000D02*
X179500000Y-129080000D01*
D25*
%TO.N,L1*%
X228080000Y-125710000D02*
X232460000Y-121330000D01*
X235840000Y-99450000D02*
X232000000Y-103290000D01*
X232460000Y-121330000D02*
X232460000Y-115630000D01*
X231000000Y-72080000D02*
X236580000Y-66500000D01*
X235840000Y-99450000D02*
X235840000Y-96840000D01*
X232000000Y-103290000D02*
X232000000Y-107000000D01*
X235840000Y-96840000D02*
X231000000Y-92000000D01*
X232460000Y-115630000D02*
X235840000Y-112250000D01*
X235840000Y-110840000D02*
X235840000Y-112250000D01*
X231000000Y-92000000D02*
X231000000Y-72080000D01*
X228080000Y-128000000D02*
X228080000Y-125710000D01*
X232000000Y-107000000D02*
X235840000Y-110840000D01*
X237000000Y-54000000D02*
X237000000Y-66080000D01*
X232460000Y-141000000D02*
X232460000Y-121330000D01*
D24*
X237000000Y-66080000D02*
X236580000Y-66500000D01*
D25*
%TO.N,NEUTRAL*%
X241840000Y-66500000D02*
X241840000Y-67840000D01*
X248000000Y-112000000D02*
X246500000Y-112000000D01*
X246500000Y-112000000D02*
X250000000Y-108500000D01*
X246305000Y-99000000D02*
X249000000Y-99000000D01*
X249000000Y-99000000D02*
X250000000Y-100000000D01*
X250000000Y-108500000D02*
X250000000Y-100000000D01*
X246305000Y-99000000D02*
X246305000Y-72305000D01*
X241840000Y-67840000D02*
X245500000Y-71500000D01*
X250000000Y-121500000D02*
X250000000Y-114000000D01*
X250000000Y-114000000D02*
X248000000Y-112000000D01*
X246500000Y-125000000D02*
X250000000Y-121500000D01*
X246305000Y-72305000D02*
X245500000Y-71500000D01*
%TO.N,Net-(J2-Pin_1)*%
X235000000Y-141000000D02*
X238000000Y-141000000D01*
X246500000Y-132500000D02*
X246500000Y-130000000D01*
X238000000Y-141000000D02*
X246500000Y-132500000D01*
%TO.N,Net-(J3-Pin_1)*%
X235840000Y-123012944D02*
X236627056Y-123800000D01*
X236627056Y-123800000D02*
X239700000Y-123800000D01*
X235840000Y-118600000D02*
X235840000Y-123012944D01*
D24*
X247000000Y-118000000D02*
X246500000Y-117500000D01*
D25*
X239700000Y-123800000D02*
X246500000Y-117000000D01*
%TO.N,Net-(J4-Pin_1)*%
X235840000Y-105800000D02*
X244505000Y-105800000D01*
X244505000Y-105800000D02*
X246305000Y-104000000D01*
D24*
%TO.N,Net-(Q1-B)*%
X201000000Y-116000000D02*
X202000000Y-117000000D01*
X198000000Y-108080000D02*
X201000000Y-111080000D01*
X202000000Y-117000000D02*
X209540000Y-117000000D01*
X209540000Y-117000000D02*
X210000000Y-116540000D01*
X201000000Y-111080000D02*
X201000000Y-116000000D01*
%TO.N,Net-(Q2-B)*%
X203500000Y-103500000D02*
X203500000Y-108080000D01*
X211000000Y-96000000D02*
X203500000Y-103500000D01*
D25*
%TO.N,Net-(Q3-G)*%
X224000000Y-131000000D02*
X217000000Y-131000000D01*
X214680000Y-133320000D02*
X214680000Y-135445000D01*
X229920000Y-141000000D02*
X229920000Y-136920000D01*
X217000000Y-131000000D02*
X214680000Y-133320000D01*
X229920000Y-136920000D02*
X224000000Y-131000000D01*
D24*
%TO.N,Net-(Q4-C)*%
X208000000Y-139000000D02*
X209000000Y-140000000D01*
X199000000Y-145000000D02*
X205000000Y-139000000D01*
X219000000Y-141285000D02*
X222300000Y-137985000D01*
X209000000Y-144000000D02*
X210000000Y-145000000D01*
X189000000Y-145000000D02*
X186460000Y-142460000D01*
X189000000Y-145000000D02*
X199000000Y-145000000D01*
X217000000Y-145000000D02*
X219000000Y-143000000D01*
X209000000Y-140000000D02*
X209000000Y-144000000D01*
X210000000Y-145000000D02*
X217000000Y-145000000D01*
X219000000Y-143000000D02*
X219000000Y-141285000D01*
X186460000Y-142460000D02*
X186460000Y-135360000D01*
X205000000Y-139000000D02*
X208000000Y-139000000D01*
%TO.N,Net-(Q4-B)*%
X189000000Y-135360000D02*
X189000000Y-129160000D01*
X189000000Y-129160000D02*
X189080000Y-129080000D01*
%TO.N,Net-(R5-Pad2)*%
X209000000Y-146000000D02*
X220000000Y-146000000D01*
X206580000Y-143580000D02*
X209000000Y-146000000D01*
X206580000Y-140500000D02*
X206580000Y-143580000D01*
X220000000Y-146000000D02*
X222300000Y-143700000D01*
X222300000Y-143700000D02*
X222300000Y-140525000D01*
D25*
%TO.N,Net-(R9-Pad1)*%
X212000000Y-139000000D02*
X212000000Y-132960000D01*
X214680000Y-140525000D02*
X213525000Y-140525000D01*
X213525000Y-140525000D02*
X212000000Y-139000000D01*
X216960000Y-128000000D02*
X217920000Y-128000000D01*
X212000000Y-132960000D02*
X216960000Y-128000000D01*
%TD*%
%TA.AperFunction,Conductor*%
%TO.N,GND*%
G36*
X196708798Y-107455083D02*
G01*
X196764731Y-107496955D01*
X196789148Y-107562419D01*
X196777849Y-107623664D01*
X196773262Y-107633501D01*
X196773258Y-107633511D01*
X196714366Y-107853302D01*
X196714364Y-107853313D01*
X196694532Y-108079998D01*
X196694532Y-108080001D01*
X196714364Y-108306686D01*
X196714366Y-108306697D01*
X196773258Y-108526488D01*
X196773261Y-108526497D01*
X196869431Y-108732732D01*
X196869432Y-108732734D01*
X196999954Y-108919141D01*
X197160858Y-109080045D01*
X197160861Y-109080047D01*
X197347266Y-109210568D01*
X197553504Y-109306739D01*
X197773308Y-109365635D01*
X197935230Y-109379801D01*
X197999998Y-109385468D01*
X198000000Y-109385468D01*
X198000001Y-109385468D01*
X198020062Y-109383712D01*
X198166861Y-109370869D01*
X198235359Y-109384635D01*
X198265348Y-109406716D01*
X200213181Y-111354548D01*
X200246666Y-111415871D01*
X200249500Y-111442229D01*
X200249500Y-116073918D01*
X200249500Y-116073920D01*
X200249499Y-116073920D01*
X200278340Y-116218907D01*
X200278343Y-116218917D01*
X200334913Y-116355490D01*
X200334914Y-116355492D01*
X200334915Y-116355494D01*
X200334916Y-116355495D01*
X200339405Y-116362213D01*
X200339407Y-116362219D01*
X200339408Y-116362219D01*
X200417046Y-116478414D01*
X200417052Y-116478421D01*
X201521585Y-117582952D01*
X201521590Y-117582956D01*
X201562372Y-117610205D01*
X201562374Y-117610206D01*
X201644498Y-117665080D01*
X201644511Y-117665087D01*
X201701079Y-117688518D01*
X201701080Y-117688518D01*
X201781088Y-117721659D01*
X201897241Y-117744763D01*
X201916468Y-117748587D01*
X201926081Y-117750500D01*
X209334043Y-117750500D01*
X209401082Y-117770185D01*
X209446837Y-117822989D01*
X209456781Y-117892147D01*
X209427756Y-117955703D01*
X209386447Y-117986882D01*
X209372614Y-117993331D01*
X209310428Y-118036874D01*
X209953554Y-118680000D01*
X209947339Y-118680000D01*
X209845606Y-118707259D01*
X209754394Y-118759920D01*
X209679920Y-118834394D01*
X209627259Y-118925606D01*
X209600000Y-119027339D01*
X209600000Y-119033553D01*
X208956874Y-118390428D01*
X208913333Y-118452613D01*
X208820898Y-118650840D01*
X208820894Y-118650849D01*
X208764289Y-118862105D01*
X208764287Y-118862115D01*
X208745225Y-119079999D01*
X208745225Y-119080000D01*
X208764287Y-119297884D01*
X208764289Y-119297894D01*
X208820894Y-119509150D01*
X208820898Y-119509159D01*
X208913333Y-119707387D01*
X208956874Y-119769571D01*
X209600000Y-119126445D01*
X209600000Y-119132661D01*
X209627259Y-119234394D01*
X209679920Y-119325606D01*
X209754394Y-119400080D01*
X209845606Y-119452741D01*
X209947339Y-119480000D01*
X209953553Y-119480000D01*
X209310427Y-120123124D01*
X209372612Y-120166666D01*
X209570840Y-120259101D01*
X209570849Y-120259105D01*
X209782105Y-120315710D01*
X209782115Y-120315712D01*
X209999999Y-120334775D01*
X210000001Y-120334775D01*
X210217884Y-120315712D01*
X210217894Y-120315710D01*
X210429150Y-120259105D01*
X210429164Y-120259100D01*
X210627383Y-120166669D01*
X210627385Y-120166668D01*
X210689571Y-120123124D01*
X210046448Y-119480000D01*
X210052661Y-119480000D01*
X210154394Y-119452741D01*
X210245606Y-119400080D01*
X210320080Y-119325606D01*
X210372741Y-119234394D01*
X210400000Y-119132661D01*
X210400000Y-119126447D01*
X211043124Y-119769571D01*
X211048853Y-119769069D01*
X211091213Y-119735210D01*
X211160712Y-119728016D01*
X211223067Y-119759538D01*
X211258481Y-119819768D01*
X211259830Y-119874148D01*
X211249500Y-119926082D01*
X211249500Y-120637770D01*
X211229815Y-120704809D01*
X211213181Y-120725451D01*
X210725451Y-121213181D01*
X210664128Y-121246666D01*
X210637770Y-121249500D01*
X200006080Y-121249500D01*
X199861092Y-121278340D01*
X199861082Y-121278343D01*
X199724511Y-121334912D01*
X199724498Y-121334919D01*
X199601584Y-121417048D01*
X199601580Y-121417051D01*
X198265348Y-122753282D01*
X198204025Y-122786767D01*
X198166861Y-122789129D01*
X198000003Y-122774532D01*
X197999998Y-122774532D01*
X197773313Y-122794364D01*
X197773302Y-122794366D01*
X197553511Y-122853258D01*
X197553502Y-122853261D01*
X197347267Y-122949431D01*
X197347265Y-122949432D01*
X197160858Y-123079954D01*
X196999954Y-123240858D01*
X196869432Y-123427265D01*
X196869431Y-123427267D01*
X196773261Y-123633502D01*
X196773258Y-123633511D01*
X196714366Y-123853302D01*
X196714364Y-123853313D01*
X196694532Y-124079998D01*
X196694532Y-124080001D01*
X196714364Y-124306686D01*
X196714366Y-124306697D01*
X196773258Y-124526488D01*
X196773261Y-124526497D01*
X196869431Y-124732732D01*
X196869432Y-124732734D01*
X196999954Y-124919141D01*
X197118632Y-125037819D01*
X197152117Y-125099142D01*
X197147133Y-125168834D01*
X197105261Y-125224767D01*
X197039797Y-125249184D01*
X197030951Y-125249500D01*
X196362229Y-125249500D01*
X196295190Y-125229815D01*
X196274548Y-125213181D01*
X194326188Y-123264819D01*
X194326187Y-123264818D01*
X194326183Y-123264815D01*
X194228430Y-123199500D01*
X194228428Y-123199497D01*
X194203262Y-123182683D01*
X194203257Y-123182680D01*
X194066684Y-123126110D01*
X194066674Y-123126107D01*
X193921687Y-123097267D01*
X193921685Y-123097267D01*
X181209996Y-123097267D01*
X181142957Y-123077582D01*
X181122315Y-123060948D01*
X177786819Y-119725451D01*
X177753334Y-119664128D01*
X177750500Y-119637770D01*
X177750500Y-118919998D01*
X178194532Y-118919998D01*
X178194532Y-118920001D01*
X178214364Y-119146686D01*
X178214366Y-119146697D01*
X178273258Y-119366488D01*
X178273261Y-119366497D01*
X178369431Y-119572732D01*
X178369432Y-119572734D01*
X178499954Y-119759141D01*
X178660858Y-119920045D01*
X178660861Y-119920047D01*
X178847266Y-120050568D01*
X179053504Y-120146739D01*
X179273308Y-120205635D01*
X179425008Y-120218907D01*
X179499998Y-120225468D01*
X179500000Y-120225468D01*
X179500002Y-120225468D01*
X179574878Y-120218917D01*
X179726692Y-120205635D01*
X179946496Y-120146739D01*
X180152734Y-120050568D01*
X180339139Y-119920047D01*
X180500047Y-119759139D01*
X180516802Y-119735210D01*
X180525088Y-119723377D01*
X180579665Y-119679752D01*
X180626663Y-119670500D01*
X187953337Y-119670500D01*
X188020376Y-119690185D01*
X188054912Y-119723377D01*
X188079954Y-119759141D01*
X188240858Y-119920045D01*
X188240861Y-119920047D01*
X188427266Y-120050568D01*
X188633504Y-120146739D01*
X188853308Y-120205635D01*
X189005008Y-120218907D01*
X189079998Y-120225468D01*
X189080000Y-120225468D01*
X189080002Y-120225468D01*
X189154878Y-120218917D01*
X189306692Y-120205635D01*
X189526496Y-120146739D01*
X189732734Y-120050568D01*
X189919139Y-119920047D01*
X190080047Y-119759139D01*
X190210568Y-119572734D01*
X190306739Y-119366496D01*
X190365635Y-119146692D01*
X190385468Y-118920000D01*
X190365635Y-118693308D01*
X190306739Y-118473504D01*
X190210568Y-118267266D01*
X190080047Y-118080861D01*
X190080045Y-118080858D01*
X189919141Y-117919954D01*
X189732734Y-117789432D01*
X189732732Y-117789431D01*
X189526497Y-117693261D01*
X189526488Y-117693258D01*
X189306697Y-117634366D01*
X189306693Y-117634365D01*
X189306692Y-117634365D01*
X189306691Y-117634364D01*
X189306686Y-117634364D01*
X189080002Y-117614532D01*
X189079998Y-117614532D01*
X188853313Y-117634364D01*
X188853302Y-117634366D01*
X188633511Y-117693258D01*
X188633502Y-117693261D01*
X188427267Y-117789431D01*
X188427265Y-117789432D01*
X188240858Y-117919954D01*
X188079954Y-118080858D01*
X188054912Y-118116623D01*
X188000335Y-118160248D01*
X187953337Y-118169500D01*
X180626663Y-118169500D01*
X180559624Y-118149815D01*
X180525088Y-118116623D01*
X180500045Y-118080858D01*
X180339141Y-117919954D01*
X180152734Y-117789432D01*
X180152732Y-117789431D01*
X179946497Y-117693261D01*
X179946488Y-117693258D01*
X179726697Y-117634366D01*
X179726693Y-117634365D01*
X179726692Y-117634365D01*
X179726691Y-117634364D01*
X179726686Y-117634364D01*
X179500002Y-117614532D01*
X179499998Y-117614532D01*
X179273313Y-117634364D01*
X179273302Y-117634366D01*
X179053511Y-117693258D01*
X179053502Y-117693261D01*
X178847267Y-117789431D01*
X178847265Y-117789432D01*
X178660858Y-117919954D01*
X178499954Y-118080858D01*
X178369432Y-118267265D01*
X178369431Y-118267267D01*
X178273261Y-118473502D01*
X178273258Y-118473511D01*
X178214366Y-118693302D01*
X178214364Y-118693313D01*
X178194532Y-118919998D01*
X177750500Y-118919998D01*
X177750500Y-114362229D01*
X177770185Y-114295190D01*
X177786819Y-114274548D01*
X178141369Y-113919998D01*
X196694532Y-113919998D01*
X196694532Y-113920001D01*
X196714364Y-114146686D01*
X196714366Y-114146697D01*
X196773258Y-114366488D01*
X196773261Y-114366497D01*
X196869431Y-114572732D01*
X196869432Y-114572734D01*
X196999954Y-114759141D01*
X197160858Y-114920045D01*
X197160861Y-114920047D01*
X197347266Y-115050568D01*
X197553504Y-115146739D01*
X197773308Y-115205635D01*
X197935230Y-115219801D01*
X197999998Y-115225468D01*
X198000000Y-115225468D01*
X198000002Y-115225468D01*
X198056673Y-115220509D01*
X198226692Y-115205635D01*
X198446496Y-115146739D01*
X198652734Y-115050568D01*
X198839139Y-114920047D01*
X199000047Y-114759139D01*
X199130568Y-114572734D01*
X199226739Y-114366496D01*
X199285635Y-114146692D01*
X199305468Y-113920000D01*
X199285635Y-113693308D01*
X199226739Y-113473504D01*
X199130568Y-113267266D01*
X199032190Y-113126767D01*
X199000045Y-113080858D01*
X198839141Y-112919954D01*
X198652734Y-112789432D01*
X198652732Y-112789431D01*
X198446497Y-112693261D01*
X198446488Y-112693258D01*
X198226697Y-112634366D01*
X198226693Y-112634365D01*
X198226692Y-112634365D01*
X198226691Y-112634364D01*
X198226686Y-112634364D01*
X198000002Y-112614532D01*
X197999998Y-112614532D01*
X197773313Y-112634364D01*
X197773302Y-112634366D01*
X197553511Y-112693258D01*
X197553502Y-112693261D01*
X197347267Y-112789431D01*
X197347265Y-112789432D01*
X197160858Y-112919954D01*
X196999954Y-113080858D01*
X196869432Y-113267265D01*
X196869431Y-113267267D01*
X196773261Y-113473502D01*
X196773258Y-113473511D01*
X196714366Y-113693302D01*
X196714364Y-113693313D01*
X196694532Y-113919998D01*
X178141369Y-113919998D01*
X179274548Y-112786819D01*
X179335871Y-112753334D01*
X179362229Y-112750500D01*
X191073920Y-112750500D01*
X191171462Y-112731096D01*
X191218913Y-112721658D01*
X191355495Y-112665084D01*
X191431152Y-112614532D01*
X191478416Y-112582952D01*
X196577784Y-107483583D01*
X196639106Y-107450099D01*
X196708798Y-107455083D01*
G37*
%TD.AperFunction*%
%TA.AperFunction,Conductor*%
G36*
X223443039Y-42019685D02*
G01*
X223488794Y-42072489D01*
X223500000Y-42124000D01*
X223500000Y-84467269D01*
X223480315Y-84534308D01*
X223463681Y-84554950D01*
X219845348Y-88173282D01*
X219784025Y-88206767D01*
X219746861Y-88209129D01*
X219580003Y-88194532D01*
X219579998Y-88194532D01*
X219353313Y-88214364D01*
X219353302Y-88214366D01*
X219133511Y-88273258D01*
X219133502Y-88273261D01*
X218927267Y-88369431D01*
X218927265Y-88369432D01*
X218740858Y-88499954D01*
X218579954Y-88660858D01*
X218449432Y-88847265D01*
X218449431Y-88847267D01*
X218353261Y-89053502D01*
X218353258Y-89053511D01*
X218294366Y-89273302D01*
X218294364Y-89273313D01*
X218274532Y-89499998D01*
X218274532Y-89500001D01*
X218294364Y-89726686D01*
X218294366Y-89726697D01*
X218353258Y-89946488D01*
X218353263Y-89946502D01*
X218412295Y-90073096D01*
X218422787Y-90142173D01*
X218394267Y-90205957D01*
X218335790Y-90244196D01*
X218299913Y-90249500D01*
X211282229Y-90249500D01*
X211215190Y-90229815D01*
X211194548Y-90213181D01*
X210746716Y-89765348D01*
X210713231Y-89704025D01*
X210710869Y-89666863D01*
X210725468Y-89500000D01*
X210705635Y-89273308D01*
X210646739Y-89053504D01*
X210550568Y-88847266D01*
X210420047Y-88660861D01*
X210420045Y-88660858D01*
X210259141Y-88499954D01*
X210072734Y-88369432D01*
X210072732Y-88369431D01*
X209866497Y-88273261D01*
X209866488Y-88273258D01*
X209646697Y-88214366D01*
X209646693Y-88214365D01*
X209646692Y-88214365D01*
X209646691Y-88214364D01*
X209646686Y-88214364D01*
X209420002Y-88194532D01*
X209419998Y-88194532D01*
X209193313Y-88214364D01*
X209193302Y-88214366D01*
X208973511Y-88273258D01*
X208973502Y-88273261D01*
X208767267Y-88369431D01*
X208767265Y-88369432D01*
X208580858Y-88499954D01*
X208419954Y-88660858D01*
X208394912Y-88696623D01*
X208340335Y-88740248D01*
X208293337Y-88749500D01*
X203862230Y-88749500D01*
X203795191Y-88729815D01*
X203774549Y-88713181D01*
X197858413Y-82797045D01*
X197809179Y-82764150D01*
X197776355Y-82742218D01*
X197735495Y-82714916D01*
X197735494Y-82714915D01*
X197735492Y-82714914D01*
X197735490Y-82714913D01*
X197598917Y-82658343D01*
X197598907Y-82658340D01*
X197453920Y-82629500D01*
X197453918Y-82629500D01*
X195736663Y-82629500D01*
X195669624Y-82609815D01*
X195635088Y-82576623D01*
X195610045Y-82540858D01*
X195449141Y-82379954D01*
X195262734Y-82249432D01*
X195262728Y-82249429D01*
X195204725Y-82222382D01*
X195152285Y-82176210D01*
X195133133Y-82109017D01*
X195153348Y-82042135D01*
X195204725Y-81997618D01*
X195262734Y-81970568D01*
X195449139Y-81840047D01*
X195610047Y-81679139D01*
X195740568Y-81492734D01*
X195836739Y-81286496D01*
X195895635Y-81066692D01*
X195915468Y-80840000D01*
X195895635Y-80613308D01*
X195836739Y-80393504D01*
X195740568Y-80187266D01*
X195610047Y-80000861D01*
X195610045Y-80000858D01*
X195449141Y-79839954D01*
X195262734Y-79709432D01*
X195262728Y-79709429D01*
X195204725Y-79682382D01*
X195152285Y-79636210D01*
X195133133Y-79569017D01*
X195153348Y-79502135D01*
X195204725Y-79457618D01*
X195262734Y-79430568D01*
X195449139Y-79300047D01*
X195610047Y-79139139D01*
X195740568Y-78952734D01*
X195836739Y-78746496D01*
X195895635Y-78526692D01*
X195915468Y-78300000D01*
X195895635Y-78073308D01*
X195836739Y-77853504D01*
X195740568Y-77647266D01*
X195610047Y-77460861D01*
X195610045Y-77460858D01*
X195449141Y-77299954D01*
X195262734Y-77169432D01*
X195262728Y-77169429D01*
X195204725Y-77142382D01*
X195152285Y-77096210D01*
X195133133Y-77029017D01*
X195153348Y-76962135D01*
X195204725Y-76917618D01*
X195262734Y-76890568D01*
X195449139Y-76760047D01*
X195610047Y-76599139D01*
X195740568Y-76412734D01*
X195836739Y-76206496D01*
X195895635Y-75986692D01*
X195915468Y-75760000D01*
X195895635Y-75533308D01*
X195836739Y-75313504D01*
X195740568Y-75107266D01*
X195610047Y-74920861D01*
X195610045Y-74920858D01*
X195449141Y-74759954D01*
X195262734Y-74629432D01*
X195262728Y-74629429D01*
X195204725Y-74602382D01*
X195152285Y-74556210D01*
X195133133Y-74489017D01*
X195153348Y-74422135D01*
X195204725Y-74377618D01*
X195262734Y-74350568D01*
X195449139Y-74220047D01*
X195610047Y-74059139D01*
X195740568Y-73872734D01*
X195836739Y-73666496D01*
X195895635Y-73446692D01*
X195915468Y-73220000D01*
X195895635Y-72993308D01*
X195836739Y-72773504D01*
X195740568Y-72567266D01*
X195610047Y-72380861D01*
X195610045Y-72380858D01*
X195449141Y-72219954D01*
X195262734Y-72089432D01*
X195262728Y-72089429D01*
X195204725Y-72062382D01*
X195152285Y-72016210D01*
X195133133Y-71949017D01*
X195153348Y-71882135D01*
X195204725Y-71837618D01*
X195262734Y-71810568D01*
X195449139Y-71680047D01*
X195610047Y-71519139D01*
X195740568Y-71332734D01*
X195836739Y-71126496D01*
X195895635Y-70906692D01*
X195915468Y-70680000D01*
X195895635Y-70453308D01*
X195836739Y-70233504D01*
X195740568Y-70027266D01*
X195610047Y-69840861D01*
X195610045Y-69840858D01*
X195449141Y-69679954D01*
X195262734Y-69549432D01*
X195262728Y-69549429D01*
X195204725Y-69522382D01*
X195152285Y-69476210D01*
X195133133Y-69409017D01*
X195153348Y-69342135D01*
X195204725Y-69297618D01*
X195262734Y-69270568D01*
X195449139Y-69140047D01*
X195610047Y-68979139D01*
X195740568Y-68792734D01*
X195836739Y-68586496D01*
X195895635Y-68366692D01*
X195915468Y-68140000D01*
X195895635Y-67913308D01*
X195836739Y-67693504D01*
X195740568Y-67487266D01*
X195610047Y-67300861D01*
X195610045Y-67300858D01*
X195449141Y-67139954D01*
X195262734Y-67009432D01*
X195262728Y-67009429D01*
X195204725Y-66982382D01*
X195152285Y-66936210D01*
X195133133Y-66869017D01*
X195153348Y-66802135D01*
X195204725Y-66757618D01*
X195262734Y-66730568D01*
X195449139Y-66600047D01*
X195610047Y-66439139D01*
X195740568Y-66252734D01*
X195836739Y-66046496D01*
X195895635Y-65826692D01*
X195915468Y-65600000D01*
X195895635Y-65373308D01*
X195836739Y-65153504D01*
X195740568Y-64947266D01*
X195610047Y-64760861D01*
X195610045Y-64760858D01*
X195449141Y-64599954D01*
X195262734Y-64469432D01*
X195262728Y-64469429D01*
X195204725Y-64442382D01*
X195152285Y-64396210D01*
X195133133Y-64329017D01*
X195153348Y-64262135D01*
X195204725Y-64217618D01*
X195262734Y-64190568D01*
X195449139Y-64060047D01*
X195610047Y-63899139D01*
X195740568Y-63712734D01*
X195836739Y-63506496D01*
X195895635Y-63286692D01*
X195915468Y-63060000D01*
X195895635Y-62833308D01*
X195836739Y-62613504D01*
X195740568Y-62407266D01*
X195610047Y-62220861D01*
X195610045Y-62220858D01*
X195449141Y-62059954D01*
X195262734Y-61929432D01*
X195262728Y-61929429D01*
X195204725Y-61902382D01*
X195152285Y-61856210D01*
X195133133Y-61789017D01*
X195153348Y-61722135D01*
X195204725Y-61677618D01*
X195262734Y-61650568D01*
X195449139Y-61520047D01*
X195610047Y-61359139D01*
X195740568Y-61172734D01*
X195836739Y-60966496D01*
X195895635Y-60746692D01*
X195915468Y-60520000D01*
X195895635Y-60293308D01*
X195836739Y-60073504D01*
X195740568Y-59867266D01*
X195610047Y-59680861D01*
X195610045Y-59680858D01*
X195449141Y-59519954D01*
X195262734Y-59389432D01*
X195262728Y-59389429D01*
X195204725Y-59362382D01*
X195152285Y-59316210D01*
X195133133Y-59249017D01*
X195153348Y-59182135D01*
X195204725Y-59137618D01*
X195262734Y-59110568D01*
X195449139Y-58980047D01*
X195610047Y-58819139D01*
X195740568Y-58632734D01*
X195836739Y-58426496D01*
X195895635Y-58206692D01*
X195915468Y-57980000D01*
X195895635Y-57753308D01*
X195836739Y-57533504D01*
X195740568Y-57327266D01*
X195610047Y-57140861D01*
X195610045Y-57140858D01*
X195449141Y-56979954D01*
X195262734Y-56849432D01*
X195262732Y-56849431D01*
X195056497Y-56753261D01*
X195056488Y-56753258D01*
X194836697Y-56694366D01*
X194836693Y-56694365D01*
X194836692Y-56694365D01*
X194836691Y-56694364D01*
X194836686Y-56694364D01*
X194610002Y-56674532D01*
X194609998Y-56674532D01*
X194383313Y-56694364D01*
X194383302Y-56694366D01*
X194163511Y-56753258D01*
X194163502Y-56753261D01*
X193957267Y-56849431D01*
X193957265Y-56849432D01*
X193770858Y-56979954D01*
X193609954Y-57140858D01*
X193479432Y-57327265D01*
X193479431Y-57327267D01*
X193383261Y-57533502D01*
X193383258Y-57533511D01*
X193324366Y-57753302D01*
X193324364Y-57753313D01*
X193304532Y-57979998D01*
X193304532Y-57980001D01*
X193324364Y-58206686D01*
X193324366Y-58206697D01*
X193383258Y-58426488D01*
X193383261Y-58426497D01*
X193479431Y-58632732D01*
X193479432Y-58632734D01*
X193609954Y-58819141D01*
X193770858Y-58980045D01*
X193770861Y-58980047D01*
X193957266Y-59110568D01*
X194015275Y-59137618D01*
X194067714Y-59183791D01*
X194086866Y-59250984D01*
X194066650Y-59317865D01*
X194015275Y-59362382D01*
X193957267Y-59389431D01*
X193957265Y-59389432D01*
X193770858Y-59519954D01*
X193609954Y-59680858D01*
X193479432Y-59867265D01*
X193479431Y-59867267D01*
X193383261Y-60073502D01*
X193383258Y-60073511D01*
X193324366Y-60293302D01*
X193324364Y-60293313D01*
X193304532Y-60519998D01*
X193304532Y-60520001D01*
X193324364Y-60746686D01*
X193324366Y-60746697D01*
X193383258Y-60966488D01*
X193383261Y-60966497D01*
X193479431Y-61172732D01*
X193479432Y-61172734D01*
X193609954Y-61359141D01*
X193770858Y-61520045D01*
X193770861Y-61520047D01*
X193957266Y-61650568D01*
X194015275Y-61677618D01*
X194067714Y-61723791D01*
X194086866Y-61790984D01*
X194066650Y-61857865D01*
X194015275Y-61902382D01*
X193957267Y-61929431D01*
X193957265Y-61929432D01*
X193770858Y-62059954D01*
X193609954Y-62220858D01*
X193479432Y-62407265D01*
X193479431Y-62407267D01*
X193383261Y-62613502D01*
X193383258Y-62613511D01*
X193324366Y-62833302D01*
X193324364Y-62833313D01*
X193304532Y-63059998D01*
X193304532Y-63060001D01*
X193324364Y-63286686D01*
X193324366Y-63286697D01*
X193383258Y-63506488D01*
X193383261Y-63506497D01*
X193479431Y-63712732D01*
X193479432Y-63712734D01*
X193609954Y-63899141D01*
X193770858Y-64060045D01*
X193770861Y-64060047D01*
X193957266Y-64190568D01*
X194015275Y-64217618D01*
X194067714Y-64263791D01*
X194086866Y-64330984D01*
X194066650Y-64397865D01*
X194015275Y-64442382D01*
X193957267Y-64469431D01*
X193957265Y-64469432D01*
X193770858Y-64599954D01*
X193609954Y-64760858D01*
X193479432Y-64947265D01*
X193479431Y-64947267D01*
X193383261Y-65153502D01*
X193383258Y-65153511D01*
X193324366Y-65373302D01*
X193324364Y-65373313D01*
X193304532Y-65599998D01*
X193304532Y-65600001D01*
X193324364Y-65826686D01*
X193324366Y-65826697D01*
X193383258Y-66046488D01*
X193383261Y-66046497D01*
X193479431Y-66252732D01*
X193479432Y-66252734D01*
X193609954Y-66439141D01*
X193770858Y-66600045D01*
X193770861Y-66600047D01*
X193957266Y-66730568D01*
X194015275Y-66757618D01*
X194067714Y-66803791D01*
X194086866Y-66870984D01*
X194066650Y-66937865D01*
X194015275Y-66982382D01*
X193957267Y-67009431D01*
X193957265Y-67009432D01*
X193770858Y-67139954D01*
X193609953Y-67300859D01*
X193592690Y-67325513D01*
X193538112Y-67369137D01*
X193468613Y-67376328D01*
X193406259Y-67344804D01*
X193403436Y-67342068D01*
X191786819Y-65725451D01*
X191753334Y-65664128D01*
X191750500Y-65637770D01*
X191750500Y-52926081D01*
X191750499Y-52926080D01*
X191735267Y-52849500D01*
X191721659Y-52781088D01*
X191673608Y-52665084D01*
X191665084Y-52644505D01*
X191582951Y-52521584D01*
X191478416Y-52417049D01*
X190811867Y-51750500D01*
X188478421Y-49417052D01*
X188478414Y-49417046D01*
X188404729Y-49367812D01*
X188404729Y-49367813D01*
X188355491Y-49334913D01*
X188218917Y-49278343D01*
X188218907Y-49278340D01*
X188073920Y-49249500D01*
X188073918Y-49249500D01*
X176573917Y-49249500D01*
X176426082Y-49249500D01*
X176426080Y-49249500D01*
X176281092Y-49278340D01*
X176281082Y-49278343D01*
X176144511Y-49334912D01*
X176144498Y-49334919D01*
X176021584Y-49417048D01*
X176021580Y-49417051D01*
X174417050Y-51021580D01*
X174417044Y-51021588D01*
X174367812Y-51095268D01*
X174367813Y-51095269D01*
X174334921Y-51144496D01*
X174334914Y-51144508D01*
X174278342Y-51281086D01*
X174278340Y-51281092D01*
X174249500Y-51426079D01*
X174249500Y-51426082D01*
X174249500Y-123073918D01*
X174249500Y-123073920D01*
X174249499Y-123073920D01*
X174278340Y-123218907D01*
X174278343Y-123218917D01*
X174334913Y-123355490D01*
X174334914Y-123355491D01*
X174334916Y-123355495D01*
X174351648Y-123380536D01*
X174382871Y-123427266D01*
X174417051Y-123478420D01*
X174417052Y-123478421D01*
X176804266Y-125865633D01*
X177521585Y-126582952D01*
X177548839Y-126601162D01*
X177562374Y-126610206D01*
X177644498Y-126665080D01*
X177644511Y-126665087D01*
X177701079Y-126688518D01*
X177701080Y-126688518D01*
X177781088Y-126721659D01*
X177897241Y-126744763D01*
X177916468Y-126748587D01*
X177926081Y-126750500D01*
X177926082Y-126750500D01*
X177926083Y-126750500D01*
X178073918Y-126750500D01*
X190637770Y-126750500D01*
X190704809Y-126770185D01*
X190725451Y-126786819D01*
X195633181Y-131694548D01*
X195666666Y-131755871D01*
X195669500Y-131782229D01*
X195669500Y-139373336D01*
X195649815Y-139440375D01*
X195616625Y-139474910D01*
X195580863Y-139499951D01*
X195419951Y-139660862D01*
X195289432Y-139847265D01*
X195289431Y-139847267D01*
X195193261Y-140053502D01*
X195193258Y-140053511D01*
X195134366Y-140273302D01*
X195134364Y-140273313D01*
X195114532Y-140499998D01*
X195114532Y-140500001D01*
X195134364Y-140726686D01*
X195134366Y-140726697D01*
X195193258Y-140946488D01*
X195193261Y-140946497D01*
X195289431Y-141152732D01*
X195289432Y-141152734D01*
X195419954Y-141339141D01*
X195580858Y-141500045D01*
X195580861Y-141500047D01*
X195767266Y-141630568D01*
X195973504Y-141726739D01*
X196193308Y-141785635D01*
X196355230Y-141799801D01*
X196419998Y-141805468D01*
X196420000Y-141805468D01*
X196420002Y-141805468D01*
X196476673Y-141800509D01*
X196646692Y-141785635D01*
X196866496Y-141726739D01*
X197072734Y-141630568D01*
X197259139Y-141500047D01*
X197420047Y-141339139D01*
X197550568Y-141152734D01*
X197646739Y-140946496D01*
X197705635Y-140726692D01*
X197725468Y-140500000D01*
X197705635Y-140273308D01*
X197646739Y-140053504D01*
X197550568Y-139847266D01*
X197420047Y-139660861D01*
X197259139Y-139499953D01*
X197254373Y-139496615D01*
X197223375Y-139474910D01*
X197179751Y-139420332D01*
X197170500Y-139373336D01*
X197170500Y-131346081D01*
X197170499Y-131346080D01*
X197159710Y-131291836D01*
X197141659Y-131201088D01*
X197099182Y-131098540D01*
X197085084Y-131064505D01*
X197085082Y-131064502D01*
X197085080Y-131064498D01*
X197002952Y-130941585D01*
X197002951Y-130941584D01*
X196898416Y-130837049D01*
X191478416Y-125417048D01*
X191478415Y-125417047D01*
X191478413Y-125417045D01*
X191432247Y-125386200D01*
X191401469Y-125365635D01*
X191401468Y-125365634D01*
X191355503Y-125334920D01*
X191355488Y-125334912D01*
X191218917Y-125278343D01*
X191218907Y-125278340D01*
X191073920Y-125249500D01*
X191073918Y-125249500D01*
X178362229Y-125249500D01*
X178295190Y-125229815D01*
X178274548Y-125213181D01*
X175786819Y-122725451D01*
X175753334Y-122664128D01*
X175750500Y-122637770D01*
X175750500Y-120073920D01*
X176249499Y-120073920D01*
X176278340Y-120218907D01*
X176278343Y-120218917D01*
X176334914Y-120355492D01*
X176367812Y-120404727D01*
X176367813Y-120404730D01*
X176417046Y-120478414D01*
X176417052Y-120478421D01*
X180264816Y-124326183D01*
X180369351Y-124430718D01*
X180369352Y-124430719D01*
X180492265Y-124512847D01*
X180492278Y-124512854D01*
X180628849Y-124569423D01*
X180628854Y-124569425D01*
X180628858Y-124569425D01*
X180628859Y-124569426D01*
X180773846Y-124598267D01*
X180773849Y-124598267D01*
X193485537Y-124598267D01*
X193552576Y-124617952D01*
X193573218Y-124634586D01*
X195417049Y-126478416D01*
X195521582Y-126582949D01*
X195521585Y-126582952D01*
X195644498Y-126665080D01*
X195644511Y-126665087D01*
X195781082Y-126721656D01*
X195781087Y-126721658D01*
X195781091Y-126721658D01*
X195781092Y-126721659D01*
X195926079Y-126750500D01*
X195926082Y-126750500D01*
X202153920Y-126750500D01*
X202251462Y-126731096D01*
X202298913Y-126721658D01*
X202435495Y-126665084D01*
X202484729Y-126632186D01*
X202558416Y-126582952D01*
X203234652Y-125906714D01*
X203295973Y-125873231D01*
X203333135Y-125870869D01*
X203476366Y-125883400D01*
X203499999Y-125885468D01*
X203500000Y-125885468D01*
X203500002Y-125885468D01*
X203556673Y-125880509D01*
X203726692Y-125865635D01*
X203946496Y-125806739D01*
X204152734Y-125710568D01*
X204339139Y-125580047D01*
X204500047Y-125419139D01*
X204630568Y-125232734D01*
X204726739Y-125026496D01*
X204785635Y-124806692D01*
X204805468Y-124580000D01*
X204785635Y-124353308D01*
X204726739Y-124133504D01*
X204630568Y-123927266D01*
X204500047Y-123740861D01*
X204500045Y-123740858D01*
X204339141Y-123579954D01*
X204152734Y-123449432D01*
X204152732Y-123449431D01*
X203946497Y-123353261D01*
X203946488Y-123353258D01*
X203726697Y-123294366D01*
X203726693Y-123294365D01*
X203726692Y-123294365D01*
X203726691Y-123294364D01*
X203726686Y-123294364D01*
X203500002Y-123274532D01*
X203499998Y-123274532D01*
X203273313Y-123294364D01*
X203273302Y-123294366D01*
X203053511Y-123353258D01*
X203053502Y-123353261D01*
X202847267Y-123449431D01*
X202847265Y-123449432D01*
X202660858Y-123579954D01*
X202499954Y-123740858D01*
X202369432Y-123927265D01*
X202369431Y-123927267D01*
X202273261Y-124133502D01*
X202273258Y-124133511D01*
X202214366Y-124353302D01*
X202214364Y-124353313D01*
X202194532Y-124579998D01*
X202194532Y-124580003D01*
X202209129Y-124746861D01*
X202195362Y-124815360D01*
X202173282Y-124845348D01*
X201805451Y-125213181D01*
X201744128Y-125246666D01*
X201717770Y-125249500D01*
X198969049Y-125249500D01*
X198902010Y-125229815D01*
X198856255Y-125177011D01*
X198846311Y-125107853D01*
X198875336Y-125044297D01*
X198881368Y-125037819D01*
X199000045Y-124919141D01*
X199000047Y-124919139D01*
X199130568Y-124732734D01*
X199226739Y-124526496D01*
X199285635Y-124306692D01*
X199305468Y-124080000D01*
X199290869Y-123913137D01*
X199304635Y-123844639D01*
X199326713Y-123814653D01*
X200354548Y-122786819D01*
X200415871Y-122753334D01*
X200442229Y-122750500D01*
X211073920Y-122750500D01*
X211171462Y-122731096D01*
X211218913Y-122721658D01*
X211355495Y-122665084D01*
X211404729Y-122632186D01*
X211478416Y-122582952D01*
X212582952Y-121478415D01*
X212634371Y-121401460D01*
X212665084Y-121355495D01*
X212697042Y-121278342D01*
X212721659Y-121218912D01*
X212750500Y-121073917D01*
X212750500Y-120926082D01*
X212750500Y-120362228D01*
X212770185Y-120295189D01*
X212786814Y-120274552D01*
X214388319Y-118673046D01*
X214449642Y-118639562D01*
X214519334Y-118644546D01*
X214575267Y-118686418D01*
X214599684Y-118751882D01*
X214600000Y-118760728D01*
X214600000Y-119487844D01*
X214606401Y-119547372D01*
X214606403Y-119547379D01*
X214656645Y-119682086D01*
X214656649Y-119682093D01*
X214742809Y-119797187D01*
X214742812Y-119797190D01*
X214857906Y-119883350D01*
X214857913Y-119883354D01*
X214992620Y-119933596D01*
X214992627Y-119933598D01*
X215052155Y-119939999D01*
X215052172Y-119940000D01*
X215750000Y-119940000D01*
X215750000Y-118915277D01*
X215826306Y-118959333D01*
X215940756Y-118990000D01*
X216059244Y-118990000D01*
X216173694Y-118959333D01*
X216250000Y-118915277D01*
X216250000Y-119940000D01*
X216947828Y-119940000D01*
X216947844Y-119939999D01*
X217007372Y-119933598D01*
X217007379Y-119933596D01*
X217142086Y-119883354D01*
X217142093Y-119883350D01*
X217257187Y-119797190D01*
X217257190Y-119797187D01*
X217343350Y-119682093D01*
X217343354Y-119682086D01*
X217393596Y-119547379D01*
X217393598Y-119547372D01*
X217399999Y-119487844D01*
X217400000Y-119487827D01*
X217400000Y-118790000D01*
X216375278Y-118790000D01*
X216419333Y-118713694D01*
X216450000Y-118599244D01*
X216450000Y-118480756D01*
X216419333Y-118366306D01*
X216375278Y-118290000D01*
X217400000Y-118290000D01*
X217400000Y-117592172D01*
X217399999Y-117592155D01*
X217393598Y-117532627D01*
X217393596Y-117532620D01*
X217343354Y-117397913D01*
X217343350Y-117397906D01*
X217257190Y-117282812D01*
X217257187Y-117282809D01*
X217142093Y-117196649D01*
X217142086Y-117196645D01*
X217061729Y-117166674D01*
X217005795Y-117124803D01*
X216981378Y-117059338D01*
X216996230Y-116991065D01*
X217013826Y-116966516D01*
X217108979Y-116863153D01*
X217235924Y-116668849D01*
X217329157Y-116456300D01*
X217386134Y-116231305D01*
X217386135Y-116231297D01*
X217405300Y-116000006D01*
X217405300Y-115999993D01*
X217386135Y-115768702D01*
X217386133Y-115768691D01*
X217329157Y-115543699D01*
X217235924Y-115331151D01*
X217108983Y-115136852D01*
X217108980Y-115136849D01*
X217108979Y-115136847D01*
X216951784Y-114966087D01*
X216951779Y-114966083D01*
X216951777Y-114966081D01*
X216768634Y-114823535D01*
X216768628Y-114823531D01*
X216564504Y-114713064D01*
X216564495Y-114713061D01*
X216344984Y-114637702D01*
X216173282Y-114609050D01*
X216116049Y-114599500D01*
X215883951Y-114599500D01*
X215838164Y-114607140D01*
X215655015Y-114637702D01*
X215435504Y-114713061D01*
X215435495Y-114713064D01*
X215231371Y-114823531D01*
X215231365Y-114823535D01*
X215048222Y-114966081D01*
X215048219Y-114966084D01*
X214891016Y-115136852D01*
X214764075Y-115331151D01*
X214670842Y-115543699D01*
X214613866Y-115768691D01*
X214613864Y-115768702D01*
X214594700Y-115999993D01*
X214594700Y-116000006D01*
X214613865Y-116231303D01*
X214615455Y-116237581D01*
X214612829Y-116307401D01*
X214582930Y-116355701D01*
X211414691Y-119523940D01*
X211353368Y-119557425D01*
X211283676Y-119552441D01*
X211227743Y-119510569D01*
X211203326Y-119445105D01*
X211207235Y-119404165D01*
X211235711Y-119297890D01*
X211235712Y-119297884D01*
X211254775Y-119080000D01*
X211254775Y-119079999D01*
X211235712Y-118862115D01*
X211235710Y-118862105D01*
X211179105Y-118650849D01*
X211179101Y-118650840D01*
X211086667Y-118452614D01*
X211086666Y-118452612D01*
X211043124Y-118390428D01*
X211043124Y-118390427D01*
X210400000Y-119033551D01*
X210400000Y-119027339D01*
X210372741Y-118925606D01*
X210320080Y-118834394D01*
X210245606Y-118759920D01*
X210154394Y-118707259D01*
X210052661Y-118680000D01*
X210046447Y-118680000D01*
X210689571Y-118036874D01*
X210627387Y-117993333D01*
X210475824Y-117922658D01*
X210423385Y-117876486D01*
X210404233Y-117809292D01*
X210424449Y-117742411D01*
X210475822Y-117697895D01*
X210627639Y-117627102D01*
X210806877Y-117501598D01*
X210961598Y-117346877D01*
X211087102Y-117167639D01*
X211179575Y-116969330D01*
X211236207Y-116757977D01*
X211255277Y-116540000D01*
X211236207Y-116322023D01*
X211179575Y-116110670D01*
X211087102Y-115912362D01*
X211087100Y-115912359D01*
X211087099Y-115912357D01*
X210961599Y-115733124D01*
X210892603Y-115664128D01*
X210806877Y-115578402D01*
X210660733Y-115476071D01*
X210617112Y-115421497D01*
X210609919Y-115351998D01*
X210641441Y-115289644D01*
X210701671Y-115254230D01*
X210731859Y-115250499D01*
X210797872Y-115250499D01*
X210857483Y-115244091D01*
X210992331Y-115193796D01*
X211107546Y-115107546D01*
X211193796Y-114992331D01*
X211244091Y-114857483D01*
X211250500Y-114797873D01*
X211250499Y-113874499D01*
X211270183Y-113807461D01*
X211322987Y-113761706D01*
X211374499Y-113750500D01*
X217637770Y-113750500D01*
X217704809Y-113770185D01*
X217725451Y-113786819D01*
X219813181Y-115874548D01*
X219846666Y-115935871D01*
X219849500Y-115962229D01*
X219849500Y-117519726D01*
X219829815Y-117586765D01*
X219796625Y-117621299D01*
X219785389Y-117629166D01*
X219785382Y-117629172D01*
X219629172Y-117785381D01*
X219502466Y-117966338D01*
X219502465Y-117966340D01*
X219409107Y-118166548D01*
X219409104Y-118166554D01*
X219351930Y-118379929D01*
X219351929Y-118379937D01*
X219332677Y-118599997D01*
X219332677Y-118600002D01*
X219351929Y-118820062D01*
X219351930Y-118820070D01*
X219409104Y-119033445D01*
X219409105Y-119033447D01*
X219409106Y-119033450D01*
X219461914Y-119146697D01*
X219502466Y-119233662D01*
X219502468Y-119233666D01*
X219629170Y-119414615D01*
X219629175Y-119414621D01*
X219785378Y-119570824D01*
X219785384Y-119570829D01*
X219966333Y-119697531D01*
X219966335Y-119697532D01*
X219966338Y-119697534D01*
X220166550Y-119790894D01*
X220379932Y-119848070D01*
X220537123Y-119861822D01*
X220599998Y-119867323D01*
X220600000Y-119867323D01*
X220600002Y-119867323D01*
X220655017Y-119862509D01*
X220820068Y-119848070D01*
X221033450Y-119790894D01*
X221233662Y-119697534D01*
X221414620Y-119570826D01*
X221570826Y-119414620D01*
X221697534Y-119233662D01*
X221790894Y-119033450D01*
X221848070Y-118820068D01*
X221867323Y-118600000D01*
X221848070Y-118379932D01*
X221790894Y-118166550D01*
X221697534Y-117966339D01*
X221577756Y-117795277D01*
X221570827Y-117785381D01*
X221505021Y-117719575D01*
X221414620Y-117629174D01*
X221414616Y-117629171D01*
X221414610Y-117629166D01*
X221403375Y-117621299D01*
X221359751Y-117566722D01*
X221350500Y-117519726D01*
X221350500Y-115526079D01*
X221321659Y-115381092D01*
X221321658Y-115381091D01*
X221321658Y-115381087D01*
X221289642Y-115303793D01*
X221265087Y-115244511D01*
X221265080Y-115244498D01*
X221182952Y-115121585D01*
X221134099Y-115072732D01*
X221078416Y-115017049D01*
X220481365Y-114419998D01*
X218478421Y-112417052D01*
X218478414Y-112417046D01*
X218404729Y-112367812D01*
X218404729Y-112367813D01*
X218355491Y-112334913D01*
X218218917Y-112278343D01*
X218218908Y-112278340D01*
X218114423Y-112257556D01*
X218052513Y-112225170D01*
X218017939Y-112164454D01*
X218021680Y-112094685D01*
X218039350Y-112061627D01*
X218053796Y-112042331D01*
X218104091Y-111907483D01*
X218109062Y-111861242D01*
X218135799Y-111796694D01*
X218193191Y-111756846D01*
X218232351Y-111750500D01*
X219519726Y-111750500D01*
X219586765Y-111770185D01*
X219621300Y-111803376D01*
X219629171Y-111814617D01*
X219629173Y-111814619D01*
X219629174Y-111814620D01*
X219785380Y-111970826D01*
X219785383Y-111970828D01*
X219785384Y-111970829D01*
X219966333Y-112097531D01*
X219966335Y-112097532D01*
X219966338Y-112097534D01*
X220166550Y-112190894D01*
X220379932Y-112248070D01*
X220537123Y-112261822D01*
X220599998Y-112267323D01*
X220600000Y-112267323D01*
X220600002Y-112267323D01*
X220655017Y-112262509D01*
X220820068Y-112248070D01*
X221033450Y-112190894D01*
X221233662Y-112097534D01*
X221414620Y-111970826D01*
X221570826Y-111814620D01*
X221697534Y-111633662D01*
X221790894Y-111433450D01*
X221848070Y-111220068D01*
X221867323Y-111000000D01*
X221848070Y-110779932D01*
X221790894Y-110566550D01*
X221697534Y-110366339D01*
X221615723Y-110249500D01*
X221570827Y-110185381D01*
X221524198Y-110138752D01*
X221414620Y-110029174D01*
X221414616Y-110029171D01*
X221414615Y-110029170D01*
X221233666Y-109902468D01*
X221233662Y-109902466D01*
X221104965Y-109842454D01*
X221033450Y-109809106D01*
X221033447Y-109809105D01*
X221033445Y-109809104D01*
X220820070Y-109751930D01*
X220820062Y-109751929D01*
X220600002Y-109732677D01*
X220599998Y-109732677D01*
X220379937Y-109751929D01*
X220379929Y-109751930D01*
X220166554Y-109809104D01*
X220166548Y-109809107D01*
X219966340Y-109902465D01*
X219966338Y-109902466D01*
X219785377Y-110029175D01*
X219629173Y-110185379D01*
X219621300Y-110196624D01*
X219566723Y-110240249D01*
X219519726Y-110249500D01*
X218232351Y-110249500D01*
X218165312Y-110229815D01*
X218119557Y-110177011D01*
X218109061Y-110138752D01*
X218104091Y-110092516D01*
X218053797Y-109957671D01*
X218053793Y-109957664D01*
X217967547Y-109842455D01*
X217967544Y-109842452D01*
X217852335Y-109756206D01*
X217852328Y-109756202D01*
X217717482Y-109705908D01*
X217717483Y-109705908D01*
X217657883Y-109699501D01*
X217657881Y-109699500D01*
X217657873Y-109699500D01*
X217657864Y-109699500D01*
X215962129Y-109699500D01*
X215962123Y-109699501D01*
X215902516Y-109705908D01*
X215767671Y-109756202D01*
X215767664Y-109756206D01*
X215652455Y-109842452D01*
X215652452Y-109842455D01*
X215566206Y-109957664D01*
X215566202Y-109957671D01*
X215515908Y-110092517D01*
X215509501Y-110152116D01*
X215509500Y-110152135D01*
X215509500Y-111847870D01*
X215509501Y-111847876D01*
X215515908Y-111907483D01*
X215566202Y-112042328D01*
X215566206Y-112042334D01*
X215572835Y-112051190D01*
X215597252Y-112116654D01*
X215582400Y-112184927D01*
X215532995Y-112234332D01*
X215473568Y-112249500D01*
X210926079Y-112249500D01*
X210898683Y-112254948D01*
X210829092Y-112248716D01*
X210773918Y-112205849D01*
X210750677Y-112139958D01*
X210750500Y-112133329D01*
X210750500Y-111736079D01*
X210721659Y-111591092D01*
X210721658Y-111591091D01*
X210721658Y-111591087D01*
X210665084Y-111454505D01*
X210627607Y-111398416D01*
X210627607Y-111398415D01*
X210585178Y-111334916D01*
X210582952Y-111331584D01*
X210516714Y-111265346D01*
X210483231Y-111204026D01*
X210480869Y-111166863D01*
X210495468Y-111000000D01*
X210475635Y-110773308D01*
X210424629Y-110582950D01*
X210416741Y-110553511D01*
X210416738Y-110553502D01*
X210320568Y-110347267D01*
X210320567Y-110347265D01*
X210190045Y-110160858D01*
X210029141Y-109999954D01*
X209842734Y-109869432D01*
X209842732Y-109869431D01*
X209636497Y-109773261D01*
X209636488Y-109773258D01*
X209416697Y-109714366D01*
X209416693Y-109714365D01*
X209416692Y-109714365D01*
X209416691Y-109714364D01*
X209416686Y-109714364D01*
X209190002Y-109694532D01*
X209189998Y-109694532D01*
X208963313Y-109714364D01*
X208963302Y-109714366D01*
X208743511Y-109773258D01*
X208743502Y-109773261D01*
X208537267Y-109869431D01*
X208537265Y-109869432D01*
X208350858Y-109999954D01*
X208189954Y-110160858D01*
X208059432Y-110347265D01*
X208059431Y-110347267D01*
X207986882Y-110502849D01*
X207940709Y-110555288D01*
X207873516Y-110574440D01*
X207806635Y-110554224D01*
X207761300Y-110501059D01*
X207750500Y-110450444D01*
X207750500Y-104362229D01*
X207770185Y-104295190D01*
X207786819Y-104274548D01*
X208314548Y-103746819D01*
X208375871Y-103713334D01*
X208402229Y-103710500D01*
X214483988Y-103710500D01*
X214551027Y-103730185D01*
X214596782Y-103782989D01*
X214607564Y-103844738D01*
X214595684Y-103988132D01*
X214594700Y-104000004D01*
X214594700Y-104000006D01*
X214613864Y-104231297D01*
X214613866Y-104231308D01*
X214670842Y-104456300D01*
X214764075Y-104668848D01*
X214891018Y-104863150D01*
X214986167Y-104966510D01*
X215017089Y-105029164D01*
X215009228Y-105098590D01*
X214965081Y-105152746D01*
X214938271Y-105166674D01*
X214857911Y-105196646D01*
X214857906Y-105196649D01*
X214742812Y-105282809D01*
X214742809Y-105282812D01*
X214656649Y-105397906D01*
X214656645Y-105397913D01*
X214606403Y-105532620D01*
X214606401Y-105532627D01*
X214600000Y-105592155D01*
X214600000Y-106290000D01*
X215624722Y-106290000D01*
X215580667Y-106366306D01*
X215550000Y-106480756D01*
X215550000Y-106599244D01*
X215580667Y-106713694D01*
X215624722Y-106790000D01*
X214600000Y-106790000D01*
X214600000Y-107487844D01*
X214606401Y-107547372D01*
X214606403Y-107547379D01*
X214656645Y-107682086D01*
X214656649Y-107682093D01*
X214742809Y-107797187D01*
X214742812Y-107797190D01*
X214857906Y-107883350D01*
X214857913Y-107883354D01*
X214992620Y-107933596D01*
X214992627Y-107933598D01*
X215052155Y-107939999D01*
X215052172Y-107940000D01*
X215750000Y-107940000D01*
X215750000Y-106915277D01*
X215826306Y-106959333D01*
X215940756Y-106990000D01*
X216059244Y-106990000D01*
X216173694Y-106959333D01*
X216250000Y-106915277D01*
X216250000Y-107940000D01*
X216947828Y-107940000D01*
X216947844Y-107939999D01*
X217007372Y-107933598D01*
X217007379Y-107933596D01*
X217142086Y-107883354D01*
X217142093Y-107883350D01*
X217257187Y-107797190D01*
X217257190Y-107797187D01*
X217343350Y-107682093D01*
X217343354Y-107682086D01*
X217393596Y-107547379D01*
X217393598Y-107547372D01*
X217399999Y-107487844D01*
X217400000Y-107487827D01*
X217400000Y-106790000D01*
X216375278Y-106790000D01*
X216419333Y-106713694D01*
X216450000Y-106599244D01*
X216450000Y-106480756D01*
X216419333Y-106366306D01*
X216375278Y-106290000D01*
X217400000Y-106290000D01*
X217400000Y-105592172D01*
X217399999Y-105592155D01*
X217393598Y-105532627D01*
X217393596Y-105532620D01*
X217343354Y-105397913D01*
X217343350Y-105397906D01*
X217257190Y-105282812D01*
X217257187Y-105282809D01*
X217142093Y-105196649D01*
X217142086Y-105196645D01*
X217061729Y-105166674D01*
X217005795Y-105124803D01*
X216981378Y-105059338D01*
X216996230Y-104991065D01*
X217013826Y-104966516D01*
X217108979Y-104863153D01*
X217235924Y-104668849D01*
X217329157Y-104456300D01*
X217386134Y-104231305D01*
X217386135Y-104231297D01*
X217405300Y-104000006D01*
X217405300Y-103999993D01*
X217386135Y-103768702D01*
X217386133Y-103768691D01*
X217329157Y-103543699D01*
X217235924Y-103331151D01*
X217108983Y-103136852D01*
X217108980Y-103136849D01*
X217108979Y-103136847D01*
X216951784Y-102966087D01*
X216951779Y-102966083D01*
X216951777Y-102966081D01*
X216768634Y-102823535D01*
X216768628Y-102823531D01*
X216564504Y-102713064D01*
X216564495Y-102713061D01*
X216344984Y-102637702D01*
X216173282Y-102609050D01*
X216116049Y-102599500D01*
X215883951Y-102599500D01*
X215755726Y-102620896D01*
X215686361Y-102612514D01*
X215647636Y-102586268D01*
X215438421Y-102377052D01*
X215438414Y-102377046D01*
X215364729Y-102327812D01*
X215364729Y-102327813D01*
X215315491Y-102294913D01*
X215178917Y-102238343D01*
X215178907Y-102238340D01*
X215033920Y-102209500D01*
X215033918Y-102209500D01*
X207966082Y-102209500D01*
X207966080Y-102209500D01*
X207821092Y-102238340D01*
X207821082Y-102238343D01*
X207684508Y-102294913D01*
X207561584Y-102377048D01*
X207561584Y-102377049D01*
X206417048Y-103521583D01*
X206398217Y-103549768D01*
X206398216Y-103549769D01*
X206334913Y-103644508D01*
X206278343Y-103781082D01*
X206278340Y-103781092D01*
X206249500Y-103926079D01*
X206249500Y-110557769D01*
X206229815Y-110624808D01*
X206213181Y-110645450D01*
X203765348Y-113093282D01*
X203704025Y-113126767D01*
X203666861Y-113129129D01*
X203500003Y-113114532D01*
X203499998Y-113114532D01*
X203273313Y-113134364D01*
X203273302Y-113134366D01*
X203053511Y-113193258D01*
X203053502Y-113193261D01*
X202847267Y-113289431D01*
X202847265Y-113289432D01*
X202660858Y-113419954D01*
X202499954Y-113580858D01*
X202369432Y-113767265D01*
X202369431Y-113767267D01*
X202273261Y-113973502D01*
X202273258Y-113973511D01*
X202214366Y-114193302D01*
X202214364Y-114193313D01*
X202194532Y-114419998D01*
X202194532Y-114420001D01*
X202214364Y-114646686D01*
X202214366Y-114646697D01*
X202273258Y-114866488D01*
X202273261Y-114866497D01*
X202369431Y-115072732D01*
X202369432Y-115072734D01*
X202499954Y-115259141D01*
X202660858Y-115420045D01*
X202660861Y-115420047D01*
X202847266Y-115550568D01*
X203053504Y-115646739D01*
X203273308Y-115705635D01*
X203435230Y-115719801D01*
X203499998Y-115725468D01*
X203500000Y-115725468D01*
X203500002Y-115725468D01*
X203556673Y-115720509D01*
X203726692Y-115705635D01*
X203946496Y-115646739D01*
X204152734Y-115550568D01*
X204339139Y-115420047D01*
X204500047Y-115259139D01*
X204630568Y-115072734D01*
X204726739Y-114866496D01*
X204785635Y-114646692D01*
X204805468Y-114420000D01*
X204790869Y-114253137D01*
X204804635Y-114184639D01*
X204826713Y-114154653D01*
X207582951Y-111398416D01*
X207665084Y-111275495D01*
X207678525Y-111243043D01*
X207722363Y-111188642D01*
X207788657Y-111166575D01*
X207856356Y-111183852D01*
X207903968Y-111234988D01*
X207912861Y-111258402D01*
X207963259Y-111446491D01*
X207963261Y-111446497D01*
X208059431Y-111652732D01*
X208059432Y-111652734D01*
X208189954Y-111839141D01*
X208350858Y-112000045D01*
X208350861Y-112000047D01*
X208537266Y-112130568D01*
X208743504Y-112226739D01*
X208743509Y-112226740D01*
X208743511Y-112226741D01*
X208796415Y-112240916D01*
X208963308Y-112285635D01*
X209136308Y-112300770D01*
X209201376Y-112326222D01*
X209242355Y-112382813D01*
X209249500Y-112424298D01*
X209249500Y-112633023D01*
X209229815Y-112700062D01*
X209177011Y-112745817D01*
X209149865Y-112753266D01*
X209150068Y-112754124D01*
X209142520Y-112755907D01*
X209007671Y-112806202D01*
X209007664Y-112806206D01*
X208892455Y-112892452D01*
X208892452Y-112892455D01*
X208806206Y-113007664D01*
X208806202Y-113007671D01*
X208755908Y-113142517D01*
X208749501Y-113202116D01*
X208749500Y-113202135D01*
X208749500Y-114797870D01*
X208749501Y-114797876D01*
X208755908Y-114857483D01*
X208806202Y-114992328D01*
X208806206Y-114992335D01*
X208892452Y-115107544D01*
X208892455Y-115107547D01*
X209007664Y-115193793D01*
X209007671Y-115193797D01*
X209142517Y-115244091D01*
X209142516Y-115244091D01*
X209146423Y-115244511D01*
X209202127Y-115250500D01*
X209268139Y-115250499D01*
X209335176Y-115270183D01*
X209380932Y-115322986D01*
X209390876Y-115392144D01*
X209361852Y-115455700D01*
X209339262Y-115476074D01*
X209193118Y-115578405D01*
X209038402Y-115733121D01*
X208912900Y-115912357D01*
X208912898Y-115912361D01*
X208820426Y-116110668D01*
X208820422Y-116110677D01*
X208807852Y-116157593D01*
X208771487Y-116217253D01*
X208708641Y-116247783D01*
X208688077Y-116249500D01*
X202362229Y-116249500D01*
X202295190Y-116229815D01*
X202274548Y-116213181D01*
X201786819Y-115725451D01*
X201753334Y-115664128D01*
X201750500Y-115637770D01*
X201750500Y-111006079D01*
X201734587Y-110926083D01*
X201734587Y-110926082D01*
X201721659Y-110861088D01*
X201694825Y-110796307D01*
X201675851Y-110750499D01*
X201675850Y-110750497D01*
X201665084Y-110724506D01*
X201665084Y-110724505D01*
X201598469Y-110624808D01*
X201582954Y-110601588D01*
X201582953Y-110601587D01*
X201582951Y-110601584D01*
X201478416Y-110497049D01*
X200675899Y-109694532D01*
X199326716Y-108345348D01*
X199293231Y-108284025D01*
X199290869Y-108246863D01*
X199305468Y-108080000D01*
X199285635Y-107853308D01*
X199226739Y-107633504D01*
X199130568Y-107427266D01*
X199000047Y-107240861D01*
X199000045Y-107240858D01*
X198839141Y-107079954D01*
X198652734Y-106949432D01*
X198652732Y-106949431D01*
X198446497Y-106853261D01*
X198446488Y-106853258D01*
X198226697Y-106794366D01*
X198226693Y-106794365D01*
X198226692Y-106794365D01*
X198226691Y-106794364D01*
X198226686Y-106794364D01*
X198000002Y-106774532D01*
X197999998Y-106774532D01*
X197773313Y-106794364D01*
X197773302Y-106794366D01*
X197553511Y-106853258D01*
X197553501Y-106853262D01*
X197543664Y-106857849D01*
X197474586Y-106868337D01*
X197410804Y-106839814D01*
X197372567Y-106781336D01*
X197372016Y-106711469D01*
X197403583Y-106657784D01*
X204082952Y-99978415D01*
X204157031Y-99867547D01*
X204165084Y-99855495D01*
X204192006Y-99790499D01*
X204221659Y-99718912D01*
X204250500Y-99573917D01*
X204250500Y-99426082D01*
X204250500Y-99046662D01*
X204270185Y-98979623D01*
X204303379Y-98945086D01*
X204339140Y-98920046D01*
X204500045Y-98759141D01*
X204500047Y-98759139D01*
X204630568Y-98572734D01*
X204726739Y-98366496D01*
X204785635Y-98146692D01*
X204805468Y-97920000D01*
X204785635Y-97693308D01*
X204726739Y-97473504D01*
X204630568Y-97267266D01*
X204500047Y-97080861D01*
X204500045Y-97080858D01*
X204339141Y-96919954D01*
X204152734Y-96789432D01*
X204152732Y-96789431D01*
X203946497Y-96693261D01*
X203946488Y-96693258D01*
X203726697Y-96634366D01*
X203726693Y-96634365D01*
X203726692Y-96634365D01*
X203726691Y-96634364D01*
X203726686Y-96634364D01*
X203500002Y-96614532D01*
X203499998Y-96614532D01*
X203273313Y-96634364D01*
X203273302Y-96634366D01*
X203053511Y-96693258D01*
X203053502Y-96693261D01*
X202847267Y-96789431D01*
X202847265Y-96789432D01*
X202660858Y-96919954D01*
X202499954Y-97080858D01*
X202369432Y-97267265D01*
X202369431Y-97267267D01*
X202273261Y-97473502D01*
X202273258Y-97473511D01*
X202214366Y-97693302D01*
X202214364Y-97693313D01*
X202194532Y-97919998D01*
X202194532Y-97920001D01*
X202214364Y-98146686D01*
X202214366Y-98146697D01*
X202273258Y-98366488D01*
X202273261Y-98366497D01*
X202369431Y-98572732D01*
X202369432Y-98572734D01*
X202499954Y-98759141D01*
X202660859Y-98920046D01*
X202696621Y-98945086D01*
X202740247Y-98999662D01*
X202749500Y-99046662D01*
X202749500Y-99137770D01*
X202729815Y-99204809D01*
X202713181Y-99225451D01*
X190725451Y-111213181D01*
X190664128Y-111246666D01*
X190637770Y-111249500D01*
X178926080Y-111249500D01*
X178781092Y-111278340D01*
X178781082Y-111278343D01*
X178644511Y-111334912D01*
X178644498Y-111334919D01*
X178543545Y-111402375D01*
X178521584Y-111417048D01*
X178521578Y-111417053D01*
X176417052Y-113521578D01*
X176417049Y-113521581D01*
X176382390Y-113573452D01*
X176382391Y-113573453D01*
X176334914Y-113644508D01*
X176278343Y-113781082D01*
X176278340Y-113781092D01*
X176249500Y-113926079D01*
X176249500Y-113926082D01*
X176249500Y-120073918D01*
X176249500Y-120073920D01*
X176249499Y-120073920D01*
X175750500Y-120073920D01*
X175750500Y-107111229D01*
X175770185Y-107044190D01*
X175822989Y-106998435D01*
X175892147Y-106988491D01*
X175955703Y-107017516D01*
X175962181Y-107023548D01*
X179521580Y-110582948D01*
X179521584Y-110582951D01*
X179644498Y-110665080D01*
X179644511Y-110665087D01*
X179781082Y-110721656D01*
X179781087Y-110721658D01*
X179781091Y-110721658D01*
X179781092Y-110721659D01*
X179926079Y-110750500D01*
X179926082Y-110750500D01*
X183073920Y-110750500D01*
X183204595Y-110724506D01*
X183218913Y-110721658D01*
X183355495Y-110665084D01*
X183404729Y-110632186D01*
X183415772Y-110624808D01*
X183450530Y-110601584D01*
X183478416Y-110582952D01*
X185647637Y-108413728D01*
X185708958Y-108380245D01*
X185755721Y-108379102D01*
X185883951Y-108400500D01*
X185883952Y-108400500D01*
X186116048Y-108400500D01*
X186116049Y-108400500D01*
X186344981Y-108362298D01*
X186564503Y-108286936D01*
X186768626Y-108176470D01*
X186769170Y-108176047D01*
X186892571Y-108080000D01*
X186951784Y-108033913D01*
X187108979Y-107863153D01*
X187235924Y-107668849D01*
X187329157Y-107456300D01*
X187386134Y-107231305D01*
X187386135Y-107231297D01*
X187405300Y-107000006D01*
X187405300Y-106999993D01*
X187386135Y-106768702D01*
X187386133Y-106768691D01*
X187329157Y-106543699D01*
X187235924Y-106331151D01*
X187108983Y-106136852D01*
X187108980Y-106136849D01*
X187108979Y-106136847D01*
X186951784Y-105966087D01*
X186951779Y-105966083D01*
X186951777Y-105966081D01*
X186768634Y-105823535D01*
X186768628Y-105823531D01*
X186564504Y-105713064D01*
X186564495Y-105713061D01*
X186344984Y-105637702D01*
X186173282Y-105609050D01*
X186116049Y-105599500D01*
X185883951Y-105599500D01*
X185838164Y-105607140D01*
X185655015Y-105637702D01*
X185435504Y-105713061D01*
X185435495Y-105713064D01*
X185231371Y-105823531D01*
X185231365Y-105823535D01*
X185048222Y-105966081D01*
X185048219Y-105966084D01*
X184891018Y-106136850D01*
X184853510Y-106194262D01*
X184800363Y-106239618D01*
X184731132Y-106249042D01*
X184667796Y-106219540D01*
X184653084Y-106202562D01*
X184651186Y-106202365D01*
X183942137Y-106911414D01*
X183919333Y-106826306D01*
X183860090Y-106723694D01*
X183776306Y-106639910D01*
X183673694Y-106580667D01*
X183588584Y-106557861D01*
X184298797Y-105847647D01*
X184298797Y-105847645D01*
X184268360Y-105823955D01*
X184268354Y-105823951D01*
X184064302Y-105713523D01*
X184064293Y-105713520D01*
X183844860Y-105638188D01*
X183616007Y-105600000D01*
X183383993Y-105600000D01*
X183155139Y-105638188D01*
X182935706Y-105713520D01*
X182935697Y-105713523D01*
X182731650Y-105823949D01*
X182701200Y-105847647D01*
X183411415Y-106557861D01*
X183326306Y-106580667D01*
X183223694Y-106639910D01*
X183139910Y-106723694D01*
X183080667Y-106826306D01*
X183057861Y-106911415D01*
X182348811Y-106202365D01*
X182344297Y-106202833D01*
X182300659Y-106240075D01*
X182231428Y-106249497D01*
X182168093Y-106219995D01*
X182152977Y-106202551D01*
X182151186Y-106202365D01*
X181442137Y-106911414D01*
X181419333Y-106826306D01*
X181360090Y-106723694D01*
X181276306Y-106639910D01*
X181173694Y-106580667D01*
X181088584Y-106557861D01*
X181798797Y-105847647D01*
X181798797Y-105847645D01*
X181768360Y-105823955D01*
X181768354Y-105823951D01*
X181564302Y-105713523D01*
X181564293Y-105713520D01*
X181344860Y-105638188D01*
X181116007Y-105600000D01*
X180883993Y-105600000D01*
X180655139Y-105638188D01*
X180435706Y-105713520D01*
X180435697Y-105713523D01*
X180231650Y-105823949D01*
X180201200Y-105847647D01*
X180911415Y-106557861D01*
X180826306Y-106580667D01*
X180723694Y-106639910D01*
X180639910Y-106723694D01*
X180580667Y-106826306D01*
X180557861Y-106911415D01*
X179848811Y-106202365D01*
X179764516Y-106331390D01*
X179671317Y-106543864D01*
X179614361Y-106768781D01*
X179595202Y-106999994D01*
X179595202Y-107000005D01*
X179614361Y-107231218D01*
X179671317Y-107456135D01*
X179764515Y-107668606D01*
X179848812Y-107797633D01*
X180557861Y-107088584D01*
X180580667Y-107173694D01*
X180639910Y-107276306D01*
X180723694Y-107360090D01*
X180826306Y-107419333D01*
X180911414Y-107442138D01*
X180201201Y-108152351D01*
X180231649Y-108176050D01*
X180435697Y-108286476D01*
X180435706Y-108286479D01*
X180655139Y-108361811D01*
X180883993Y-108400000D01*
X181116007Y-108400000D01*
X181344860Y-108361811D01*
X181564293Y-108286479D01*
X181564301Y-108286476D01*
X181768355Y-108176047D01*
X181798797Y-108152351D01*
X181798798Y-108152350D01*
X181088585Y-107442137D01*
X181173694Y-107419333D01*
X181276306Y-107360090D01*
X181360090Y-107276306D01*
X181419333Y-107173694D01*
X181442138Y-107088585D01*
X182151186Y-107797633D01*
X182155697Y-107797165D01*
X182199336Y-107759923D01*
X182268568Y-107750499D01*
X182331903Y-107780001D01*
X182347021Y-107797447D01*
X182348812Y-107797633D01*
X183057861Y-107088584D01*
X183080667Y-107173694D01*
X183139910Y-107276306D01*
X183223694Y-107360090D01*
X183326306Y-107419333D01*
X183411414Y-107442138D01*
X182701201Y-108152351D01*
X182731649Y-108176050D01*
X182935697Y-108286476D01*
X182935706Y-108286479D01*
X183155139Y-108361811D01*
X183278905Y-108382464D01*
X183341790Y-108412914D01*
X183378230Y-108472529D01*
X183376655Y-108542381D01*
X183346177Y-108592454D01*
X182725451Y-109213181D01*
X182664128Y-109246666D01*
X182637770Y-109249500D01*
X180362229Y-109249500D01*
X180295190Y-109229815D01*
X180274548Y-109213181D01*
X176786819Y-105725451D01*
X176753334Y-105664128D01*
X176750500Y-105637770D01*
X176750500Y-100052155D01*
X179600000Y-100052155D01*
X179600000Y-100750000D01*
X180624722Y-100750000D01*
X180580667Y-100826306D01*
X180550000Y-100940756D01*
X180550000Y-101059244D01*
X180580667Y-101173694D01*
X180624722Y-101250000D01*
X179600000Y-101250000D01*
X179600000Y-101947844D01*
X179606401Y-102007372D01*
X179606403Y-102007379D01*
X179656645Y-102142086D01*
X179656649Y-102142093D01*
X179742809Y-102257187D01*
X179742812Y-102257190D01*
X179857906Y-102343350D01*
X179857913Y-102343354D01*
X179992620Y-102393596D01*
X179992627Y-102393598D01*
X180052155Y-102399999D01*
X180052172Y-102400000D01*
X180750000Y-102400000D01*
X180750000Y-101375277D01*
X180826306Y-101419333D01*
X180940756Y-101450000D01*
X181059244Y-101450000D01*
X181173694Y-101419333D01*
X181250000Y-101375277D01*
X181250000Y-102400000D01*
X181947828Y-102400000D01*
X181947844Y-102399999D01*
X182007372Y-102393598D01*
X182007379Y-102393596D01*
X182142086Y-102343354D01*
X182142093Y-102343350D01*
X182257187Y-102257190D01*
X182257190Y-102257187D01*
X182343350Y-102142093D01*
X182343354Y-102142086D01*
X182393596Y-102007379D01*
X182393598Y-102007372D01*
X182399999Y-101947844D01*
X182400000Y-101947827D01*
X182400000Y-101940710D01*
X182390549Y-101931259D01*
X182357064Y-101869936D01*
X182362048Y-101800244D01*
X182390549Y-101755897D01*
X183057861Y-101088584D01*
X183080667Y-101173694D01*
X183139910Y-101276306D01*
X183223694Y-101360090D01*
X183326306Y-101419333D01*
X183411414Y-101442138D01*
X182701201Y-102152351D01*
X182731649Y-102176050D01*
X182935697Y-102286476D01*
X182935706Y-102286479D01*
X183155139Y-102361811D01*
X183383993Y-102400000D01*
X183616007Y-102400000D01*
X183844860Y-102361811D01*
X184064293Y-102286479D01*
X184064301Y-102286476D01*
X184268355Y-102176047D01*
X184298797Y-102152351D01*
X184298798Y-102152350D01*
X183588585Y-101442137D01*
X183673694Y-101419333D01*
X183776306Y-101360090D01*
X183860090Y-101276306D01*
X183919333Y-101173694D01*
X183942138Y-101088585D01*
X184651186Y-101797633D01*
X184655697Y-101797165D01*
X184699336Y-101759923D01*
X184768568Y-101750499D01*
X184831903Y-101780001D01*
X184847021Y-101797447D01*
X184848812Y-101797633D01*
X185557861Y-101088584D01*
X185580667Y-101173694D01*
X185639910Y-101276306D01*
X185723694Y-101360090D01*
X185826306Y-101419333D01*
X185911414Y-101442138D01*
X185201201Y-102152351D01*
X185231649Y-102176050D01*
X185435697Y-102286476D01*
X185435706Y-102286479D01*
X185655139Y-102361811D01*
X185883993Y-102400000D01*
X186116007Y-102400000D01*
X186344860Y-102361811D01*
X186564293Y-102286479D01*
X186564301Y-102286476D01*
X186768355Y-102176047D01*
X186798797Y-102152351D01*
X186798798Y-102152350D01*
X186088585Y-101442137D01*
X186173694Y-101419333D01*
X186276306Y-101360090D01*
X186360090Y-101276306D01*
X186419333Y-101173694D01*
X186442138Y-101088585D01*
X187151186Y-101797633D01*
X187235482Y-101668611D01*
X187328682Y-101456135D01*
X187385638Y-101231218D01*
X187404798Y-101000005D01*
X187404798Y-100999994D01*
X187385638Y-100768781D01*
X187328682Y-100543864D01*
X187235484Y-100331393D01*
X187151186Y-100202365D01*
X186442137Y-100911414D01*
X186419333Y-100826306D01*
X186360090Y-100723694D01*
X186276306Y-100639910D01*
X186173694Y-100580667D01*
X186088584Y-100557861D01*
X186798797Y-99847647D01*
X186798797Y-99847645D01*
X186768360Y-99823955D01*
X186768354Y-99823951D01*
X186564302Y-99713523D01*
X186564293Y-99713520D01*
X186344860Y-99638188D01*
X186116007Y-99600000D01*
X185883993Y-99600000D01*
X185655139Y-99638188D01*
X185435706Y-99713520D01*
X185435697Y-99713523D01*
X185231650Y-99823949D01*
X185201200Y-99847647D01*
X185911415Y-100557861D01*
X185826306Y-100580667D01*
X185723694Y-100639910D01*
X185639910Y-100723694D01*
X185580667Y-100826306D01*
X185557861Y-100911415D01*
X184848811Y-100202365D01*
X184844297Y-100202833D01*
X184800659Y-100240075D01*
X184731428Y-100249497D01*
X184668093Y-100219995D01*
X184652977Y-100202551D01*
X184651186Y-100202365D01*
X183942137Y-100911414D01*
X183919333Y-100826306D01*
X183860090Y-100723694D01*
X183776306Y-100639910D01*
X183673694Y-100580667D01*
X183588584Y-100557861D01*
X184298797Y-99847647D01*
X184298797Y-99847645D01*
X184268360Y-99823955D01*
X184268354Y-99823951D01*
X184064302Y-99713523D01*
X184064293Y-99713520D01*
X183844860Y-99638188D01*
X183616007Y-99600000D01*
X183383993Y-99600000D01*
X183155139Y-99638188D01*
X182935706Y-99713520D01*
X182935697Y-99713523D01*
X182731650Y-99823949D01*
X182701200Y-99847647D01*
X183411415Y-100557861D01*
X183326306Y-100580667D01*
X183223694Y-100639910D01*
X183139910Y-100723694D01*
X183080667Y-100826306D01*
X183057861Y-100911415D01*
X182390549Y-100244103D01*
X182357064Y-100182780D01*
X182362048Y-100113088D01*
X182390549Y-100068741D01*
X182399999Y-100059290D01*
X182400000Y-100059289D01*
X182400000Y-100052172D01*
X182399999Y-100052155D01*
X182393598Y-99992627D01*
X182393596Y-99992620D01*
X182343354Y-99857913D01*
X182343350Y-99857906D01*
X182257190Y-99742812D01*
X182257187Y-99742809D01*
X182142093Y-99656649D01*
X182142086Y-99656645D01*
X182007379Y-99606403D01*
X182007372Y-99606401D01*
X181947844Y-99600000D01*
X181250000Y-99600000D01*
X181250000Y-100624722D01*
X181173694Y-100580667D01*
X181059244Y-100550000D01*
X180940756Y-100550000D01*
X180826306Y-100580667D01*
X180750000Y-100624722D01*
X180750000Y-99600000D01*
X180052155Y-99600000D01*
X179992627Y-99606401D01*
X179992620Y-99606403D01*
X179857913Y-99656645D01*
X179857906Y-99656649D01*
X179742812Y-99742809D01*
X179742809Y-99742812D01*
X179656649Y-99857906D01*
X179656645Y-99857913D01*
X179606403Y-99992620D01*
X179606401Y-99992627D01*
X179600000Y-100052155D01*
X176750500Y-100052155D01*
X176750500Y-97919998D01*
X196694532Y-97919998D01*
X196694532Y-97920001D01*
X196714364Y-98146686D01*
X196714366Y-98146697D01*
X196773258Y-98366488D01*
X196773261Y-98366497D01*
X196869431Y-98572732D01*
X196869432Y-98572734D01*
X196999954Y-98759141D01*
X197160858Y-98920045D01*
X197160861Y-98920047D01*
X197347266Y-99050568D01*
X197553504Y-99146739D01*
X197773308Y-99205635D01*
X197935230Y-99219801D01*
X197999998Y-99225468D01*
X198000000Y-99225468D01*
X198000002Y-99225468D01*
X198056673Y-99220509D01*
X198226692Y-99205635D01*
X198446496Y-99146739D01*
X198652734Y-99050568D01*
X198839139Y-98920047D01*
X199000047Y-98759139D01*
X199130568Y-98572734D01*
X199226739Y-98366496D01*
X199285635Y-98146692D01*
X199305468Y-97920000D01*
X199285635Y-97693308D01*
X199226739Y-97473504D01*
X199130568Y-97267266D01*
X199000047Y-97080861D01*
X199000045Y-97080858D01*
X198839141Y-96919954D01*
X198652734Y-96789432D01*
X198652732Y-96789431D01*
X198446497Y-96693261D01*
X198446488Y-96693258D01*
X198226697Y-96634366D01*
X198226693Y-96634365D01*
X198226692Y-96634365D01*
X198226691Y-96634364D01*
X198226686Y-96634364D01*
X198000002Y-96614532D01*
X197999998Y-96614532D01*
X197773313Y-96634364D01*
X197773302Y-96634366D01*
X197553511Y-96693258D01*
X197553502Y-96693261D01*
X197347267Y-96789431D01*
X197347265Y-96789432D01*
X197160858Y-96919954D01*
X196999954Y-97080858D01*
X196869432Y-97267265D01*
X196869431Y-97267267D01*
X196773261Y-97473502D01*
X196773258Y-97473511D01*
X196714366Y-97693302D01*
X196714364Y-97693313D01*
X196694532Y-97919998D01*
X176750500Y-97919998D01*
X176750500Y-52362229D01*
X176770185Y-52295190D01*
X176786819Y-52274548D01*
X177274548Y-51786819D01*
X177335871Y-51753334D01*
X177362229Y-51750500D01*
X186637770Y-51750500D01*
X186704809Y-51770185D01*
X186725451Y-51786819D01*
X189213181Y-54274548D01*
X189246666Y-54335871D01*
X189249500Y-54362229D01*
X189249500Y-78073918D01*
X189249500Y-78073920D01*
X189249499Y-78073920D01*
X189278340Y-78218907D01*
X189278343Y-78218917D01*
X189334912Y-78355488D01*
X189334920Y-78355502D01*
X189362336Y-78396532D01*
X189362337Y-78396535D01*
X189417046Y-78478414D01*
X189417052Y-78478421D01*
X192257049Y-81318416D01*
X192361584Y-81422951D01*
X192361587Y-81422953D01*
X192361588Y-81422954D01*
X192484503Y-81505083D01*
X192484506Y-81505085D01*
X192541079Y-81528518D01*
X192541080Y-81528518D01*
X192621088Y-81561659D01*
X192737241Y-81584763D01*
X192756468Y-81588587D01*
X192766081Y-81590500D01*
X192766082Y-81590500D01*
X192766083Y-81590500D01*
X192913918Y-81590500D01*
X193483337Y-81590500D01*
X193550376Y-81610185D01*
X193584912Y-81643377D01*
X193609954Y-81679141D01*
X193770858Y-81840045D01*
X193770861Y-81840047D01*
X193957266Y-81970568D01*
X194015275Y-81997618D01*
X194067714Y-82043791D01*
X194086866Y-82110984D01*
X194066650Y-82177865D01*
X194015275Y-82222382D01*
X193957267Y-82249431D01*
X193957265Y-82249432D01*
X193770858Y-82379954D01*
X193609954Y-82540858D01*
X193479432Y-82727265D01*
X193479431Y-82727267D01*
X193383261Y-82933502D01*
X193383258Y-82933511D01*
X193324366Y-83153302D01*
X193324364Y-83153313D01*
X193304532Y-83379998D01*
X193304532Y-83380001D01*
X193324364Y-83606686D01*
X193324366Y-83606697D01*
X193383258Y-83826488D01*
X193383261Y-83826497D01*
X193479431Y-84032732D01*
X193479432Y-84032734D01*
X193609954Y-84219141D01*
X193770858Y-84380045D01*
X193770861Y-84380047D01*
X193957266Y-84510568D01*
X194015865Y-84537893D01*
X194068305Y-84584065D01*
X194087457Y-84651258D01*
X194067242Y-84718139D01*
X194015867Y-84762657D01*
X193957515Y-84789867D01*
X193771179Y-84920342D01*
X193610342Y-85081179D01*
X193479865Y-85267517D01*
X193383734Y-85473673D01*
X193383730Y-85473682D01*
X193331127Y-85669999D01*
X193331128Y-85670000D01*
X194176988Y-85670000D01*
X194144075Y-85727007D01*
X194110000Y-85854174D01*
X194110000Y-85985826D01*
X194144075Y-86112993D01*
X194176988Y-86170000D01*
X193331128Y-86170000D01*
X193383730Y-86366317D01*
X193383734Y-86366326D01*
X193479865Y-86572482D01*
X193610342Y-86758820D01*
X193771179Y-86919657D01*
X193957518Y-87050134D01*
X193957520Y-87050135D01*
X194015865Y-87077342D01*
X194068305Y-87123514D01*
X194087457Y-87190707D01*
X194067242Y-87257589D01*
X194015867Y-87302105D01*
X194015275Y-87302382D01*
X193957264Y-87329433D01*
X193770858Y-87459954D01*
X193609954Y-87620858D01*
X193479432Y-87807265D01*
X193479431Y-87807267D01*
X193383261Y-88013502D01*
X193383258Y-88013511D01*
X193324366Y-88233302D01*
X193324364Y-88233313D01*
X193304532Y-88459998D01*
X193304532Y-88460001D01*
X193324364Y-88686686D01*
X193324366Y-88686697D01*
X193383258Y-88906488D01*
X193383261Y-88906497D01*
X193479431Y-89112732D01*
X193479432Y-89112734D01*
X193609954Y-89299141D01*
X193770858Y-89460045D01*
X193770861Y-89460047D01*
X193957266Y-89590568D01*
X194015275Y-89617618D01*
X194067714Y-89663791D01*
X194086866Y-89730984D01*
X194066650Y-89797865D01*
X194015275Y-89842382D01*
X193957267Y-89869431D01*
X193957265Y-89869432D01*
X193770858Y-89999954D01*
X193609954Y-90160858D01*
X193479432Y-90347265D01*
X193479431Y-90347267D01*
X193383261Y-90553502D01*
X193383258Y-90553511D01*
X193324366Y-90773302D01*
X193324364Y-90773313D01*
X193304532Y-90999998D01*
X193304532Y-91000001D01*
X193324364Y-91226686D01*
X193324366Y-91226697D01*
X193383258Y-91446488D01*
X193383261Y-91446497D01*
X193479431Y-91652732D01*
X193479432Y-91652734D01*
X193609954Y-91839141D01*
X193770858Y-92000045D01*
X193795462Y-92017273D01*
X193839087Y-92071849D01*
X193846281Y-92141348D01*
X193814758Y-92203703D01*
X193754529Y-92239117D01*
X193737593Y-92242138D01*
X193702516Y-92245908D01*
X193567671Y-92296202D01*
X193567664Y-92296206D01*
X193452455Y-92382452D01*
X193452452Y-92382455D01*
X193366206Y-92497664D01*
X193366202Y-92497671D01*
X193315908Y-92632517D01*
X193309501Y-92692116D01*
X193309500Y-92692127D01*
X193309500Y-93460000D01*
X193309501Y-94125500D01*
X193289816Y-94192539D01*
X193237013Y-94238294D01*
X193185501Y-94249500D01*
X188442229Y-94249500D01*
X188375190Y-94229815D01*
X188354548Y-94213181D01*
X180628580Y-86487212D01*
X180595095Y-86425889D01*
X180596486Y-86367437D01*
X180596736Y-86366500D01*
X180596739Y-86366496D01*
X180655635Y-86146692D01*
X180675468Y-85920000D01*
X180655635Y-85693308D01*
X180596739Y-85473504D01*
X180500568Y-85267266D01*
X180370047Y-85080861D01*
X180370045Y-85080858D01*
X180209141Y-84919954D01*
X180022734Y-84789432D01*
X180022728Y-84789429D01*
X179964725Y-84762382D01*
X179912285Y-84716210D01*
X179893133Y-84649017D01*
X179913348Y-84582135D01*
X179964725Y-84537618D01*
X180022734Y-84510568D01*
X180209139Y-84380047D01*
X180370047Y-84219139D01*
X180500568Y-84032734D01*
X180596739Y-83826496D01*
X180655635Y-83606692D01*
X180675468Y-83380000D01*
X180655635Y-83153308D01*
X180596739Y-82933504D01*
X180500568Y-82727266D01*
X180370047Y-82540861D01*
X180370045Y-82540858D01*
X180209141Y-82379954D01*
X180022734Y-82249432D01*
X180022728Y-82249429D01*
X179964725Y-82222382D01*
X179912285Y-82176210D01*
X179893133Y-82109017D01*
X179913348Y-82042135D01*
X179964725Y-81997618D01*
X180022734Y-81970568D01*
X180209139Y-81840047D01*
X180370047Y-81679139D01*
X180500568Y-81492734D01*
X180596739Y-81286496D01*
X180655635Y-81066692D01*
X180675468Y-80840000D01*
X180655635Y-80613308D01*
X180596739Y-80393504D01*
X180500568Y-80187266D01*
X180370047Y-80000861D01*
X180370045Y-80000858D01*
X180209141Y-79839954D01*
X180022734Y-79709432D01*
X180022728Y-79709429D01*
X179964725Y-79682382D01*
X179912285Y-79636210D01*
X179893133Y-79569017D01*
X179913348Y-79502135D01*
X179964725Y-79457618D01*
X180022734Y-79430568D01*
X180209139Y-79300047D01*
X180370047Y-79139139D01*
X180500568Y-78952734D01*
X180596739Y-78746496D01*
X180655635Y-78526692D01*
X180675468Y-78300000D01*
X180655635Y-78073308D01*
X180596739Y-77853504D01*
X180500568Y-77647266D01*
X180370047Y-77460861D01*
X180370045Y-77460858D01*
X180209141Y-77299954D01*
X180022734Y-77169432D01*
X180022728Y-77169429D01*
X179964725Y-77142382D01*
X179912285Y-77096210D01*
X179893133Y-77029017D01*
X179913348Y-76962135D01*
X179964725Y-76917618D01*
X180022734Y-76890568D01*
X180209139Y-76760047D01*
X180370047Y-76599139D01*
X180500568Y-76412734D01*
X180596739Y-76206496D01*
X180655635Y-75986692D01*
X180675468Y-75760000D01*
X180655635Y-75533308D01*
X180596739Y-75313504D01*
X180500568Y-75107266D01*
X180370047Y-74920861D01*
X180370045Y-74920858D01*
X180209141Y-74759954D01*
X180022734Y-74629432D01*
X180022728Y-74629429D01*
X179964725Y-74602382D01*
X179912285Y-74556210D01*
X179893133Y-74489017D01*
X179913348Y-74422135D01*
X179964725Y-74377618D01*
X180022734Y-74350568D01*
X180209139Y-74220047D01*
X180370047Y-74059139D01*
X180500568Y-73872734D01*
X180596739Y-73666496D01*
X180655635Y-73446692D01*
X180675468Y-73220000D01*
X180655635Y-72993308D01*
X180596739Y-72773504D01*
X180500568Y-72567266D01*
X180370047Y-72380861D01*
X180370045Y-72380858D01*
X180209141Y-72219954D01*
X180022734Y-72089432D01*
X180022728Y-72089429D01*
X179964725Y-72062382D01*
X179912285Y-72016210D01*
X179893133Y-71949017D01*
X179913348Y-71882135D01*
X179964725Y-71837618D01*
X180022734Y-71810568D01*
X180209139Y-71680047D01*
X180370047Y-71519139D01*
X180500568Y-71332734D01*
X180596739Y-71126496D01*
X180655635Y-70906692D01*
X180675468Y-70680000D01*
X180655635Y-70453308D01*
X180596739Y-70233504D01*
X180500568Y-70027266D01*
X180370047Y-69840861D01*
X180370045Y-69840858D01*
X180209141Y-69679954D01*
X180022734Y-69549432D01*
X180022728Y-69549429D01*
X179964725Y-69522382D01*
X179912285Y-69476210D01*
X179893133Y-69409017D01*
X179913348Y-69342135D01*
X179964725Y-69297618D01*
X180022734Y-69270568D01*
X180209139Y-69140047D01*
X180370047Y-68979139D01*
X180500568Y-68792734D01*
X180596739Y-68586496D01*
X180655635Y-68366692D01*
X180675468Y-68140000D01*
X180655635Y-67913308D01*
X180596739Y-67693504D01*
X180500568Y-67487266D01*
X180370047Y-67300861D01*
X180370045Y-67300858D01*
X180209141Y-67139954D01*
X180022734Y-67009432D01*
X180022728Y-67009429D01*
X179964725Y-66982382D01*
X179912285Y-66936210D01*
X179893133Y-66869017D01*
X179913348Y-66802135D01*
X179964725Y-66757618D01*
X180022734Y-66730568D01*
X180209139Y-66600047D01*
X180370047Y-66439139D01*
X180500568Y-66252734D01*
X180596739Y-66046496D01*
X180655635Y-65826692D01*
X180675468Y-65600000D01*
X180655635Y-65373308D01*
X180596739Y-65153504D01*
X180500568Y-64947266D01*
X180370047Y-64760861D01*
X180370045Y-64760858D01*
X180209141Y-64599954D01*
X180022734Y-64469432D01*
X180022728Y-64469429D01*
X179964725Y-64442382D01*
X179912285Y-64396210D01*
X179893133Y-64329017D01*
X179913348Y-64262135D01*
X179964725Y-64217618D01*
X180022734Y-64190568D01*
X180209139Y-64060047D01*
X180370047Y-63899139D01*
X180500568Y-63712734D01*
X180596739Y-63506496D01*
X180655635Y-63286692D01*
X180675468Y-63060000D01*
X180655635Y-62833308D01*
X180596739Y-62613504D01*
X180500568Y-62407266D01*
X180370047Y-62220861D01*
X180370045Y-62220858D01*
X180209141Y-62059954D01*
X180022734Y-61929432D01*
X180022728Y-61929429D01*
X179964725Y-61902382D01*
X179912285Y-61856210D01*
X179893133Y-61789017D01*
X179913348Y-61722135D01*
X179964725Y-61677618D01*
X180022734Y-61650568D01*
X180209139Y-61520047D01*
X180370047Y-61359139D01*
X180500568Y-61172734D01*
X180596739Y-60966496D01*
X180655635Y-60746692D01*
X180675468Y-60520000D01*
X180655635Y-60293308D01*
X180596739Y-60073504D01*
X180500568Y-59867266D01*
X180370047Y-59680861D01*
X180370045Y-59680858D01*
X180209141Y-59519954D01*
X180022734Y-59389432D01*
X180022728Y-59389429D01*
X179964725Y-59362382D01*
X179912285Y-59316210D01*
X179893133Y-59249017D01*
X179913348Y-59182135D01*
X179964725Y-59137618D01*
X180022734Y-59110568D01*
X180209139Y-58980047D01*
X180370047Y-58819139D01*
X180500568Y-58632734D01*
X180596739Y-58426496D01*
X180655635Y-58206692D01*
X180675468Y-57980000D01*
X180655635Y-57753308D01*
X180596739Y-57533504D01*
X180500568Y-57327266D01*
X180370047Y-57140861D01*
X180370045Y-57140858D01*
X180209141Y-56979954D01*
X180022734Y-56849432D01*
X180022732Y-56849431D01*
X179816497Y-56753261D01*
X179816488Y-56753258D01*
X179596697Y-56694366D01*
X179596693Y-56694365D01*
X179596692Y-56694365D01*
X179596691Y-56694364D01*
X179596686Y-56694364D01*
X179370002Y-56674532D01*
X179369998Y-56674532D01*
X179143313Y-56694364D01*
X179143302Y-56694366D01*
X178923511Y-56753258D01*
X178923502Y-56753261D01*
X178717267Y-56849431D01*
X178717265Y-56849432D01*
X178530858Y-56979954D01*
X178369954Y-57140858D01*
X178239432Y-57327265D01*
X178239431Y-57327267D01*
X178143261Y-57533502D01*
X178143258Y-57533511D01*
X178084366Y-57753302D01*
X178084364Y-57753313D01*
X178064532Y-57979998D01*
X178064532Y-57980001D01*
X178084364Y-58206686D01*
X178084366Y-58206697D01*
X178143258Y-58426488D01*
X178143261Y-58426497D01*
X178239431Y-58632732D01*
X178239432Y-58632734D01*
X178369954Y-58819141D01*
X178530858Y-58980045D01*
X178530861Y-58980047D01*
X178717266Y-59110568D01*
X178775275Y-59137618D01*
X178827714Y-59183791D01*
X178846866Y-59250984D01*
X178826650Y-59317865D01*
X178775275Y-59362382D01*
X178717267Y-59389431D01*
X178717265Y-59389432D01*
X178530858Y-59519954D01*
X178369954Y-59680858D01*
X178239432Y-59867265D01*
X178239431Y-59867267D01*
X178143261Y-60073502D01*
X178143258Y-60073511D01*
X178084366Y-60293302D01*
X178084364Y-60293313D01*
X178064532Y-60519998D01*
X178064532Y-60520001D01*
X178084364Y-60746686D01*
X178084366Y-60746697D01*
X178143258Y-60966488D01*
X178143261Y-60966497D01*
X178239431Y-61172732D01*
X178239432Y-61172734D01*
X178369954Y-61359141D01*
X178530858Y-61520045D01*
X178530861Y-61520047D01*
X178717266Y-61650568D01*
X178775275Y-61677618D01*
X178827714Y-61723791D01*
X178846866Y-61790984D01*
X178826650Y-61857865D01*
X178775275Y-61902382D01*
X178717267Y-61929431D01*
X178717265Y-61929432D01*
X178530858Y-62059954D01*
X178369954Y-62220858D01*
X178239432Y-62407265D01*
X178239431Y-62407267D01*
X178143261Y-62613502D01*
X178143258Y-62613511D01*
X178084366Y-62833302D01*
X178084364Y-62833313D01*
X178064532Y-63059998D01*
X178064532Y-63060001D01*
X178084364Y-63286686D01*
X178084366Y-63286697D01*
X178143258Y-63506488D01*
X178143261Y-63506497D01*
X178239431Y-63712732D01*
X178239432Y-63712734D01*
X178369954Y-63899141D01*
X178530858Y-64060045D01*
X178530861Y-64060047D01*
X178717266Y-64190568D01*
X178775275Y-64217618D01*
X178827714Y-64263791D01*
X178846866Y-64330984D01*
X178826650Y-64397865D01*
X178775275Y-64442382D01*
X178717267Y-64469431D01*
X178717265Y-64469432D01*
X178530858Y-64599954D01*
X178369954Y-64760858D01*
X178239432Y-64947265D01*
X178239431Y-64947267D01*
X178143261Y-65153502D01*
X178143258Y-65153511D01*
X178084366Y-65373302D01*
X178084364Y-65373313D01*
X178064532Y-65599998D01*
X178064532Y-65600001D01*
X178084364Y-65826686D01*
X178084366Y-65826697D01*
X178143258Y-66046488D01*
X178143261Y-66046497D01*
X178239431Y-66252732D01*
X178239432Y-66252734D01*
X178369954Y-66439141D01*
X178530858Y-66600045D01*
X178530861Y-66600047D01*
X178717266Y-66730568D01*
X178775275Y-66757618D01*
X178827714Y-66803791D01*
X178846866Y-66870984D01*
X178826650Y-66937865D01*
X178775275Y-66982382D01*
X178717267Y-67009431D01*
X178717265Y-67009432D01*
X178530858Y-67139954D01*
X178369954Y-67300858D01*
X178239432Y-67487265D01*
X178239431Y-67487267D01*
X178143261Y-67693502D01*
X178143258Y-67693511D01*
X178084366Y-67913302D01*
X178084364Y-67913313D01*
X178064532Y-68139998D01*
X178064532Y-68140001D01*
X178084364Y-68366686D01*
X178084366Y-68366697D01*
X178143258Y-68586488D01*
X178143261Y-68586497D01*
X178239431Y-68792732D01*
X178239432Y-68792734D01*
X178369954Y-68979141D01*
X178530858Y-69140045D01*
X178530861Y-69140047D01*
X178717266Y-69270568D01*
X178775275Y-69297618D01*
X178827714Y-69343791D01*
X178846866Y-69410984D01*
X178826650Y-69477865D01*
X178775275Y-69522382D01*
X178717267Y-69549431D01*
X178717265Y-69549432D01*
X178530858Y-69679954D01*
X178369954Y-69840858D01*
X178239432Y-70027265D01*
X178239431Y-70027267D01*
X178143261Y-70233502D01*
X178143258Y-70233511D01*
X178084366Y-70453302D01*
X178084364Y-70453313D01*
X178064532Y-70679998D01*
X178064532Y-70680001D01*
X178084364Y-70906686D01*
X178084366Y-70906697D01*
X178143258Y-71126488D01*
X178143261Y-71126497D01*
X178239431Y-71332732D01*
X178239432Y-71332734D01*
X178369954Y-71519141D01*
X178530858Y-71680045D01*
X178530861Y-71680047D01*
X178717266Y-71810568D01*
X178775275Y-71837618D01*
X178827714Y-71883791D01*
X178846866Y-71950984D01*
X178826650Y-72017865D01*
X178775275Y-72062382D01*
X178717267Y-72089431D01*
X178717265Y-72089432D01*
X178530858Y-72219954D01*
X178369954Y-72380858D01*
X178239432Y-72567265D01*
X178239431Y-72567267D01*
X178143261Y-72773502D01*
X178143258Y-72773511D01*
X178084366Y-72993302D01*
X178084364Y-72993313D01*
X178064532Y-73219998D01*
X178064532Y-73220001D01*
X178084364Y-73446686D01*
X178084366Y-73446697D01*
X178143258Y-73666488D01*
X178143261Y-73666497D01*
X178239431Y-73872732D01*
X178239432Y-73872734D01*
X178369954Y-74059141D01*
X178530858Y-74220045D01*
X178530861Y-74220047D01*
X178717266Y-74350568D01*
X178775275Y-74377618D01*
X178827714Y-74423791D01*
X178846866Y-74490984D01*
X178826650Y-74557865D01*
X178775275Y-74602382D01*
X178717267Y-74629431D01*
X178717265Y-74629432D01*
X178530858Y-74759954D01*
X178369954Y-74920858D01*
X178239432Y-75107265D01*
X178239431Y-75107267D01*
X178143261Y-75313502D01*
X178143258Y-75313511D01*
X178084366Y-75533302D01*
X178084364Y-75533313D01*
X178064532Y-75759998D01*
X178064532Y-75760001D01*
X178084364Y-75986686D01*
X178084366Y-75986697D01*
X178143258Y-76206488D01*
X178143261Y-76206497D01*
X178239431Y-76412732D01*
X178239432Y-76412734D01*
X178369954Y-76599141D01*
X178530858Y-76760045D01*
X178530861Y-76760047D01*
X178717266Y-76890568D01*
X178775275Y-76917618D01*
X178827714Y-76963791D01*
X178846866Y-77030984D01*
X178826650Y-77097865D01*
X178775275Y-77142382D01*
X178717267Y-77169431D01*
X178717265Y-77169432D01*
X178530858Y-77299954D01*
X178369954Y-77460858D01*
X178239432Y-77647265D01*
X178239431Y-77647267D01*
X178143261Y-77853502D01*
X178143258Y-77853511D01*
X178084366Y-78073302D01*
X178084364Y-78073313D01*
X178064532Y-78299998D01*
X178064532Y-78300001D01*
X178084364Y-78526686D01*
X178084366Y-78526697D01*
X178143258Y-78746488D01*
X178143261Y-78746497D01*
X178239431Y-78952732D01*
X178239432Y-78952734D01*
X178369954Y-79139141D01*
X178530858Y-79300045D01*
X178530861Y-79300047D01*
X178717266Y-79430568D01*
X178775275Y-79457618D01*
X178827714Y-79503791D01*
X178846866Y-79570984D01*
X178826650Y-79637865D01*
X178775275Y-79682382D01*
X178717267Y-79709431D01*
X178717265Y-79709432D01*
X178530858Y-79839954D01*
X178369954Y-80000858D01*
X178239432Y-80187265D01*
X178239431Y-80187267D01*
X178143261Y-80393502D01*
X178143258Y-80393511D01*
X178084366Y-80613302D01*
X178084364Y-80613313D01*
X178064532Y-80839998D01*
X178064532Y-80840001D01*
X178084364Y-81066686D01*
X178084366Y-81066697D01*
X178143258Y-81286488D01*
X178143261Y-81286497D01*
X178239431Y-81492732D01*
X178239432Y-81492734D01*
X178369954Y-81679141D01*
X178530858Y-81840045D01*
X178530861Y-81840047D01*
X178717266Y-81970568D01*
X178775275Y-81997618D01*
X178827714Y-82043791D01*
X178846866Y-82110984D01*
X178826650Y-82177865D01*
X178775275Y-82222382D01*
X178717267Y-82249431D01*
X178717265Y-82249432D01*
X178530858Y-82379954D01*
X178369954Y-82540858D01*
X178239432Y-82727265D01*
X178239431Y-82727267D01*
X178143261Y-82933502D01*
X178143258Y-82933511D01*
X178084366Y-83153302D01*
X178084364Y-83153313D01*
X178064532Y-83379998D01*
X178064532Y-83380001D01*
X178084364Y-83606686D01*
X178084366Y-83606697D01*
X178143258Y-83826488D01*
X178143261Y-83826497D01*
X178239431Y-84032732D01*
X178239432Y-84032734D01*
X178369954Y-84219141D01*
X178530858Y-84380045D01*
X178530861Y-84380047D01*
X178717266Y-84510568D01*
X178775275Y-84537618D01*
X178827714Y-84583791D01*
X178846866Y-84650984D01*
X178826650Y-84717865D01*
X178775275Y-84762382D01*
X178717267Y-84789431D01*
X178717265Y-84789432D01*
X178530858Y-84919954D01*
X178369954Y-85080858D01*
X178239432Y-85267265D01*
X178239431Y-85267267D01*
X178143261Y-85473502D01*
X178143258Y-85473511D01*
X178084366Y-85693302D01*
X178084364Y-85693313D01*
X178064532Y-85919998D01*
X178064532Y-85920001D01*
X178084364Y-86146686D01*
X178084366Y-86146697D01*
X178143258Y-86366488D01*
X178143261Y-86366497D01*
X178239431Y-86572732D01*
X178239432Y-86572734D01*
X178369954Y-86759141D01*
X178530858Y-86920045D01*
X178530861Y-86920047D01*
X178717266Y-87050568D01*
X178774681Y-87077341D01*
X178775275Y-87077618D01*
X178827714Y-87123791D01*
X178846866Y-87190984D01*
X178826650Y-87257865D01*
X178775275Y-87302382D01*
X178717267Y-87329431D01*
X178717265Y-87329432D01*
X178530858Y-87459954D01*
X178369954Y-87620858D01*
X178239432Y-87807265D01*
X178239431Y-87807267D01*
X178143261Y-88013502D01*
X178143258Y-88013511D01*
X178084366Y-88233302D01*
X178084364Y-88233313D01*
X178064532Y-88459998D01*
X178064532Y-88460001D01*
X178084364Y-88686686D01*
X178084366Y-88686697D01*
X178143258Y-88906488D01*
X178143261Y-88906497D01*
X178239431Y-89112732D01*
X178239432Y-89112734D01*
X178369954Y-89299141D01*
X178530858Y-89460045D01*
X178530861Y-89460047D01*
X178717266Y-89590568D01*
X178775865Y-89617893D01*
X178828305Y-89664065D01*
X178847457Y-89731258D01*
X178827242Y-89798139D01*
X178775867Y-89842657D01*
X178717515Y-89869867D01*
X178531179Y-90000342D01*
X178370342Y-90161179D01*
X178239865Y-90347517D01*
X178143734Y-90553673D01*
X178143730Y-90553682D01*
X178091127Y-90749999D01*
X178091128Y-90750000D01*
X178936988Y-90750000D01*
X178904075Y-90807007D01*
X178870000Y-90934174D01*
X178870000Y-91065826D01*
X178904075Y-91192993D01*
X178936988Y-91250000D01*
X178091128Y-91250000D01*
X178143730Y-91446317D01*
X178143734Y-91446326D01*
X178239865Y-91652482D01*
X178370342Y-91838820D01*
X178531179Y-91999657D01*
X178717518Y-92130134D01*
X178717520Y-92130135D01*
X178775865Y-92157342D01*
X178828305Y-92203514D01*
X178847457Y-92270707D01*
X178827242Y-92337589D01*
X178775867Y-92382105D01*
X178717268Y-92409431D01*
X178717264Y-92409433D01*
X178530858Y-92539954D01*
X178369954Y-92700858D01*
X178239432Y-92887265D01*
X178239431Y-92887267D01*
X178143261Y-93093502D01*
X178143258Y-93093511D01*
X178084366Y-93313302D01*
X178084364Y-93313313D01*
X178064532Y-93539998D01*
X178064532Y-93540001D01*
X178084364Y-93766686D01*
X178084366Y-93766697D01*
X178143258Y-93986488D01*
X178143261Y-93986497D01*
X178239431Y-94192732D01*
X178239432Y-94192734D01*
X178369954Y-94379141D01*
X178530858Y-94540045D01*
X178530861Y-94540047D01*
X178717266Y-94670568D01*
X178923504Y-94766739D01*
X179143308Y-94825635D01*
X179305230Y-94839801D01*
X179369998Y-94845468D01*
X179370000Y-94845468D01*
X179370002Y-94845468D01*
X179426673Y-94840509D01*
X179596692Y-94825635D01*
X179816496Y-94766739D01*
X180022734Y-94670568D01*
X180209139Y-94540047D01*
X180370047Y-94379139D01*
X180500568Y-94192734D01*
X180596739Y-93986496D01*
X180655635Y-93766692D01*
X180675468Y-93540000D01*
X180655635Y-93313308D01*
X180596739Y-93093504D01*
X180500568Y-92887266D01*
X180370047Y-92700861D01*
X180370045Y-92700858D01*
X180209141Y-92539954D01*
X180022734Y-92409432D01*
X180022732Y-92409431D01*
X180011275Y-92404088D01*
X179964132Y-92382105D01*
X179911694Y-92335934D01*
X179892542Y-92268740D01*
X179912758Y-92201859D01*
X179964134Y-92157341D01*
X180022484Y-92130132D01*
X180208820Y-91999657D01*
X180369657Y-91838820D01*
X180500134Y-91652482D01*
X180596265Y-91446326D01*
X180596269Y-91446317D01*
X180648872Y-91250000D01*
X179803012Y-91250000D01*
X179835925Y-91192993D01*
X179870000Y-91065826D01*
X179870000Y-90934174D01*
X179835925Y-90807007D01*
X179803012Y-90750000D01*
X180648872Y-90750000D01*
X180648872Y-90749999D01*
X180596269Y-90553682D01*
X180596265Y-90553673D01*
X180500134Y-90347517D01*
X180369657Y-90161179D01*
X180208820Y-90000342D01*
X180022482Y-89869865D01*
X179964133Y-89842657D01*
X179911694Y-89796484D01*
X179892542Y-89729291D01*
X179912758Y-89662410D01*
X179964129Y-89617895D01*
X180022734Y-89590568D01*
X180209139Y-89460047D01*
X180370047Y-89299139D01*
X180500568Y-89112734D01*
X180596739Y-88906496D01*
X180610548Y-88854960D01*
X180646913Y-88795300D01*
X180709759Y-88764770D01*
X180779135Y-88773064D01*
X180818004Y-88799372D01*
X184159981Y-92141348D01*
X187497049Y-95478416D01*
X187589301Y-95570668D01*
X187601585Y-95582952D01*
X187724498Y-95665080D01*
X187724511Y-95665087D01*
X187861082Y-95721656D01*
X187861087Y-95721658D01*
X187861091Y-95721658D01*
X187861092Y-95721659D01*
X188006079Y-95750500D01*
X188006082Y-95750500D01*
X203683971Y-95750500D01*
X203781513Y-95731096D01*
X203828964Y-95721658D01*
X203965546Y-95665084D01*
X204030538Y-95621658D01*
X204030538Y-95621657D01*
X204030540Y-95621657D01*
X204059502Y-95602305D01*
X204088467Y-95582952D01*
X206884599Y-92786818D01*
X206945922Y-92753334D01*
X206972280Y-92750500D01*
X209756982Y-92750500D01*
X209824021Y-92770185D01*
X209869776Y-92822989D01*
X209879720Y-92892147D01*
X209869364Y-92926905D01*
X209820898Y-93030840D01*
X209820894Y-93030849D01*
X209764289Y-93242105D01*
X209764287Y-93242115D01*
X209745225Y-93459999D01*
X209745225Y-93460000D01*
X209764287Y-93677884D01*
X209764289Y-93677894D01*
X209820894Y-93889150D01*
X209820898Y-93889159D01*
X209913333Y-94087387D01*
X209956874Y-94149571D01*
X210600000Y-93506445D01*
X210600000Y-93512661D01*
X210627259Y-93614394D01*
X210679920Y-93705606D01*
X210754394Y-93780080D01*
X210845606Y-93832741D01*
X210947339Y-93860000D01*
X210953553Y-93860000D01*
X210310427Y-94503124D01*
X210372613Y-94546667D01*
X210372615Y-94546668D01*
X210524174Y-94617341D01*
X210576614Y-94663513D01*
X210595766Y-94730706D01*
X210575551Y-94797588D01*
X210524176Y-94842105D01*
X210372358Y-94912900D01*
X210372357Y-94912900D01*
X210193121Y-95038402D01*
X210038402Y-95193121D01*
X209912900Y-95372357D01*
X209912898Y-95372361D01*
X209820426Y-95570668D01*
X209820422Y-95570677D01*
X209763793Y-95782020D01*
X209763793Y-95782024D01*
X209744723Y-95999997D01*
X209744723Y-96000002D01*
X209755282Y-96120708D01*
X209741515Y-96189208D01*
X209719435Y-96219195D01*
X202917048Y-103021583D01*
X202911546Y-103029817D01*
X202906114Y-103037949D01*
X202870393Y-103091409D01*
X202834914Y-103144507D01*
X202778343Y-103281082D01*
X202778340Y-103281092D01*
X202749500Y-103426079D01*
X202749500Y-106953336D01*
X202729815Y-107020375D01*
X202696625Y-107054910D01*
X202660863Y-107079951D01*
X202499951Y-107240862D01*
X202369432Y-107427265D01*
X202369431Y-107427267D01*
X202273261Y-107633502D01*
X202273258Y-107633511D01*
X202214366Y-107853302D01*
X202214364Y-107853313D01*
X202194532Y-108079998D01*
X202194532Y-108080001D01*
X202214364Y-108306686D01*
X202214366Y-108306697D01*
X202273258Y-108526488D01*
X202273261Y-108526497D01*
X202369431Y-108732732D01*
X202369432Y-108732734D01*
X202499954Y-108919141D01*
X202660858Y-109080045D01*
X202660861Y-109080047D01*
X202847266Y-109210568D01*
X203053504Y-109306739D01*
X203273308Y-109365635D01*
X203435230Y-109379801D01*
X203499998Y-109385468D01*
X203500000Y-109385468D01*
X203500002Y-109385468D01*
X203556673Y-109380509D01*
X203726692Y-109365635D01*
X203946496Y-109306739D01*
X204152734Y-109210568D01*
X204339139Y-109080047D01*
X204500047Y-108919139D01*
X204630568Y-108732734D01*
X204726739Y-108526496D01*
X204785635Y-108306692D01*
X204805468Y-108080000D01*
X204785635Y-107853308D01*
X204726739Y-107633504D01*
X204630568Y-107427266D01*
X204500047Y-107240861D01*
X204339139Y-107079953D01*
X204309564Y-107059244D01*
X204303375Y-107054910D01*
X204259751Y-107000332D01*
X204250500Y-106953336D01*
X204250500Y-103862229D01*
X204270185Y-103795190D01*
X204286814Y-103774553D01*
X209537821Y-98523545D01*
X209599142Y-98490062D01*
X209668834Y-98495046D01*
X209724767Y-98536918D01*
X209749184Y-98602382D01*
X209749500Y-98611228D01*
X209749500Y-99337870D01*
X209749501Y-99337876D01*
X209755908Y-99397483D01*
X209806202Y-99532328D01*
X209806206Y-99532335D01*
X209892452Y-99647544D01*
X209892455Y-99647547D01*
X210007664Y-99733793D01*
X210007671Y-99733797D01*
X210142517Y-99784091D01*
X210142516Y-99784091D01*
X210149444Y-99784835D01*
X210202127Y-99790500D01*
X211797872Y-99790499D01*
X211857483Y-99784091D01*
X211992331Y-99733796D01*
X212107546Y-99647546D01*
X212193796Y-99532331D01*
X212244091Y-99397483D01*
X212244091Y-99397481D01*
X212245874Y-99389938D01*
X212248146Y-99390474D01*
X212270429Y-99336688D01*
X212327823Y-99296843D01*
X212366976Y-99290500D01*
X215177770Y-99290500D01*
X215244809Y-99310185D01*
X215265451Y-99326819D01*
X219813181Y-103874548D01*
X219846666Y-103935871D01*
X219849500Y-103962229D01*
X219849500Y-104719726D01*
X219829815Y-104786765D01*
X219796625Y-104821299D01*
X219785389Y-104829166D01*
X219785382Y-104829172D01*
X219629172Y-104985381D01*
X219502466Y-105166338D01*
X219502465Y-105166340D01*
X219409107Y-105366548D01*
X219409104Y-105366554D01*
X219351930Y-105579929D01*
X219351929Y-105579937D01*
X219332677Y-105799997D01*
X219332677Y-105800002D01*
X219351929Y-106020062D01*
X219351930Y-106020070D01*
X219409104Y-106233445D01*
X219409105Y-106233447D01*
X219409106Y-106233450D01*
X219416377Y-106249042D01*
X219502466Y-106433662D01*
X219502468Y-106433666D01*
X219629170Y-106614615D01*
X219629175Y-106614621D01*
X219785378Y-106770824D01*
X219785384Y-106770829D01*
X219966333Y-106897531D01*
X219966335Y-106897532D01*
X219966338Y-106897534D01*
X220166550Y-106990894D01*
X220379932Y-107048070D01*
X220537123Y-107061822D01*
X220599998Y-107067323D01*
X220600000Y-107067323D01*
X220600002Y-107067323D01*
X220655017Y-107062509D01*
X220820068Y-107048070D01*
X221033450Y-106990894D01*
X221233662Y-106897534D01*
X221414620Y-106770826D01*
X221570826Y-106614620D01*
X221697534Y-106433662D01*
X221790894Y-106233450D01*
X221848070Y-106020068D01*
X221865264Y-105823531D01*
X221867323Y-105800002D01*
X221867323Y-105799999D01*
X221855793Y-105668215D01*
X221869559Y-105599715D01*
X221891637Y-105569729D01*
X223288320Y-104173046D01*
X223349642Y-104139563D01*
X223419334Y-104144547D01*
X223475267Y-104186419D01*
X223499684Y-104251883D01*
X223500000Y-104260729D01*
X223500000Y-124376000D01*
X223480315Y-124443039D01*
X223427511Y-124488794D01*
X223376000Y-124500000D01*
X209500000Y-124500000D01*
X209500000Y-139139269D01*
X209480315Y-139206308D01*
X209427511Y-139252063D01*
X209358353Y-139262007D01*
X209294797Y-139232982D01*
X209288319Y-139226950D01*
X208478421Y-138417052D01*
X208478414Y-138417046D01*
X208396357Y-138362218D01*
X208396357Y-138362219D01*
X208355491Y-138334913D01*
X208218917Y-138278343D01*
X208218907Y-138278340D01*
X208073920Y-138249500D01*
X208073918Y-138249500D01*
X205073917Y-138249500D01*
X204926082Y-138249500D01*
X204926080Y-138249500D01*
X204781092Y-138278340D01*
X204781082Y-138278343D01*
X204644511Y-138334912D01*
X204644498Y-138334919D01*
X204521584Y-138417048D01*
X204521580Y-138417051D01*
X198725451Y-144213181D01*
X198664128Y-144246666D01*
X198637770Y-144249500D01*
X189362229Y-144249500D01*
X189295190Y-144229815D01*
X189274548Y-144213181D01*
X187246819Y-142185451D01*
X187213334Y-142124128D01*
X187210500Y-142097770D01*
X187210500Y-136726976D01*
X187230185Y-136659937D01*
X187282989Y-136614182D01*
X187310135Y-136606736D01*
X187309932Y-136605876D01*
X187317479Y-136604092D01*
X187317481Y-136604091D01*
X187317483Y-136604091D01*
X187452331Y-136553796D01*
X187567546Y-136467546D01*
X187653796Y-136352331D01*
X187704091Y-136217483D01*
X187710500Y-136157873D01*
X187710499Y-136091860D01*
X187730183Y-136024824D01*
X187782986Y-135979068D01*
X187852144Y-135969124D01*
X187915700Y-135998148D01*
X187936073Y-136020738D01*
X187985877Y-136091864D01*
X188038402Y-136166877D01*
X188193123Y-136321598D01*
X188372361Y-136447102D01*
X188570670Y-136539575D01*
X188782023Y-136596207D01*
X188964926Y-136612208D01*
X188999998Y-136615277D01*
X189000000Y-136615277D01*
X189000002Y-136615277D01*
X189028254Y-136612805D01*
X189217977Y-136596207D01*
X189429330Y-136539575D01*
X189627639Y-136447102D01*
X189806877Y-136321598D01*
X189961598Y-136166877D01*
X190087102Y-135987639D01*
X190157895Y-135835822D01*
X190204066Y-135783385D01*
X190271260Y-135764233D01*
X190338141Y-135784449D01*
X190382658Y-135835824D01*
X190453333Y-135987387D01*
X190496874Y-136049571D01*
X191140000Y-135406445D01*
X191140000Y-135412661D01*
X191167259Y-135514394D01*
X191219920Y-135605606D01*
X191294394Y-135680080D01*
X191385606Y-135732741D01*
X191487339Y-135760000D01*
X191493553Y-135760000D01*
X190850427Y-136403124D01*
X190912612Y-136446666D01*
X191110840Y-136539101D01*
X191110849Y-136539105D01*
X191322105Y-136595710D01*
X191322115Y-136595712D01*
X191539999Y-136614775D01*
X191540001Y-136614775D01*
X191757884Y-136595712D01*
X191757894Y-136595710D01*
X191969150Y-136539105D01*
X191969164Y-136539100D01*
X192167383Y-136446669D01*
X192167385Y-136446668D01*
X192229571Y-136403124D01*
X191586448Y-135760000D01*
X191592661Y-135760000D01*
X191694394Y-135732741D01*
X191785606Y-135680080D01*
X191860080Y-135605606D01*
X191912741Y-135514394D01*
X191940000Y-135412661D01*
X191940000Y-135406446D01*
X192583124Y-136049570D01*
X192626668Y-135987385D01*
X192626669Y-135987383D01*
X192719100Y-135789164D01*
X192719105Y-135789150D01*
X192775710Y-135577894D01*
X192775712Y-135577884D01*
X192794775Y-135360000D01*
X192794775Y-135359999D01*
X192775712Y-135142115D01*
X192775710Y-135142105D01*
X192719105Y-134930849D01*
X192719101Y-134930840D01*
X192626667Y-134732614D01*
X192626666Y-134732612D01*
X192583124Y-134670428D01*
X192583124Y-134670427D01*
X191940000Y-135313551D01*
X191940000Y-135307339D01*
X191912741Y-135205606D01*
X191860080Y-135114394D01*
X191785606Y-135039920D01*
X191694394Y-134987259D01*
X191592661Y-134960000D01*
X191586447Y-134960000D01*
X192229571Y-134316874D01*
X192167387Y-134273333D01*
X191969159Y-134180898D01*
X191969150Y-134180894D01*
X191757894Y-134124289D01*
X191757884Y-134124287D01*
X191540001Y-134105225D01*
X191539999Y-134105225D01*
X191322115Y-134124287D01*
X191322105Y-134124289D01*
X191110849Y-134180894D01*
X191110840Y-134180898D01*
X190912613Y-134273333D01*
X190850428Y-134316874D01*
X191493554Y-134960000D01*
X191487339Y-134960000D01*
X191385606Y-134987259D01*
X191294394Y-135039920D01*
X191219920Y-135114394D01*
X191167259Y-135205606D01*
X191140000Y-135307339D01*
X191140000Y-135313554D01*
X190496874Y-134670428D01*
X190453333Y-134732613D01*
X190382658Y-134884175D01*
X190336485Y-134936614D01*
X190269292Y-134955766D01*
X190202411Y-134935550D01*
X190157894Y-134884175D01*
X190130909Y-134826306D01*
X190087102Y-134732362D01*
X190087100Y-134732359D01*
X190087099Y-134732357D01*
X189961599Y-134553124D01*
X189910991Y-134502516D01*
X189806877Y-134398402D01*
X189803374Y-134395949D01*
X189759751Y-134341372D01*
X189750500Y-134294376D01*
X189750500Y-130262678D01*
X189770185Y-130195639D01*
X189803375Y-130161104D01*
X189919139Y-130080047D01*
X190080047Y-129919139D01*
X190210568Y-129732734D01*
X190306739Y-129526496D01*
X190365635Y-129306692D01*
X190385468Y-129080000D01*
X190365635Y-128853308D01*
X190306739Y-128633504D01*
X190210568Y-128427266D01*
X190080047Y-128240861D01*
X190080045Y-128240858D01*
X189919141Y-128079954D01*
X189732734Y-127949432D01*
X189732732Y-127949431D01*
X189526497Y-127853261D01*
X189526488Y-127853258D01*
X189306697Y-127794366D01*
X189306693Y-127794365D01*
X189306692Y-127794365D01*
X189306691Y-127794364D01*
X189306686Y-127794364D01*
X189080002Y-127774532D01*
X189079998Y-127774532D01*
X188853313Y-127794364D01*
X188853302Y-127794366D01*
X188633511Y-127853258D01*
X188633502Y-127853261D01*
X188427267Y-127949431D01*
X188427265Y-127949432D01*
X188240858Y-128079954D01*
X188079954Y-128240858D01*
X187949432Y-128427265D01*
X187949431Y-128427267D01*
X187853261Y-128633502D01*
X187853258Y-128633511D01*
X187794366Y-128853302D01*
X187794364Y-128853313D01*
X187774532Y-129079998D01*
X187774532Y-129080001D01*
X187794364Y-129306686D01*
X187794366Y-129306697D01*
X187853258Y-129526488D01*
X187853261Y-129526497D01*
X187949431Y-129732732D01*
X187949432Y-129732734D01*
X188079954Y-129919141D01*
X188213181Y-130052368D01*
X188246666Y-130113691D01*
X188249500Y-130140049D01*
X188249500Y-134294376D01*
X188229815Y-134361415D01*
X188196625Y-134395950D01*
X188193125Y-134398400D01*
X188038400Y-134553124D01*
X187936074Y-134699262D01*
X187881497Y-134742887D01*
X187811999Y-134750081D01*
X187749644Y-134718558D01*
X187714230Y-134658328D01*
X187710499Y-134628139D01*
X187710499Y-134562129D01*
X187710498Y-134562123D01*
X187710497Y-134562116D01*
X187704091Y-134502517D01*
X187653796Y-134367669D01*
X187653795Y-134367668D01*
X187653793Y-134367664D01*
X187567547Y-134252455D01*
X187567544Y-134252452D01*
X187452335Y-134166206D01*
X187452328Y-134166202D01*
X187317482Y-134115908D01*
X187317483Y-134115908D01*
X187257883Y-134109501D01*
X187257881Y-134109500D01*
X187257873Y-134109500D01*
X187257864Y-134109500D01*
X185662129Y-134109500D01*
X185662123Y-134109501D01*
X185602516Y-134115908D01*
X185467671Y-134166202D01*
X185467664Y-134166206D01*
X185352455Y-134252452D01*
X185352452Y-134252455D01*
X185266206Y-134367664D01*
X185266202Y-134367671D01*
X185215908Y-134502517D01*
X185210468Y-134553123D01*
X185209501Y-134562123D01*
X185209500Y-134562135D01*
X185209500Y-136157870D01*
X185209501Y-136157876D01*
X185215908Y-136217483D01*
X185266202Y-136352328D01*
X185266206Y-136352335D01*
X185352452Y-136467544D01*
X185352455Y-136467547D01*
X185467664Y-136553793D01*
X185467671Y-136553797D01*
X185602517Y-136604091D01*
X185610062Y-136605874D01*
X185609523Y-136608151D01*
X185663287Y-136630408D01*
X185703147Y-136687793D01*
X185709500Y-136726975D01*
X185709500Y-142533918D01*
X185709500Y-142533920D01*
X185709499Y-142533920D01*
X185738340Y-142678907D01*
X185738343Y-142678917D01*
X185794913Y-142815490D01*
X185794915Y-142815493D01*
X185804274Y-142829501D01*
X185877049Y-142938418D01*
X185877052Y-142938421D01*
X187916143Y-144977510D01*
X188417048Y-145478415D01*
X188417049Y-145478416D01*
X188521583Y-145582950D01*
X188521585Y-145582952D01*
X188644498Y-145665080D01*
X188644511Y-145665087D01*
X188781082Y-145721656D01*
X188781087Y-145721658D01*
X188781091Y-145721658D01*
X188781092Y-145721659D01*
X188926079Y-145750500D01*
X188926082Y-145750500D01*
X199073920Y-145750500D01*
X199171462Y-145731096D01*
X199218913Y-145721658D01*
X199355495Y-145665084D01*
X199404729Y-145632186D01*
X199478416Y-145582952D01*
X205157786Y-139903580D01*
X205219107Y-139870097D01*
X205288799Y-139875081D01*
X205344732Y-139916953D01*
X205369149Y-139982417D01*
X205357849Y-140043663D01*
X205353264Y-140053496D01*
X205353258Y-140053511D01*
X205294366Y-140273302D01*
X205294364Y-140273313D01*
X205274532Y-140499998D01*
X205274532Y-140500001D01*
X205294364Y-140726686D01*
X205294366Y-140726697D01*
X205353258Y-140946488D01*
X205353261Y-140946497D01*
X205449431Y-141152732D01*
X205449432Y-141152734D01*
X205579954Y-141339141D01*
X205740859Y-141500046D01*
X205776621Y-141525086D01*
X205820247Y-141579662D01*
X205829500Y-141626662D01*
X205829500Y-143653918D01*
X205829500Y-143653920D01*
X205829499Y-143653920D01*
X205858340Y-143798907D01*
X205858343Y-143798917D01*
X205914914Y-143935492D01*
X205914915Y-143935494D01*
X205914916Y-143935495D01*
X205946312Y-143982483D01*
X205947812Y-143984727D01*
X205947813Y-143984730D01*
X205997046Y-144058414D01*
X205997052Y-144058421D01*
X208521584Y-146582952D01*
X208521586Y-146582954D01*
X208551058Y-146602645D01*
X208595270Y-146632186D01*
X208644505Y-146665084D01*
X208644506Y-146665084D01*
X208644507Y-146665085D01*
X208644509Y-146665086D01*
X208781082Y-146721656D01*
X208781087Y-146721658D01*
X208781091Y-146721658D01*
X208781092Y-146721659D01*
X208926079Y-146750500D01*
X208926082Y-146750500D01*
X208926083Y-146750500D01*
X209073918Y-146750500D01*
X209376000Y-146750500D01*
X209443039Y-146770185D01*
X209488794Y-146822989D01*
X209500000Y-146874500D01*
X209500000Y-147876000D01*
X209480315Y-147943039D01*
X209427511Y-147988794D01*
X209376000Y-148000000D01*
X174124000Y-148000000D01*
X174056961Y-147980315D01*
X174011206Y-147927511D01*
X174000000Y-147876000D01*
X174000000Y-143881902D01*
X176499500Y-143881902D01*
X176499500Y-144118097D01*
X176536446Y-144351368D01*
X176609433Y-144575996D01*
X176716657Y-144786433D01*
X176855483Y-144977510D01*
X177022490Y-145144517D01*
X177213567Y-145283343D01*
X177312991Y-145334002D01*
X177424003Y-145390566D01*
X177424005Y-145390566D01*
X177424008Y-145390568D01*
X177544412Y-145429689D01*
X177648631Y-145463553D01*
X177881903Y-145500500D01*
X177881908Y-145500500D01*
X178118097Y-145500500D01*
X178351368Y-145463553D01*
X178575992Y-145390568D01*
X178786433Y-145283343D01*
X178977510Y-145144517D01*
X179144517Y-144977510D01*
X179283343Y-144786433D01*
X179390568Y-144575992D01*
X179463553Y-144351368D01*
X179500500Y-144118097D01*
X179500500Y-143881902D01*
X179463553Y-143648631D01*
X179390566Y-143424003D01*
X179311655Y-143269132D01*
X179283343Y-143213567D01*
X179144517Y-143022490D01*
X178977510Y-142855483D01*
X178786433Y-142716657D01*
X178575996Y-142609433D01*
X178351368Y-142536446D01*
X178118097Y-142499500D01*
X178118092Y-142499500D01*
X177881908Y-142499500D01*
X177881903Y-142499500D01*
X177648631Y-142536446D01*
X177424003Y-142609433D01*
X177213566Y-142716657D01*
X177104550Y-142795862D01*
X177022490Y-142855483D01*
X177022488Y-142855485D01*
X177022487Y-142855485D01*
X176855485Y-143022487D01*
X176855485Y-143022488D01*
X176855483Y-143022490D01*
X176795862Y-143104550D01*
X176716657Y-143213566D01*
X176609433Y-143424003D01*
X176536446Y-143648631D01*
X176499500Y-143881902D01*
X174000000Y-143881902D01*
X174000000Y-134999993D01*
X177409700Y-134999993D01*
X177409700Y-135000006D01*
X177428864Y-135231297D01*
X177428866Y-135231308D01*
X177485842Y-135456300D01*
X177579075Y-135668848D01*
X177706016Y-135863147D01*
X177706019Y-135863151D01*
X177706021Y-135863153D01*
X177863216Y-136033913D01*
X177863219Y-136033915D01*
X177863222Y-136033918D01*
X178046365Y-136176464D01*
X178046371Y-136176468D01*
X178046374Y-136176470D01*
X178250497Y-136286936D01*
X178351464Y-136321598D01*
X178470015Y-136362297D01*
X178470017Y-136362297D01*
X178470019Y-136362298D01*
X178698951Y-136400500D01*
X178698952Y-136400500D01*
X178931048Y-136400500D01*
X178931049Y-136400500D01*
X179159981Y-136362298D01*
X179379503Y-136286936D01*
X179583626Y-136176470D01*
X179607524Y-136157870D01*
X179726740Y-136065080D01*
X179766784Y-136033913D01*
X179775511Y-136024432D01*
X179835394Y-135988441D01*
X179905232Y-135990538D01*
X179962850Y-136030060D01*
X179982924Y-136065080D01*
X180011645Y-136142086D01*
X180011649Y-136142093D01*
X180097809Y-136257187D01*
X180097812Y-136257190D01*
X180212906Y-136343350D01*
X180212913Y-136343354D01*
X180347620Y-136393596D01*
X180347627Y-136393598D01*
X180407155Y-136399999D01*
X180407172Y-136400000D01*
X181105000Y-136400000D01*
X181105000Y-135375277D01*
X181181306Y-135419333D01*
X181295756Y-135450000D01*
X181414244Y-135450000D01*
X181528694Y-135419333D01*
X181605000Y-135375277D01*
X181605000Y-136400000D01*
X182302828Y-136400000D01*
X182302844Y-136399999D01*
X182362372Y-136393598D01*
X182362379Y-136393596D01*
X182497086Y-136343354D01*
X182497093Y-136343350D01*
X182612187Y-136257190D01*
X182612190Y-136257187D01*
X182698350Y-136142093D01*
X182698354Y-136142086D01*
X182748596Y-136007379D01*
X182748598Y-136007372D01*
X182754999Y-135947844D01*
X182755000Y-135947827D01*
X182755000Y-135250000D01*
X181730278Y-135250000D01*
X181774333Y-135173694D01*
X181805000Y-135059244D01*
X181805000Y-134940756D01*
X181774333Y-134826306D01*
X181730278Y-134750000D01*
X182755000Y-134750000D01*
X182755000Y-134052172D01*
X182754999Y-134052155D01*
X182748598Y-133992627D01*
X182748596Y-133992620D01*
X182698354Y-133857913D01*
X182698350Y-133857906D01*
X182612190Y-133742812D01*
X182612187Y-133742809D01*
X182497093Y-133656649D01*
X182497086Y-133656645D01*
X182362379Y-133606403D01*
X182362372Y-133606401D01*
X182302844Y-133600000D01*
X181605000Y-133600000D01*
X181605000Y-134624722D01*
X181528694Y-134580667D01*
X181414244Y-134550000D01*
X181295756Y-134550000D01*
X181181306Y-134580667D01*
X181105000Y-134624722D01*
X181105000Y-133600000D01*
X180407155Y-133600000D01*
X180347627Y-133606401D01*
X180347620Y-133606403D01*
X180212913Y-133656645D01*
X180212906Y-133656649D01*
X180097812Y-133742809D01*
X180097809Y-133742812D01*
X180011649Y-133857906D01*
X180011646Y-133857911D01*
X179982924Y-133934920D01*
X179941052Y-133990853D01*
X179875588Y-134015270D01*
X179807315Y-134000418D01*
X179775514Y-133975571D01*
X179766784Y-133966087D01*
X179725268Y-133933774D01*
X179613337Y-133846654D01*
X179572524Y-133789944D01*
X179565500Y-133748801D01*
X179565500Y-130493362D01*
X179585185Y-130426323D01*
X179637989Y-130380568D01*
X179678691Y-130369834D01*
X179726692Y-130365635D01*
X179946496Y-130306739D01*
X180152734Y-130210568D01*
X180339139Y-130080047D01*
X180500047Y-129919139D01*
X180630568Y-129732734D01*
X180726739Y-129526496D01*
X180785635Y-129306692D01*
X180805468Y-129080000D01*
X180785635Y-128853308D01*
X180726739Y-128633504D01*
X180630568Y-128427266D01*
X180500047Y-128240861D01*
X180500045Y-128240858D01*
X180339141Y-128079954D01*
X180152734Y-127949432D01*
X180152732Y-127949431D01*
X179946497Y-127853261D01*
X179946488Y-127853258D01*
X179726697Y-127794366D01*
X179726693Y-127794365D01*
X179726692Y-127794365D01*
X179726691Y-127794364D01*
X179726686Y-127794364D01*
X179500002Y-127774532D01*
X179499998Y-127774532D01*
X179273313Y-127794364D01*
X179273302Y-127794366D01*
X179053511Y-127853258D01*
X179053502Y-127853261D01*
X178847267Y-127949431D01*
X178847265Y-127949432D01*
X178660858Y-128079954D01*
X178499954Y-128240858D01*
X178369432Y-128427265D01*
X178369431Y-128427267D01*
X178273261Y-128633502D01*
X178273258Y-128633511D01*
X178214366Y-128853302D01*
X178214364Y-128853313D01*
X178194532Y-129079998D01*
X178194532Y-129080002D01*
X178211055Y-129268872D01*
X178197288Y-129337372D01*
X178190631Y-129348567D01*
X178149920Y-129409498D01*
X178149914Y-129409508D01*
X178093342Y-129546086D01*
X178093340Y-129546092D01*
X178064500Y-129691079D01*
X178064500Y-133748801D01*
X178044815Y-133815840D01*
X178016663Y-133846654D01*
X177863218Y-133966085D01*
X177706016Y-134136852D01*
X177579075Y-134331151D01*
X177485842Y-134543699D01*
X177428866Y-134768691D01*
X177428864Y-134768702D01*
X177409700Y-134999993D01*
X174000000Y-134999993D01*
X174000000Y-45881902D01*
X176499500Y-45881902D01*
X176499500Y-46118097D01*
X176536446Y-46351368D01*
X176609433Y-46575996D01*
X176716657Y-46786433D01*
X176855483Y-46977510D01*
X177022490Y-47144517D01*
X177213567Y-47283343D01*
X177312991Y-47334002D01*
X177424003Y-47390566D01*
X177424005Y-47390566D01*
X177424008Y-47390568D01*
X177544412Y-47429689D01*
X177648631Y-47463553D01*
X177881903Y-47500500D01*
X177881908Y-47500500D01*
X178118097Y-47500500D01*
X178351368Y-47463553D01*
X178575992Y-47390568D01*
X178786433Y-47283343D01*
X178977510Y-47144517D01*
X179144517Y-46977510D01*
X179283343Y-46786433D01*
X179390568Y-46575992D01*
X179463553Y-46351368D01*
X179500500Y-46118097D01*
X179500500Y-45881902D01*
X179463553Y-45648631D01*
X179390566Y-45424003D01*
X179283342Y-45213566D01*
X179144517Y-45022490D01*
X178977510Y-44855483D01*
X178786433Y-44716657D01*
X178575996Y-44609433D01*
X178351368Y-44536446D01*
X178118097Y-44499500D01*
X178118092Y-44499500D01*
X177881908Y-44499500D01*
X177881903Y-44499500D01*
X177648631Y-44536446D01*
X177424003Y-44609433D01*
X177213566Y-44716657D01*
X177104550Y-44795862D01*
X177022490Y-44855483D01*
X177022488Y-44855485D01*
X177022487Y-44855485D01*
X176855485Y-45022487D01*
X176855485Y-45022488D01*
X176855483Y-45022490D01*
X176795862Y-45104550D01*
X176716657Y-45213566D01*
X176609433Y-45424003D01*
X176536446Y-45648631D01*
X176499500Y-45881902D01*
X174000000Y-45881902D01*
X174000000Y-42124000D01*
X174019685Y-42056961D01*
X174072489Y-42011206D01*
X174124000Y-42000000D01*
X223376000Y-42000000D01*
X223443039Y-42019685D01*
G37*
%TD.AperFunction*%
%TA.AperFunction,Conductor*%
G36*
X218332539Y-92770185D02*
G01*
X218378294Y-92822989D01*
X218389500Y-92874500D01*
X218389500Y-93847870D01*
X218389501Y-93847876D01*
X218395908Y-93907483D01*
X218446202Y-94042328D01*
X218446206Y-94042335D01*
X218532452Y-94157544D01*
X218532455Y-94157547D01*
X218647664Y-94243793D01*
X218647671Y-94243797D01*
X218782516Y-94294091D01*
X218828757Y-94299063D01*
X218893307Y-94325801D01*
X218933155Y-94383194D01*
X218939500Y-94422352D01*
X218939500Y-97363918D01*
X218939500Y-97363920D01*
X218939499Y-97363920D01*
X218968340Y-97508907D01*
X218968343Y-97508917D01*
X219024912Y-97645487D01*
X219024916Y-97645496D01*
X219032824Y-97657329D01*
X219032825Y-97657334D01*
X219032827Y-97657334D01*
X219105801Y-97766550D01*
X219107051Y-97768420D01*
X219107052Y-97768421D01*
X219308358Y-97969726D01*
X219341843Y-98031049D01*
X219344205Y-98068213D01*
X219332677Y-98199997D01*
X219332677Y-98200002D01*
X219351929Y-98420062D01*
X219351930Y-98420070D01*
X219409104Y-98633445D01*
X219409105Y-98633447D01*
X219409106Y-98633450D01*
X219502466Y-98833662D01*
X219502468Y-98833666D01*
X219629170Y-99014615D01*
X219629175Y-99014621D01*
X219785378Y-99170824D01*
X219785384Y-99170829D01*
X219966333Y-99297531D01*
X219966335Y-99297532D01*
X219966338Y-99297534D01*
X220166550Y-99390894D01*
X220379932Y-99448070D01*
X220537123Y-99461822D01*
X220599998Y-99467323D01*
X220600000Y-99467323D01*
X220600002Y-99467323D01*
X220655017Y-99462509D01*
X220820068Y-99448070D01*
X221033450Y-99390894D01*
X221233662Y-99297534D01*
X221414620Y-99170826D01*
X221570826Y-99014620D01*
X221697534Y-98833662D01*
X221790894Y-98633450D01*
X221848070Y-98420068D01*
X221867323Y-98200000D01*
X221848070Y-97979932D01*
X221790894Y-97766550D01*
X221697534Y-97566339D01*
X221570826Y-97385380D01*
X221414620Y-97229174D01*
X221414616Y-97229171D01*
X221414610Y-97229166D01*
X221403375Y-97221299D01*
X221359751Y-97166722D01*
X221350500Y-97119726D01*
X221350500Y-95262229D01*
X221370185Y-95195190D01*
X221386819Y-95174548D01*
X223288319Y-93273048D01*
X223349642Y-93239563D01*
X223419334Y-93244547D01*
X223475267Y-93286419D01*
X223499684Y-93351883D01*
X223500000Y-93360729D01*
X223500000Y-101787270D01*
X223480315Y-101854309D01*
X223463681Y-101874951D01*
X221562181Y-103776451D01*
X221500858Y-103809936D01*
X221431166Y-103804952D01*
X221375233Y-103763080D01*
X221350816Y-103697616D01*
X221350500Y-103688770D01*
X221350500Y-103526079D01*
X221333062Y-103438417D01*
X221333062Y-103438416D01*
X221321659Y-103381088D01*
X221279100Y-103278342D01*
X221265084Y-103244505D01*
X221198266Y-103144505D01*
X221198266Y-103144504D01*
X221190609Y-103133045D01*
X221182952Y-103121585D01*
X219899999Y-101838632D01*
X216018421Y-97957052D01*
X216018414Y-97957046D01*
X215944729Y-97907812D01*
X215944729Y-97907813D01*
X215895491Y-97874913D01*
X215758917Y-97818343D01*
X215758907Y-97818340D01*
X215613920Y-97789500D01*
X215613918Y-97789500D01*
X212366977Y-97789500D01*
X212299938Y-97769815D01*
X212254183Y-97717011D01*
X212246733Y-97689865D01*
X212245876Y-97690068D01*
X212244092Y-97682520D01*
X212193797Y-97547671D01*
X212193793Y-97547664D01*
X212107547Y-97432455D01*
X212107544Y-97432452D01*
X211992335Y-97346206D01*
X211992328Y-97346202D01*
X211857482Y-97295908D01*
X211857483Y-97295908D01*
X211797883Y-97289501D01*
X211797881Y-97289500D01*
X211797873Y-97289500D01*
X211797865Y-97289500D01*
X211731862Y-97289500D01*
X211664823Y-97269815D01*
X211619068Y-97217011D01*
X211609124Y-97147853D01*
X211638149Y-97084297D01*
X211660734Y-97063928D01*
X211806877Y-96961598D01*
X211961598Y-96806877D01*
X212087102Y-96627639D01*
X212179575Y-96429330D01*
X212236207Y-96217977D01*
X212255277Y-96000000D01*
X212236207Y-95782023D01*
X212201548Y-95652675D01*
X212179577Y-95570677D01*
X212179576Y-95570676D01*
X212179575Y-95570670D01*
X212087102Y-95372362D01*
X212087100Y-95372359D01*
X212087099Y-95372357D01*
X211961599Y-95193124D01*
X211943023Y-95174548D01*
X211806877Y-95038402D01*
X211627639Y-94912898D01*
X211627640Y-94912898D01*
X211627638Y-94912897D01*
X211475824Y-94842105D01*
X211423385Y-94795932D01*
X211404233Y-94728739D01*
X211424449Y-94661858D01*
X211475825Y-94617340D01*
X211627388Y-94546666D01*
X211689571Y-94503124D01*
X211046448Y-93860000D01*
X211052661Y-93860000D01*
X211154394Y-93832741D01*
X211245606Y-93780080D01*
X211320080Y-93705606D01*
X211372741Y-93614394D01*
X211400000Y-93512661D01*
X211400000Y-93506446D01*
X212043124Y-94149570D01*
X212086668Y-94087385D01*
X212086669Y-94087383D01*
X212179100Y-93889164D01*
X212179105Y-93889150D01*
X212235710Y-93677894D01*
X212235712Y-93677884D01*
X212254775Y-93460000D01*
X212254775Y-93459999D01*
X212235712Y-93242115D01*
X212235710Y-93242105D01*
X212179105Y-93030849D01*
X212179101Y-93030840D01*
X212130636Y-92926905D01*
X212120144Y-92857827D01*
X212148664Y-92794043D01*
X212207140Y-92755804D01*
X212243018Y-92750500D01*
X218265500Y-92750500D01*
X218332539Y-92770185D01*
G37*
%TD.AperFunction*%
%TA.AperFunction,Conductor*%
G36*
X197084809Y-84150185D02*
G01*
X197105451Y-84166819D01*
X203021586Y-90082954D01*
X203051932Y-90103229D01*
X203067106Y-90113368D01*
X203144505Y-90165084D01*
X203144506Y-90165084D01*
X203144507Y-90165085D01*
X203281082Y-90221656D01*
X203281087Y-90221658D01*
X203281091Y-90221658D01*
X203281092Y-90221659D01*
X203426079Y-90250500D01*
X203426082Y-90250500D01*
X203426083Y-90250500D01*
X203573917Y-90250500D01*
X208293337Y-90250500D01*
X208360376Y-90270185D01*
X208394912Y-90303377D01*
X208419954Y-90339141D01*
X208580858Y-90500045D01*
X208580861Y-90500047D01*
X208767266Y-90630568D01*
X208973504Y-90726739D01*
X209193308Y-90785635D01*
X209355230Y-90799801D01*
X209419998Y-90805468D01*
X209420000Y-90805468D01*
X209420001Y-90805468D01*
X209440062Y-90803712D01*
X209586861Y-90790869D01*
X209655359Y-90804635D01*
X209685348Y-90826716D01*
X209858633Y-91000001D01*
X209896452Y-91037819D01*
X209929937Y-91099142D01*
X209924953Y-91168833D01*
X209883082Y-91224767D01*
X209817617Y-91249184D01*
X209808771Y-91249500D01*
X206536127Y-91249500D01*
X206507293Y-91255234D01*
X206507294Y-91255235D01*
X206391144Y-91278339D01*
X206391134Y-91278342D01*
X206311132Y-91311479D01*
X206311133Y-91311480D01*
X206254556Y-91334915D01*
X206172423Y-91389795D01*
X206131636Y-91417047D01*
X206131632Y-91417050D01*
X203335502Y-94213181D01*
X203274179Y-94246666D01*
X203247821Y-94249500D01*
X196034500Y-94249500D01*
X195967461Y-94229815D01*
X195921706Y-94177011D01*
X195910500Y-94125500D01*
X195910499Y-92692129D01*
X195910498Y-92692123D01*
X195910497Y-92692116D01*
X195904091Y-92632517D01*
X195869567Y-92539954D01*
X195853797Y-92497671D01*
X195853793Y-92497664D01*
X195767547Y-92382455D01*
X195767544Y-92382452D01*
X195652335Y-92296206D01*
X195652328Y-92296202D01*
X195517482Y-92245908D01*
X195517483Y-92245908D01*
X195482404Y-92242137D01*
X195417853Y-92215399D01*
X195378005Y-92158006D01*
X195375512Y-92088181D01*
X195411165Y-92028092D01*
X195424539Y-92017272D01*
X195449140Y-92000046D01*
X195610045Y-91839141D01*
X195610047Y-91839139D01*
X195740568Y-91652734D01*
X195836739Y-91446496D01*
X195895635Y-91226692D01*
X195915468Y-91000000D01*
X195913276Y-90974950D01*
X195905605Y-90887269D01*
X195895635Y-90773308D01*
X195836739Y-90553504D01*
X195740568Y-90347266D01*
X195610047Y-90160861D01*
X195610045Y-90160858D01*
X195449141Y-89999954D01*
X195262734Y-89869432D01*
X195262728Y-89869429D01*
X195204725Y-89842382D01*
X195152285Y-89796210D01*
X195133133Y-89729017D01*
X195153348Y-89662135D01*
X195204725Y-89617618D01*
X195262734Y-89590568D01*
X195449139Y-89460047D01*
X195610047Y-89299139D01*
X195740568Y-89112734D01*
X195836739Y-88906496D01*
X195895635Y-88686692D01*
X195915468Y-88460000D01*
X195895635Y-88233308D01*
X195836739Y-88013504D01*
X195740568Y-87807266D01*
X195610047Y-87620861D01*
X195610045Y-87620858D01*
X195449141Y-87459954D01*
X195262734Y-87329432D01*
X195262732Y-87329431D01*
X195204725Y-87302382D01*
X195204132Y-87302105D01*
X195151694Y-87255934D01*
X195132542Y-87188740D01*
X195152758Y-87121859D01*
X195204134Y-87077341D01*
X195262484Y-87050132D01*
X195448820Y-86919657D01*
X195609657Y-86758820D01*
X195740134Y-86572482D01*
X195836265Y-86366326D01*
X195836269Y-86366317D01*
X195888872Y-86170000D01*
X195043012Y-86170000D01*
X195075925Y-86112993D01*
X195110000Y-85985826D01*
X195110000Y-85854174D01*
X195075925Y-85727007D01*
X195043012Y-85670000D01*
X195888872Y-85670000D01*
X195888872Y-85669999D01*
X195836269Y-85473682D01*
X195836265Y-85473673D01*
X195740134Y-85267517D01*
X195609657Y-85081179D01*
X195448820Y-84920342D01*
X195262482Y-84789865D01*
X195204133Y-84762657D01*
X195151694Y-84716484D01*
X195132542Y-84649291D01*
X195152758Y-84582410D01*
X195204129Y-84537895D01*
X195262734Y-84510568D01*
X195449139Y-84380047D01*
X195610047Y-84219139D01*
X195635088Y-84183377D01*
X195689665Y-84139752D01*
X195736663Y-84130500D01*
X197017770Y-84130500D01*
X197084809Y-84150185D01*
G37*
%TD.AperFunction*%
%TD*%
M02*
