%TF.GenerationSoftware,KiCad,Pcbnew,8.0.3*%
%TF.CreationDate,2024-08-09T13:49:10+02:00*%
%TF.ProjectId,230V_controller,32333056-5f63-46f6-9e74-726f6c6c6572,rev?*%
%TF.SameCoordinates,Original*%
%TF.FileFunction,Soldermask,Top*%
%TF.FilePolarity,Negative*%
%FSLAX46Y46*%
G04 Gerber Fmt 4.6, Leading zero omitted, Abs format (unit mm)*
G04 Created by KiCad (PCBNEW 8.0.3) date 2024-08-09 13:49:10*
%MOMM*%
%LPD*%
G01*
G04 APERTURE LIST*
%ADD10R,2.200000X2.200000*%
%ADD11O,2.200000X2.200000*%
%ADD12C,1.600000*%
%ADD13O,1.600000X1.600000*%
%ADD14R,2.600000X2.600000*%
%ADD15C,2.600000*%
%ADD16R,1.500000X1.500000*%
%ADD17C,1.500000*%
%ADD18R,1.800000X1.800000*%
%ADD19C,1.800000*%
%ADD20C,2.500000*%
%ADD21R,1.905000X2.000000*%
%ADD22O,1.905000X2.000000*%
%ADD23R,1.600000X1.600000*%
%ADD24C,1.524000*%
G04 APERTURE END LIST*
D10*
%TO.C,D3*%
X237080000Y-78500000D03*
D11*
X226920000Y-78500000D03*
%TD*%
D12*
%TO.C,R10*%
X189080000Y-118920000D03*
D13*
X189080000Y-129080000D03*
%TD*%
D14*
%TO.C,J3*%
X246500000Y-117000000D03*
D15*
X246500000Y-112000000D03*
%TD*%
D10*
%TO.C,D1*%
X226920000Y-74000000D03*
D11*
X237080000Y-74000000D03*
%TD*%
D12*
%TO.C,R5*%
X196420000Y-140500000D03*
D13*
X206580000Y-140500000D03*
%TD*%
D12*
%TO.C,R1*%
X236580000Y-66500000D03*
D13*
X226420000Y-66500000D03*
%TD*%
D16*
%TO.C,Q1*%
X210000000Y-114000000D03*
D17*
X210000000Y-116540000D03*
X210000000Y-119080000D03*
%TD*%
D16*
%TO.C,Q2*%
X211000000Y-98540000D03*
D17*
X211000000Y-96000000D03*
X211000000Y-93460000D03*
%TD*%
D18*
%TO.C,SW2*%
X181000000Y-101000000D03*
D19*
X183500000Y-101000000D03*
X186000000Y-101000000D03*
X181000000Y-107000000D03*
X183500000Y-107000000D03*
X186000000Y-107000000D03*
%TD*%
D20*
%TO.C,REF\u002A\u002A*%
X254000000Y-144000000D03*
%TD*%
D21*
%TO.C,Q3*%
X235000000Y-141000000D03*
D22*
X232460000Y-141000000D03*
X229920000Y-141000000D03*
%TD*%
D12*
%TO.C,R11*%
X179500000Y-118920000D03*
D13*
X179500000Y-129080000D03*
%TD*%
D12*
%TO.C,R3*%
X219580000Y-89500000D03*
D13*
X209420000Y-89500000D03*
%TD*%
D23*
%TO.C,D7*%
X216810000Y-111000000D03*
D13*
X209190000Y-111000000D03*
%TD*%
D12*
%TO.C,R6*%
X203500000Y-124580000D03*
D13*
X203500000Y-114420000D03*
%TD*%
D24*
%TO.C,K1*%
X220600000Y-118600000D03*
X220600000Y-111000000D03*
X235840000Y-118600000D03*
X231840000Y-111000000D03*
X235840000Y-112250000D03*
%TD*%
D14*
%TO.C,J4*%
X246305000Y-104000000D03*
D15*
X246305000Y-99000000D03*
%TD*%
D14*
%TO.C,J1*%
X242000000Y-54000000D03*
D15*
X237000000Y-54000000D03*
%TD*%
D10*
%TO.C,D4*%
X241920000Y-78500000D03*
D11*
X252080000Y-78500000D03*
%TD*%
D20*
%TO.C,REF\u002A\u002A*%
X178000000Y-144000000D03*
%TD*%
%TO.C,REF\u002A\u002A*%
X254000000Y-46000000D03*
%TD*%
D12*
%TO.C,R2*%
X241840000Y-66500000D03*
D13*
X252000000Y-66500000D03*
%TD*%
D12*
%TO.C,R7*%
X198000000Y-97920000D03*
D13*
X198000000Y-108080000D03*
%TD*%
D18*
%TO.C,D6*%
X216000000Y-106540000D03*
D19*
X216000000Y-104000000D03*
%TD*%
D14*
%TO.C,J2*%
X246500000Y-130000000D03*
D15*
X246500000Y-125000000D03*
%TD*%
D10*
%TO.C,D2*%
X252080000Y-74000000D03*
D11*
X241920000Y-74000000D03*
%TD*%
D24*
%TO.C,K2*%
X220600000Y-105800000D03*
X220600000Y-98200000D03*
X235840000Y-105800000D03*
X231840000Y-98200000D03*
X235840000Y-99450000D03*
%TD*%
D16*
%TO.C,Q4*%
X186460000Y-135360000D03*
D17*
X189000000Y-135360000D03*
X191540000Y-135360000D03*
%TD*%
D18*
%TO.C,D9*%
X181355000Y-135000000D03*
D19*
X178815000Y-135000000D03*
%TD*%
D20*
%TO.C,REF\u002A\u002A*%
X178000000Y-46000000D03*
%TD*%
D12*
%TO.C,R8*%
X203500000Y-97920000D03*
D13*
X203500000Y-108080000D03*
%TD*%
D23*
%TO.C,U3*%
X222300000Y-140525000D03*
D13*
X222300000Y-137985000D03*
X222300000Y-135445000D03*
X214680000Y-135445000D03*
X214680000Y-137985000D03*
X214680000Y-140525000D03*
%TD*%
D23*
%TO.C,D8*%
X219690000Y-93000000D03*
D13*
X227310000Y-93000000D03*
%TD*%
D23*
%TO.C,A1*%
X194610000Y-93540000D03*
D13*
X194610000Y-91000000D03*
X194610000Y-88460000D03*
X194610000Y-85920000D03*
X194610000Y-83380000D03*
X194610000Y-80840000D03*
X194610000Y-78300000D03*
X194610000Y-75760000D03*
X194610000Y-73220000D03*
X194610000Y-70680000D03*
X194610000Y-68140000D03*
X194610000Y-65600000D03*
X194610000Y-63060000D03*
X194610000Y-60520000D03*
X194610000Y-57980000D03*
X179370000Y-57980000D03*
X179370000Y-60520000D03*
X179370000Y-63060000D03*
X179370000Y-65600000D03*
X179370000Y-68140000D03*
X179370000Y-70680000D03*
X179370000Y-73220000D03*
X179370000Y-75760000D03*
X179370000Y-78300000D03*
X179370000Y-80840000D03*
X179370000Y-83380000D03*
X179370000Y-85920000D03*
X179370000Y-88460000D03*
X179370000Y-91000000D03*
X179370000Y-93540000D03*
%TD*%
D12*
%TO.C,R4*%
X198000000Y-113920000D03*
D13*
X198000000Y-124080000D03*
%TD*%
D12*
%TO.C,R9*%
X217920000Y-128000000D03*
D13*
X228080000Y-128000000D03*
%TD*%
D23*
%TO.C,U1*%
X234300000Y-86275000D03*
D13*
X234300000Y-83735000D03*
X226680000Y-83735000D03*
X226680000Y-86275000D03*
%TD*%
D18*
%TO.C,D5*%
X216000000Y-118540000D03*
D19*
X216000000Y-116000000D03*
%TD*%
M02*
